<svg width="19" height="18" viewBox="0 0 19 18" fill="none" xmlns="http://www.w3.org/2000/svg">
<g clip-path="url(#clip0_112_2397)">
<path d="M13.1481 11.472L12.6781 11.9358C12.6781 11.9358 11.5703 13.0446 8.53792 10.0238C5.50553 7.01441 6.6245 5.90567 6.6245 5.90567L6.91543 5.61152C7.64275 4.88744 7.70989 3.73345 7.07208 2.88493L5.78527 1.15394C5.002 0.113089 3.4914 -0.0226745 2.59623 0.871103L0.984919 2.47764C0.537334 2.91887 0.246403 3.49587 0.279972 4.12943C0.369489 5.75859 1.108 9.25451 5.2146 13.3387C9.56737 17.6719 13.6516 17.8416 15.3188 17.6832C15.8448 17.6379 16.3035 17.3664 16.6728 16.993L18.1274 15.5449C19.1121 14.5719 18.8324 12.8862 17.5791 12.2074L15.621 11.1439C14.7929 10.6913 13.7859 10.8271 13.1481 11.472Z" fill="#8B583D" stroke="#8B583D" stroke-width="0.5" stroke-miterlimit="10"/>
</g>
<defs>
<clipPath id="clip0_112_2397">
<rect width="19" height="18" fill="white"/>
</clipPath>
</defs>
</svg>
