<svg width="174" height="29" viewBox="0 0 174 29" fill="none" xmlns="http://www.w3.org/2000/svg">
<path d="M43.792 21.728C44.096 21.392 44.384 21.088 44.656 20.816C44.928 20.528 45.184 20.248 45.424 19.976C45.664 19.704 45.896 19.432 46.12 19.16C46.36 18.888 46.6 18.608 46.84 18.32C47.032 18.08 47.192 17.88 47.32 17.72C47.464 17.56 47.592 17.408 47.704 17.264C47.816 17.104 47.928 16.952 48.04 16.808C48.152 16.648 48.28 16.464 48.424 16.256L48.376 16.208C47.992 16.336 47.68 16.424 47.44 16.472C47.2 16.504 46.872 16.52 46.456 16.52C45.624 16.52 44.856 16.384 44.152 16.112C43.464 15.84 42.864 15.464 42.352 14.984C41.84 14.488 41.44 13.904 41.152 13.232C40.864 12.56 40.72 11.824 40.72 11.024C40.72 10.208 40.864 9.464 41.152 8.792C41.44 8.12 41.84 7.544 42.352 7.064C42.88 6.584 43.504 6.208 44.224 5.936C44.944 5.664 45.736 5.528 46.6 5.528C47.48 5.528 48.28 5.664 49 5.936C49.72 6.208 50.336 6.592 50.848 7.088C51.36 7.584 51.76 8.176 52.048 8.864C52.336 9.552 52.48 10.312 52.48 11.144C52.48 12.616 51.912 14.288 50.776 16.16C49.656 18.016 47.92 20.16 45.568 22.592L45.184 23H42.592L43.792 21.728ZM42.736 10.976C42.736 11.488 42.84 11.976 43.048 12.44C43.256 12.888 43.528 13.288 43.864 13.64C44.216 13.976 44.624 14.248 45.088 14.456C45.568 14.648 46.072 14.744 46.6 14.744C47.144 14.744 47.648 14.648 48.112 14.456C48.576 14.248 48.984 13.976 49.336 13.64C49.688 13.288 49.96 12.88 50.152 12.416C50.36 11.952 50.464 11.456 50.464 10.928C50.464 10.432 50.36 9.96 50.152 9.512C49.96 9.064 49.688 8.68 49.336 8.36C49 8.04 48.592 7.784 48.112 7.592C47.648 7.4 47.152 7.304 46.624 7.304C46.096 7.304 45.592 7.4 45.112 7.592C44.648 7.784 44.24 8.048 43.888 8.384C43.536 8.72 43.256 9.112 43.048 9.56C42.84 10.008 42.736 10.48 42.736 10.976ZM57.1279 21.728C57.4319 21.392 57.7199 21.088 57.9919 20.816C58.2639 20.528 58.5199 20.248 58.7599 19.976C58.9999 19.704 59.2319 19.432 59.4559 19.16C59.6959 18.888 59.9359 18.608 60.1759 18.32C60.3679 18.08 60.5279 17.88 60.6559 17.72C60.7999 17.56 60.9279 17.408 61.0399 17.264C61.1519 17.104 61.2639 16.952 61.3759 16.808C61.4879 16.648 61.6159 16.464 61.7599 16.256L61.7119 16.208C61.3279 16.336 61.0159 16.424 60.7759 16.472C60.5359 16.504 60.2079 16.52 59.7919 16.52C58.9599 16.52 58.1919 16.384 57.4879 16.112C56.7999 15.84 56.1999 15.464 55.6879 14.984C55.1759 14.488 54.7759 13.904 54.4879 13.232C54.1999 12.56 54.0559 11.824 54.0559 11.024C54.0559 10.208 54.1999 9.464 54.4879 8.792C54.7759 8.12 55.1759 7.544 55.6879 7.064C56.2159 6.584 56.8399 6.208 57.5599 5.936C58.2799 5.664 59.0719 5.528 59.9359 5.528C60.8159 5.528 61.6159 5.664 62.3359 5.936C63.0559 6.208 63.6719 6.592 64.1839 7.088C64.6959 7.584 65.0959 8.176 65.3839 8.864C65.6719 9.552 65.8159 10.312 65.8159 11.144C65.8159 12.616 65.2479 14.288 64.1119 16.16C62.9919 18.016 61.2559 20.16 58.9039 22.592L58.5199 23H55.9279L57.1279 21.728ZM56.0719 10.976C56.0719 11.488 56.1759 11.976 56.3839 12.44C56.5919 12.888 56.8639 13.288 57.1999 13.64C57.5519 13.976 57.9599 14.248 58.4239 14.456C58.9039 14.648 59.4079 14.744 59.9359 14.744C60.4799 14.744 60.9839 14.648 61.4479 14.456C61.9119 14.248 62.3199 13.976 62.6719 13.64C63.0239 13.288 63.2959 12.88 63.4879 12.416C63.6959 11.952 63.7999 11.456 63.7999 10.928C63.7999 10.432 63.6959 9.96 63.4879 9.512C63.2959 9.064 63.0239 8.68 62.6719 8.36C62.3359 8.04 61.9279 7.784 61.4479 7.592C60.9839 7.4 60.4879 7.304 59.9599 7.304C59.4319 7.304 58.9279 7.4 58.4479 7.592C57.9839 7.784 57.5759 8.048 57.2239 8.384C56.8719 8.72 56.5919 9.112 56.3839 9.56C56.1759 10.008 56.0719 10.48 56.0719 10.976ZM76.8959 7.88H67.8959V6.104H79.7999L71.0879 23H68.8079L76.8959 7.88ZM88.8715 19.136C89.0795 19.552 89.2475 19.864 89.3755 20.072C89.5035 20.28 89.6715 20.488 89.8795 20.696C90.5675 21.432 91.5035 21.8 92.6875 21.8C93.8235 21.8 94.7195 21.496 95.3755 20.888C96.0475 20.264 96.3835 19.424 96.3835 18.368C96.3835 16.112 95.0155 14.984 92.2795 14.984H91.8475V13.208C92.1675 13.208 92.4395 13.2 92.6635 13.184C92.9035 13.168 93.1115 13.152 93.2875 13.136C93.4795 13.104 93.6475 13.064 93.7915 13.016C93.9515 12.968 94.1115 12.912 94.2715 12.848C94.7835 12.64 95.1755 12.32 95.4475 11.888C95.7195 11.44 95.8555 10.904 95.8555 10.28C95.8555 9.368 95.5755 8.648 95.0155 8.12C94.4555 7.576 93.7035 7.304 92.7595 7.304C92.0395 7.304 91.4315 7.448 90.9355 7.736C90.4555 8.024 90.0155 8.504 89.6155 9.176L87.7915 8.768C88.2235 7.712 88.8475 6.912 89.6635 6.368C90.4955 5.808 91.5035 5.528 92.6875 5.528C93.4395 5.528 94.1355 5.648 94.7755 5.888C95.4155 6.112 95.9595 6.432 96.4075 6.848C96.8715 7.264 97.2315 7.76 97.4875 8.336C97.7435 8.912 97.8715 9.544 97.8715 10.232C97.8715 11.976 97.0715 13.224 95.4715 13.976C97.4235 14.728 98.3995 16.16 98.3995 18.272C98.3995 19.072 98.2635 19.8 97.9915 20.456C97.7195 21.112 97.3275 21.672 96.8155 22.136C96.3195 22.6 95.7115 22.952 94.9915 23.192C94.2715 23.448 93.4715 23.576 92.5915 23.576C91.7275 23.576 90.9675 23.448 90.3115 23.192C89.6555 22.936 89.0635 22.528 88.5355 21.968C88.3915 21.824 88.2635 21.68 88.1515 21.536C88.0395 21.392 87.9275 21.24 87.8155 21.08C87.7195 20.904 87.6075 20.712 87.4795 20.504C87.3675 20.296 87.2395 20.04 87.0955 19.736L88.8715 19.136ZM105.975 7.544H103.815L104.055 6.104H107.991V23H105.975V7.544ZM114.103 14.552C114.103 13.16 114.239 11.912 114.511 10.808C114.783 9.688 115.175 8.744 115.687 7.976C116.215 7.192 116.839 6.592 117.559 6.176C118.295 5.744 119.119 5.528 120.031 5.528C120.943 5.528 121.759 5.744 122.479 6.176C123.215 6.592 123.839 7.192 124.351 7.976C124.879 8.744 125.279 9.688 125.551 10.808C125.823 11.912 125.959 13.16 125.959 14.552C125.959 15.944 125.823 17.2 125.551 18.32C125.279 19.424 124.879 20.368 124.351 21.152C123.839 21.92 123.215 22.52 122.479 22.952C121.759 23.368 120.943 23.576 120.031 23.576C119.119 23.576 118.295 23.368 117.559 22.952C116.839 22.52 116.215 21.92 115.687 21.152C115.175 20.368 114.783 19.424 114.511 18.32C114.239 17.2 114.103 15.944 114.103 14.552ZM116.119 14.552C116.119 16.888 116.455 18.68 117.127 19.928C117.799 21.176 118.767 21.8 120.031 21.8C121.295 21.8 122.263 21.176 122.935 19.928C123.607 18.68 123.943 16.888 123.943 14.552C123.943 12.216 123.607 10.424 122.935 9.176C122.263 7.928 121.295 7.304 120.031 7.304C118.767 7.304 117.799 7.928 117.127 9.176C116.455 10.424 116.119 12.216 116.119 14.552ZM134.119 14.552C134.119 13.16 134.255 11.912 134.527 10.808C134.799 9.688 135.191 8.744 135.703 7.976C136.231 7.192 136.855 6.592 137.575 6.176C138.311 5.744 139.135 5.528 140.047 5.528C140.959 5.528 141.775 5.744 142.495 6.176C143.231 6.592 143.855 7.192 144.367 7.976C144.895 8.744 145.295 9.688 145.567 10.808C145.839 11.912 145.975 13.16 145.975 14.552C145.975 15.944 145.839 17.2 145.567 18.32C145.295 19.424 144.895 20.368 144.367 21.152C143.855 21.92 143.231 22.52 142.495 22.952C141.775 23.368 140.959 23.576 140.047 23.576C139.135 23.576 138.311 23.368 137.575 22.952C136.855 22.52 136.231 21.92 135.703 21.152C135.191 20.368 134.799 19.424 134.527 18.32C134.255 17.2 134.119 15.944 134.119 14.552ZM136.135 14.552C136.135 16.888 136.471 18.68 137.143 19.928C137.815 21.176 138.783 21.8 140.047 21.8C141.311 21.8 142.279 21.176 142.951 19.928C143.623 18.68 143.959 16.888 143.959 14.552C143.959 12.216 143.623 10.424 142.951 9.176C142.279 7.928 141.311 7.304 140.047 7.304C138.783 7.304 137.815 7.928 137.143 9.176C136.471 10.424 136.135 12.216 136.135 14.552ZM156.935 7.88H147.935V6.104H159.839L151.127 23H148.847L156.935 7.88ZM160.791 14.552C160.791 13.16 160.927 11.912 161.199 10.808C161.471 9.688 161.863 8.744 162.375 7.976C162.903 7.192 163.527 6.592 164.247 6.176C164.983 5.744 165.807 5.528 166.719 5.528C167.631 5.528 168.447 5.744 169.167 6.176C169.903 6.592 170.527 7.192 171.039 7.976C171.567 8.744 171.967 9.688 172.239 10.808C172.511 11.912 172.647 13.16 172.647 14.552C172.647 15.944 172.511 17.2 172.239 18.32C171.967 19.424 171.567 20.368 171.039 21.152C170.527 21.92 169.903 22.52 169.167 22.952C168.447 23.368 167.631 23.576 166.719 23.576C165.807 23.576 164.983 23.368 164.247 22.952C163.527 22.52 162.903 21.92 162.375 21.152C161.863 20.368 161.471 19.424 161.199 18.32C160.927 17.2 160.791 15.944 160.791 14.552ZM162.807 14.552C162.807 16.888 163.143 18.68 163.815 19.928C164.487 21.176 165.455 21.8 166.719 21.8C167.983 21.8 168.951 21.176 169.623 19.928C170.295 18.68 170.631 16.888 170.631 14.552C170.631 12.216 170.295 10.424 169.623 9.176C168.951 7.928 167.983 7.304 166.719 7.304C165.455 7.304 164.487 7.928 163.815 9.176C163.143 10.424 162.807 12.216 162.807 14.552Z" fill="black" fill-opacity="0.6"/>
<g clip-path="url(#clip0_178_6)">
<path d="M13.8399 16.8347L13.3452 17.2728C13.3452 17.2728 12.1791 18.32 8.98709 15.4671C5.7951 12.6248 6.97296 11.5777 6.97296 11.5777L7.2792 11.2999C8.04481 10.616 8.11548 9.52613 7.4441 8.72475L6.08957 7.08993C5.26507 6.1069 3.67496 5.97868 2.73268 6.8228L1.03656 8.34009C0.565422 8.75681 0.259179 9.30175 0.294515 9.90011C0.388743 11.4388 1.16613 14.7405 5.48886 18.5978C10.0707 22.6902 14.3699 22.8505 16.1249 22.7009C16.6785 22.6581 17.1614 22.4017 17.5501 22.0491L19.0813 20.6814C20.1178 19.7625 19.8234 18.1704 18.5042 17.5293L16.4429 16.5249C15.5713 16.0975 14.5112 16.2257 13.8399 16.8347Z" fill="black" fill-opacity="0.6"/>
</g>
<defs>
<clipPath id="clip0_178_6">
<rect width="20" height="17" fill="white" transform="translate(0 6)"/>
</clipPath>
</defs>
</svg>
