<svg width="210" height="29" viewBox="0 0 210 29" fill="none" xmlns="http://www.w3.org/2000/svg">
<path d="M47.944 23.144C46.648 23.144 45.488 22.8 44.464 22.112C43.456 21.424 42.664 20.44 42.088 19.16C41.528 17.864 41.248 16.344 41.248 14.6C41.248 12.856 41.528 11.344 42.088 10.064C42.664 8.768 43.456 7.776 44.464 7.088C45.488 6.4 46.648 6.056 47.944 6.056C49.24 6.056 50.392 6.4 51.4 7.088C52.424 7.776 53.224 8.768 53.8 10.064C54.376 11.344 54.664 12.856 54.664 14.6C54.664 16.344 54.376 17.864 53.8 19.16C53.224 20.44 52.424 21.424 51.4 22.112C50.392 22.8 49.24 23.144 47.944 23.144ZM47.944 21.56C48.92 21.56 49.776 21.288 50.512 20.744C51.264 20.2 51.848 19.408 52.264 18.368C52.68 17.328 52.888 16.072 52.888 14.6C52.888 13.128 52.68 11.872 52.264 10.832C51.848 9.792 51.264 9 50.512 8.456C49.776 7.912 48.92 7.64 47.944 7.64C46.968 7.64 46.104 7.912 45.352 8.456C44.616 9 44.04 9.792 43.624 10.832C43.208 11.872 43 13.128 43 14.6C43 16.072 43.208 17.328 43.624 18.368C44.04 19.408 44.616 20.2 45.352 20.744C46.104 21.288 46.968 21.56 47.944 21.56ZM61.5546 13.088C63.9866 13.088 65.7546 13.528 66.8586 14.408C67.9786 15.272 68.5386 16.488 68.5386 18.056C68.5386 19.032 68.3066 19.904 67.8426 20.672C67.3946 21.44 66.7146 22.048 65.8026 22.496C64.8906 22.928 63.7706 23.144 62.4426 23.144C61.2426 23.144 60.0986 22.952 59.0106 22.568C57.9386 22.168 57.0746 21.64 56.4186 20.984L57.2586 19.616C57.8186 20.192 58.5546 20.664 59.4666 21.032C60.3786 21.384 61.3626 21.56 62.4186 21.56C63.8106 21.56 64.8826 21.248 65.6346 20.624C66.4026 20 66.7866 19.168 66.7866 18.128C66.7866 16.976 66.3546 16.104 65.4906 15.512C64.6426 14.92 63.2026 14.624 61.1706 14.624H57.5946L58.4586 6.2H67.6506V7.736H59.9706L59.3946 13.088H61.5546ZM75.0312 13.088C77.4632 13.088 79.2312 13.528 80.3352 14.408C81.4552 15.272 82.0152 16.488 82.0152 18.056C82.0152 19.032 81.7832 19.904 81.3192 20.672C80.8712 21.44 80.1912 22.048 79.2792 22.496C78.3672 22.928 77.2472 23.144 75.9192 23.144C74.7192 23.144 73.5752 22.952 72.4872 22.568C71.4152 22.168 70.5512 21.64 69.8952 20.984L70.7352 19.616C71.2952 20.192 72.0312 20.664 72.9432 21.032C73.8552 21.384 74.8392 21.56 75.8952 21.56C77.2872 21.56 78.3592 21.248 79.1112 20.624C79.8792 20 80.2632 19.168 80.2632 18.128C80.2632 16.976 79.8312 16.104 78.9672 15.512C78.1192 14.92 76.6792 14.624 74.6472 14.624H71.0712L71.9352 6.2H81.1272V7.736H73.4472L72.8712 13.088H75.0312ZM84.4009 15.752H90.6889V17.24H84.4009V15.752ZM104.995 6.2V7.424L97.9626 23H96.0906L103.003 7.736H94.3626V10.88H92.6586V6.2H104.995ZM113.763 12.944C114.867 12.944 115.843 13.152 116.691 13.568C117.555 13.984 118.227 14.576 118.707 15.344C119.187 16.096 119.427 16.976 119.427 17.984C119.427 19.008 119.179 19.912 118.683 20.696C118.187 21.48 117.499 22.088 116.619 22.52C115.755 22.936 114.779 23.144 113.691 23.144C111.467 23.144 109.763 22.416 108.579 20.96C107.395 19.488 106.803 17.416 106.803 14.744C106.803 12.872 107.123 11.288 107.763 9.992C108.403 8.696 109.299 7.72 110.451 7.064C111.603 6.392 112.947 6.056 114.483 6.056C116.147 6.056 117.475 6.36 118.467 6.968L117.771 8.36C116.971 7.832 115.883 7.568 114.507 7.568C112.651 7.568 111.195 8.16 110.139 9.344C109.083 10.512 108.555 12.216 108.555 14.456C108.555 14.856 108.579 15.312 108.627 15.824C109.043 14.912 109.707 14.208 110.619 13.712C111.531 13.2 112.579 12.944 113.763 12.944ZM113.619 21.68C114.835 21.68 115.819 21.352 116.571 20.696C117.339 20.024 117.723 19.136 117.723 18.032C117.723 16.928 117.339 16.048 116.571 15.392C115.819 14.736 114.795 14.408 113.499 14.408C112.651 14.408 111.899 14.568 111.243 14.888C110.603 15.208 110.099 15.648 109.731 16.208C109.363 16.768 109.179 17.392 109.179 18.08C109.179 18.72 109.347 19.312 109.683 19.856C110.035 20.4 110.547 20.84 111.219 21.176C111.891 21.512 112.691 21.68 113.619 21.68ZM133.096 6.2V7.424L126.064 23H124.192L131.104 7.736H122.464V10.88H120.76V6.2H133.096ZM134.37 15.752H140.658V17.24H134.37V15.752ZM150.489 12.944C151.593 12.944 152.569 13.152 153.417 13.568C154.281 13.984 154.953 14.576 155.433 15.344C155.913 16.096 156.153 16.976 156.153 17.984C156.153 19.008 155.905 19.912 155.409 20.696C154.913 21.48 154.225 22.088 153.345 22.52C152.481 22.936 151.505 23.144 150.417 23.144C148.193 23.144 146.489 22.416 145.305 20.96C144.121 19.488 143.529 17.416 143.529 14.744C143.529 12.872 143.849 11.288 144.489 9.992C145.129 8.696 146.025 7.72 147.177 7.064C148.329 6.392 149.673 6.056 151.209 6.056C152.873 6.056 154.201 6.36 155.193 6.968L154.497 8.36C153.697 7.832 152.609 7.568 151.233 7.568C149.377 7.568 147.921 8.16 146.865 9.344C145.809 10.512 145.281 12.216 145.281 14.456C145.281 14.856 145.305 15.312 145.353 15.824C145.769 14.912 146.433 14.208 147.345 13.712C148.257 13.2 149.305 12.944 150.489 12.944ZM150.345 21.68C151.561 21.68 152.545 21.352 153.297 20.696C154.065 20.024 154.449 19.136 154.449 18.032C154.449 16.928 154.065 16.048 153.297 15.392C152.545 14.736 151.521 14.408 150.225 14.408C149.377 14.408 148.625 14.568 147.969 14.888C147.329 15.208 146.825 15.648 146.457 16.208C146.089 16.768 145.905 17.392 145.905 18.08C145.905 18.72 146.073 19.312 146.409 19.856C146.761 20.4 147.273 20.84 147.945 21.176C148.617 21.512 149.417 21.68 150.345 21.68ZM162.57 13.088C165.002 13.088 166.77 13.528 167.874 14.408C168.994 15.272 169.554 16.488 169.554 18.056C169.554 19.032 169.322 19.904 168.858 20.672C168.41 21.44 167.73 22.048 166.818 22.496C165.906 22.928 164.786 23.144 163.458 23.144C162.258 23.144 161.114 22.952 160.026 22.568C158.954 22.168 158.09 21.64 157.434 20.984L158.274 19.616C158.834 20.192 159.57 20.664 160.482 21.032C161.394 21.384 162.378 21.56 163.434 21.56C164.826 21.56 165.898 21.248 166.65 20.624C167.418 20 167.802 19.168 167.802 18.128C167.802 16.976 167.37 16.104 166.506 15.512C165.658 14.92 164.218 14.624 162.186 14.624H158.61L159.474 6.2H168.666V7.736H160.986L160.41 13.088H162.57ZM171.94 15.752H178.228V17.24H171.94V15.752ZM195.38 18.584H192.02V23H190.292V18.584H180.812V17.336L189.716 6.2H191.636L183.044 17.048H190.34V13.16H192.02V17.048H195.38V18.584ZM201.289 13.088C203.721 13.088 205.489 13.528 206.593 14.408C207.713 15.272 208.273 16.488 208.273 18.056C208.273 19.032 208.041 19.904 207.577 20.672C207.129 21.44 206.449 22.048 205.537 22.496C204.625 22.928 203.505 23.144 202.177 23.144C200.977 23.144 199.833 22.952 198.745 22.568C197.673 22.168 196.809 21.64 196.153 20.984L196.993 19.616C197.553 20.192 198.289 20.664 199.201 21.032C200.113 21.384 201.097 21.56 202.153 21.56C203.545 21.56 204.617 21.248 205.369 20.624C206.137 20 206.521 19.168 206.521 18.128C206.521 16.976 206.089 16.104 205.225 15.512C204.377 14.92 202.937 14.624 200.905 14.624H197.329L198.193 6.2H207.385V7.736H199.705L199.129 13.088H201.289Z" fill="black" fill-opacity="0.6"/>
<g clip-path="url(#clip0_273_1616)">
<path d="M13.8398 16.8347L13.3451 17.2728C13.3451 17.2728 12.179 18.3199 8.98703 15.467C5.79504 12.6248 6.9729 11.5776 6.9729 11.5776L7.27914 11.2998C8.04475 10.616 8.11542 9.52607 7.44404 8.72469L6.08951 7.08987C5.26501 6.10684 3.6749 5.97862 2.73262 6.82274L1.0365 8.34003C0.56536 8.75675 0.259118 9.30169 0.294454 9.90005C0.388682 11.4387 1.16607 14.7404 5.4888 18.5977C10.0707 22.6901 14.3698 22.8504 16.1248 22.7008C16.6784 22.6581 17.1614 22.4016 17.55 22.049L19.0813 20.6813C20.1178 19.7624 19.8233 18.1703 18.5041 17.5292L16.4429 16.5248C15.5712 16.0974 14.5112 16.2256 13.8398 16.8347Z" fill="black" fill-opacity="0.6"/>
</g>
<defs>
<clipPath id="clip0_273_1616">
<rect width="20" height="17" fill="white" transform="translate(0 6)"/>
</clipPath>
</defs>
</svg>
