<svg width="381" height="223" viewBox="0 0 381 223" fill="none" xmlns="http://www.w3.org/2000/svg">
<g clip-path="url(#clip0_152_34)">
<path d="M20.7779 132.334C15.7262 130.492 10.8531 131.243 6.14054 134.569C6.08699 134.605 6.01558 134.64 5.94418 134.64C5.24801 134.73 4.48044 134.873 3.65932 135.07C2.05278 135.445 0.696149 133.836 1.37447 132.316C3.78428 126.826 14.3339 125.967 18.9393 126.736C28.0787 128.274 37.2717 131.618 46.4469 128.274C48.3212 127.595 49.41 128.006 49.7492 129.544C49.8741 130.062 49.7492 130.617 49.4279 131.046C45.8221 135.892 41.1274 137.824 35.3082 136.822C32.6128 136.357 27.7753 134.855 20.7779 132.316V132.334Z" fill="black" fill-opacity="0.6"/>
<path d="M156.495 158.532C154.496 158.514 152.889 156.297 152.925 153.632C152.961 150.95 154.621 148.804 156.638 148.822C158.637 148.84 160.244 151.057 160.208 153.722C160.172 156.404 158.512 158.55 156.495 158.532Z" fill="black" fill-opacity="0.6"/>
<path d="M133.04 163.95C133.147 151.182 133.147 140.256 133.04 131.189C133.04 129.919 133.182 128.739 133.486 127.684C133.575 127.398 133.754 127.201 134.039 127.112C136.645 126.271 140.59 126.003 140.59 129.883C140.626 153.847 140.608 177.828 140.555 201.791C140.555 204.724 140.572 210.053 142.75 212.61C142.929 212.824 143.232 212.95 143.518 212.878C146.909 212.234 149.73 205.028 150.622 202.166C151.336 199.841 151.693 196.587 151.675 192.402C151.64 182.71 151.64 173.017 151.711 163.325C151.711 163.056 151.872 162.806 152.122 162.681C154.157 161.679 156.227 161.626 158.351 162.502C158.816 162.681 159.119 163.146 159.119 163.646C159.119 175.843 159.119 188.057 159.048 200.306C159.048 203.096 159.351 209.927 161.404 212.288C161.6 212.503 161.904 212.628 162.189 212.574C163.26 212.395 164.385 211.895 164.974 210.875C173.042 196.98 174.863 180.886 169.615 165.757C169.24 164.666 169.74 163.468 170.793 162.985C172.525 162.162 174.363 161.805 176.273 161.912C176.595 161.93 176.827 162.091 176.934 162.413C177.434 163.736 177.862 165.059 178.165 166.365C178.826 169.119 184.699 168.743 186.591 168.368C190.143 167.652 190.107 165.435 191.071 162.538C191.161 162.269 191.41 162.073 191.678 162.037C193.82 161.787 195.802 162.234 197.622 163.36C197.872 163.503 198.033 163.736 198.104 164.004C198.372 165.023 198.408 165.828 198.229 166.383C195.677 174.251 193.553 182.245 191.839 190.346C190.161 198.268 189.304 204.831 191.553 211.376C191.892 212.377 192.91 212.968 193.945 212.753C200.603 211.448 204.066 198.733 204.995 193.082C205.12 192.313 205.923 191.884 206.637 192.188L209.475 193.422C209.796 193.565 209.975 193.922 209.886 194.28C208.636 198.965 207.065 203.49 205.137 207.871C202.674 213.45 198.801 217.832 192.41 217.313C180.789 216.365 182.36 201.791 183.878 193.708C185.181 186.751 186.752 179.848 188.608 172.999C188.697 172.677 188.394 172.373 188.072 172.481C185.234 173.321 183.021 173.661 179.54 172.767C179.201 172.677 179.04 172.82 179.04 173.16C179.308 184.748 177.077 195.764 172.364 206.208C170.186 211.054 167.544 217.385 161.083 217.385C156.049 217.385 154.71 214.094 152.889 209.981C152.764 209.695 152.389 209.677 152.229 209.945C150.194 213.325 148.677 215.274 147.713 215.811C142.34 218.744 138.341 217.546 135.717 212.199C135.592 211.948 135.253 211.895 135.074 212.127C130.469 217.867 125.239 218.923 119.366 215.31C116.849 213.772 115.26 210.947 113.993 208.336C113.797 207.925 113.172 207.96 113.011 208.39C111.208 213.379 106.621 218.976 100.623 216.884C95.6071 215.131 93.9827 205.85 94.2326 201.344C94.6432 193.922 98.2668 169.226 89.3238 166.454C89.0739 166.383 88.8239 166.383 88.574 166.454C83.2546 168.35 81.6838 180.725 81.6838 186.072C81.6659 195.335 81.6481 204.58 81.6124 213.844C81.6124 216.455 80.1843 217.689 77.3461 217.492C75.0077 217.331 73.8474 216.115 73.8474 213.844C73.8474 198.625 73.8831 183.389 73.9545 168.153C73.9545 166.49 74.1509 164.827 74.5257 163.217C74.5793 162.949 74.7399 162.752 74.9898 162.627C77.0426 161.59 80.702 161.018 81.3268 163.718C81.4517 164.254 82.0765 164.505 82.5227 164.183C86.1107 161.626 90.609 161 94.5896 163.038C106.674 169.262 102.837 189.183 101.641 199.502C101.284 202.685 100.07 212.038 104.229 212.824C104.532 212.878 104.8 212.824 105.05 212.664C107.656 210.947 109.388 206.208 110.352 203.561C111.797 199.609 110.869 194.745 110.655 190.542C110.28 183.157 111.851 171.39 117.456 165.739C122.115 161.018 127.167 160.481 132.611 164.183C132.932 164.398 133.075 164.326 133.075 163.933L133.04 163.95ZM125.542 212.896C129.737 212.896 133.129 202.47 133.129 189.595C133.129 176.719 129.737 166.293 125.542 166.293C121.347 166.293 117.956 176.719 117.956 189.595C117.956 202.47 121.347 212.896 125.542 212.896Z" fill="black" fill-opacity="0.6"/>
<path d="M242.399 178.999C241.792 178.319 241.524 178.444 241.613 179.356L245.041 214.425C245.076 214.782 245.326 215.068 245.683 215.122C246.254 215.211 246.915 215.194 247.647 215.05C248.593 214.872 249.36 215.498 249.378 216.463C249.378 217.429 248.646 218.359 247.7 218.573C246.058 218.931 245.362 219.986 245.612 221.774C245.665 222.204 245.29 222.561 244.88 222.472L242.97 222.114C242.666 222.061 242.417 221.792 242.381 221.47L242.202 219.378C242.185 219.128 242.042 219.003 241.792 219.003H219.996C219.604 218.985 219.372 219.181 219.282 219.557L218.747 222.15C218.675 222.508 218.443 222.669 218.069 222.615L216.641 222.4C216.301 222.347 216.087 222.15 216.034 221.81L215.641 219.646C215.587 219.324 215.391 219.11 215.07 219.02C213.463 218.573 212.981 217.5 213.606 215.784C213.695 215.515 213.892 215.354 214.177 215.319L215.534 215.122C215.909 215.068 216.105 214.854 216.123 214.46L217.676 180.179C217.694 179.678 217.533 179.624 217.212 180L209.393 188.709C209.143 188.995 208.858 189.031 208.536 188.816L205.662 186.885C205.341 186.67 205.288 186.187 205.573 185.919C209.5 182.074 213.231 178.122 216.819 174.045C218.301 172.364 218.533 170.987 217.944 168.895C217.872 168.609 218.086 168.34 218.372 168.358L221.317 168.626C221.639 168.644 221.906 168.555 222.138 168.322L226.565 163.852C227.226 163.208 227.244 162.528 226.601 161.849L202.36 135.311C202.146 135.078 202.11 134.81 202.235 134.542C202.789 133.343 203.699 132.592 204.984 132.27C205.305 132.199 205.555 132.27 205.77 132.521L229.921 159.005C230.189 159.309 230.671 159.327 230.957 159.023L256.376 132.61C256.733 132.235 257.34 132.235 257.697 132.61L259.785 134.72C260.017 134.953 260.017 135.185 259.785 135.418L234.027 162.224C233.706 162.546 233.706 162.904 234.027 163.244L254.608 186.026C255.019 186.491 255.037 186.974 254.662 187.457C253.02 189.603 251.556 189.657 249.771 187.564C247.218 184.542 244.755 181.699 242.363 179.052L242.399 178.999ZM228.582 202.747C228.582 202.586 228.707 202.479 228.85 202.461L233.545 202.389C233.706 202.389 233.83 202.515 233.83 202.658V214.746C233.83 214.907 233.973 215.015 234.116 215.015L241.578 215.068C241.738 215.068 241.863 214.925 241.863 214.764L237.9 174.277C237.9 174.277 237.865 174.152 237.829 174.116L230.671 166.23C230.564 166.123 230.385 166.105 230.278 166.23L221.246 175.744C221.246 175.744 221.175 175.851 221.175 175.923L219.354 214.782C219.354 214.943 219.461 215.068 219.622 215.068L228.511 215.033C228.654 215.033 228.779 214.907 228.779 214.764L228.6 202.729L228.582 202.747Z" fill="black" fill-opacity="0.6"/>
<path d="M44.5548 207.299C43.9478 208.283 43.3766 209.266 42.8233 210.268C40.7705 214.094 37.8251 216.383 34.0051 217.099C18.0111 220.139 13.4593 196.051 13.0309 185.035C12.7096 177.238 12.9773 170.585 13.7984 165.095C14.8695 157.978 17.1186 149.144 20.5637 138.629C20.6709 138.307 20.8851 138.11 21.2242 138.074C23.2235 137.788 25.0085 138.253 26.5972 139.433C26.8114 139.594 26.9542 139.862 26.9899 140.131C27.097 141.293 27.0613 142.134 26.9007 142.634C22.2595 157.28 19.4927 171.694 20.4566 187.145C20.8672 193.708 21.9918 199.717 23.8482 205.171C27.0435 214.577 34.7549 215.185 39.6459 206.798C41.9307 202.846 43.5016 198.679 44.3406 194.244C45.2152 189.559 46.8218 186.984 51.445 185.983C55.0687 185.196 58.6209 184.105 62.0482 182.71C62.3517 182.585 62.4945 182.37 62.4945 182.048C62.5659 174.698 55.6756 162.753 46.3934 167.545C41.4309 170.102 39.7173 176.63 38.3249 181.226C38.2178 181.548 37.9144 181.726 37.5931 181.691L35.2725 181.387C34.9691 181.351 34.7906 181.19 34.7013 180.886C34.3621 179.616 34.4871 178.132 35.0405 176.451C37.5752 168.976 41.2703 162.306 49.8742 161.876C61.9411 161.268 68.7421 171.14 70.2951 181.941C71.6874 191.598 70.8842 202.381 66.2431 211.108C62.1375 218.851 52.9266 219.549 47.7857 212.521C46.7147 211.054 46.0006 209.159 45.1438 207.317C44.9653 206.941 44.769 206.923 44.5369 207.281L44.5548 207.299ZM62.8693 188.272C59.1207 190.4 55.747 191.508 52.0162 193.1C51.3736 193.368 50.9095 193.958 50.8024 194.656C49.9991 199.878 50.6775 204.849 52.8552 209.57C53.712 211.448 55.3007 213.272 57.4249 212.539C63.0121 210.625 63.4584 193.708 63.3513 188.558C63.3513 188.182 63.1728 188.075 62.8515 188.254L62.8693 188.272Z" fill="black" fill-opacity="0.6"/>
<path d="M282.715 213.272C272.469 225.361 263.169 215.65 259.438 204.795C258.76 202.81 258.26 198.643 257.975 192.277C257.6 184.158 259.51 170.228 266.757 165.274C271.238 162.216 275.575 162.305 279.77 165.596C280.02 165.775 280.216 165.739 280.359 165.489C281.948 162.806 284.233 162.216 287.214 163.736C287.678 163.968 287.964 164.433 287.964 164.952C288.017 177.327 288.106 189.63 288.196 201.827C288.231 206.512 287.874 210.214 290.07 213.629C290.23 213.88 290.445 213.969 290.748 213.951C294.175 213.504 296.96 207.299 297.924 204.402C298.638 202.22 298.995 199.198 298.995 195.317C298.995 185.893 298.995 176.487 298.977 167.062C298.977 162.252 304.439 161.662 306.742 165.292C306.849 165.471 307.081 165.524 307.26 165.399C321.647 156.923 329.037 172.981 328.145 184.444C327.645 190.954 327.056 197.445 326.431 203.955C326.163 206.709 325.61 211.448 327.984 213.468C328.859 214.219 330.18 214.094 330.912 213.182C334.25 209.016 336.66 203.669 336.053 198.196C334.964 188.45 335.339 167.563 347.548 163.557C350.851 162.484 354.153 163.128 357.437 165.542C357.652 165.703 357.973 165.632 358.116 165.381C360.061 161.787 365.791 161.805 365.791 166.633C365.738 179.562 365.72 192.492 365.756 205.421C365.756 208.05 365.756 213.397 368.987 213.933C369.272 213.969 369.522 213.898 369.736 213.737C373.61 210.518 375.431 204.67 376.948 199.824C377.019 199.591 377.198 199.377 377.448 199.287C379.929 198.286 381.696 200.217 380.804 202.613C378.483 208.765 374.592 220.246 366.505 218.637C363.864 218.118 362.079 215.686 360.811 213.415C360.633 213.093 360.169 213.093 359.99 213.415C358.205 216.276 355.617 218.082 352.118 218.279C345.852 218.619 341.497 215.668 339.087 209.391C338.927 208.98 338.337 208.962 338.177 209.391C336.392 213.969 331.394 221.051 325.36 218.064C319.237 215.024 318.916 204.616 319.612 198.876C320.148 194.548 322.29 166.812 313.9 167.974C308.135 168.779 307.188 181.315 307.063 185.517C306.796 195.049 306.742 204.598 306.867 214.13C306.885 215.453 306.599 216.705 306.01 217.868C305.903 218.082 305.743 218.225 305.528 218.315C303.618 219.119 301.78 219.048 299.977 218.1C299.638 217.921 299.406 217.581 299.37 217.188L299.084 213.522C299.066 213.2 298.62 213.093 298.46 213.361C294.729 219.584 286.5 221.373 283.305 213.397C283.162 213.057 282.983 213.021 282.751 213.307L282.715 213.272ZM273.094 214.023C277.307 214.023 280.698 203.615 280.698 190.793C280.698 177.971 277.289 167.563 273.094 167.563C268.899 167.563 265.49 177.953 265.49 190.793C265.49 203.633 268.881 214.023 273.094 214.023ZM350.886 214.309C355.117 214.273 358.491 203.794 358.384 190.9C358.294 178.007 354.778 167.563 350.547 167.599C346.299 167.634 342.943 178.114 343.032 191.007C343.121 203.901 346.638 214.345 350.868 214.309H350.886Z" fill="black" fill-opacity="0.6"/>
<path d="M229.973 178.98L232.49 178.928C232.954 178.919 233.354 179.286 233.364 179.769L233.522 187.457C233.532 187.922 233.147 188.323 232.683 188.333L230.185 188.384C229.72 188.394 229.32 188.009 229.31 187.544L229.152 179.856C229.143 179.391 229.509 178.99 229.991 178.98L229.973 178.98Z" fill="black" fill-opacity="0.6"/>
</g>
<defs>
<clipPath id="clip0_152_34">
<rect width="381" height="223" fill="white"/>
</clipPath>
</defs>
</svg>
