<svg width="147" height="86" viewBox="0 0 147 86" fill="none" xmlns="http://www.w3.org/2000/svg">
<g clip-path="url(#clip0_112_2686)">
<path d="M8.01658 51.0344C6.0675 50.3241 4.1873 50.6138 2.36909 51.8965C2.34843 51.9103 2.32088 51.9241 2.29333 51.9241C2.02473 51.9586 1.72858 52.0138 1.41177 52.0896C0.791923 52.2344 0.268497 51.6138 0.53021 51.0275C1.45998 48.9103 5.5303 48.5793 7.3072 48.8758C10.8334 49.4689 14.3803 50.7586 17.9203 49.4689C18.6435 49.2069 19.0636 49.3655 19.1945 49.9586C19.2427 50.1586 19.1945 50.3724 19.0705 50.5379C17.6793 52.4069 15.868 53.1517 13.6227 52.7655C12.5828 52.5862 10.7164 52.0069 8.01658 51.0275V51.0344Z" fill="#8A593D"/>
<path d="M60.3799 61.1379C59.6085 61.131 58.9886 60.2759 59.0024 59.2483C59.0162 58.2138 59.6567 57.3862 60.435 57.3931C61.2063 57.4 61.8262 58.2552 61.8124 59.2828C61.7986 60.3172 61.1581 61.1448 60.3799 61.1379Z" fill="#8A593D"/>
<path d="M7.55515 51.0344C5.60608 50.3241 3.72588 50.6138 1.90766 51.8965C1.887 51.9103 1.85945 51.9241 1.8319 51.9241C1.5633 51.9586 1.26715 52.0138 0.950343 52.0896C0.330497 52.2344 -0.192929 51.6138 0.0687841 51.0275C0.998554 48.9103 5.06888 48.5793 6.84577 48.8758C10.372 49.4689 13.9189 50.7586 17.4589 49.4689C18.1821 49.2069 18.6022 49.3655 18.733 49.9586C18.7813 50.1586 18.733 50.3724 18.6091 50.5379C17.2179 52.4069 15.4065 53.1517 13.1613 52.7655C12.1214 52.5862 10.2549 52.0069 7.55515 51.0275V51.0344Z" fill="#8A593D"/>
<path d="M51.3301 63.2276C51.3714 58.3034 51.3714 54.0896 51.3301 50.5931C51.3301 50.1034 51.3852 49.6482 51.5023 49.2414C51.5367 49.131 51.6056 49.0551 51.7158 49.0207C52.7213 48.6965 54.2434 48.5931 54.2434 50.0896C54.2571 59.331 54.2502 68.5793 54.2296 77.8207C54.2296 78.9517 54.2365 81.0069 55.0767 81.9931C55.1456 82.0758 55.2627 82.1241 55.3729 82.0965C56.6814 81.8482 57.7696 79.0689 58.114 77.9655C58.3894 77.0689 58.5272 75.8138 58.5203 74.2C58.5065 70.462 58.5065 66.7241 58.5341 62.9862C58.5341 62.8827 58.5961 62.7862 58.6925 62.7379C59.4776 62.3517 60.2765 62.331 61.0961 62.6689C61.2752 62.7379 61.3923 62.9172 61.3923 63.1103C61.3923 67.8138 61.3923 72.5241 61.3647 77.2482C61.3647 78.3241 61.4818 80.9586 62.2738 81.8689C62.3496 81.9517 62.4667 82 62.5769 81.9793C62.9901 81.9103 63.424 81.7172 63.6513 81.3241C66.7643 75.9655 67.4667 69.7586 65.4419 63.9241C65.2973 63.5034 65.4901 63.0413 65.8965 62.8551C66.5645 62.5379 67.2739 62.4 68.0108 62.4413C68.1348 62.4482 68.2243 62.5103 68.2657 62.6345C68.4585 63.1448 68.6238 63.6551 68.7409 64.1586C68.9957 65.2207 71.2616 65.0758 71.9916 64.931C73.3622 64.6551 73.3484 63.8 73.7203 62.6827C73.7547 62.5793 73.8512 62.5034 73.9545 62.4896C74.7809 62.3931 75.5454 62.5655 76.2479 63C76.3443 63.0551 76.4063 63.1448 76.4339 63.2482C76.5372 63.6413 76.5509 63.9517 76.4821 64.1655C75.4972 67.2 74.6776 70.2827 74.0165 73.4069C73.3691 76.462 73.0385 78.9931 73.9063 81.5172C74.0371 81.9034 74.4297 82.131 74.8291 82.0482C77.3981 81.5448 78.7342 76.6414 79.0923 74.462C79.1405 74.1655 79.4504 74 79.7259 74.1172L80.821 74.5931C80.945 74.6483 81.0138 74.7862 80.9794 74.9241C80.4973 76.731 79.8912 78.4758 79.1474 80.1655C78.197 82.3172 76.7025 84.0069 74.2369 83.8069C69.7533 83.4413 70.3594 77.8207 70.9448 74.7034C71.4475 72.0207 72.0536 69.3586 72.7699 66.7172C72.8043 66.5931 72.6872 66.4758 72.5633 66.5172C71.4682 66.8413 70.6142 66.9724 69.2712 66.6276C69.1403 66.5931 69.0784 66.6482 69.0784 66.7793C69.1817 71.2482 68.3208 75.4965 66.5025 79.5241C65.6623 81.3931 64.643 83.8345 62.1498 83.8345C60.2077 83.8345 59.6911 82.5655 58.9886 80.9793C58.9404 80.8689 58.7958 80.862 58.7338 80.9655C57.9487 82.2689 57.3633 83.0207 56.9913 83.2276C54.9183 84.3586 53.3756 83.8965 52.3632 81.8345C52.3149 81.7379 52.1841 81.7172 52.1152 81.8069C50.3383 84.0207 48.3204 84.4276 46.0545 83.0345C45.0834 82.4414 44.4705 81.3517 43.9815 80.3448C43.9057 80.1862 43.6647 80.2 43.6027 80.3655C42.9071 82.2896 41.1371 84.4482 38.823 83.6413C36.8877 82.9655 36.2609 79.3862 36.3574 77.6482C36.5158 74.7862 37.9139 65.262 34.4634 64.1931C34.367 64.1655 34.2705 64.1655 34.1741 64.1931C32.1217 64.9241 31.5157 69.6965 31.5157 71.7586C31.5088 75.331 31.5019 78.8965 31.4881 82.4689C31.4881 83.4758 30.9371 83.9517 29.8421 83.8758C28.9399 83.8138 28.4922 83.3448 28.4922 82.4689C28.4922 76.6 28.506 70.7241 28.5335 64.8482C28.5335 64.2069 28.6093 63.5655 28.7539 62.9448C28.7746 62.8413 28.8365 62.7655 28.933 62.7172C29.725 62.3172 31.1369 62.0965 31.3779 63.1379C31.4261 63.3448 31.6672 63.4413 31.8394 63.3172C33.2237 62.331 34.9593 62.0896 36.4951 62.8758C41.1577 65.2758 39.677 72.9586 39.2155 76.9379C39.0778 78.1655 38.6095 81.7724 40.2142 82.0758C40.3313 82.0965 40.4346 82.0758 40.531 82.0138C41.5365 81.3517 42.2046 79.5241 42.5765 78.5034C43.1343 76.9793 42.7762 75.1034 42.6936 73.4827C42.5489 70.6345 43.155 66.0965 45.3176 63.9172C47.1151 62.0965 49.0642 61.8896 51.1648 63.3172C51.2888 63.4 51.3439 63.3724 51.3439 63.2207L51.3301 63.2276ZM48.4375 82.1034C50.056 82.1034 51.3645 78.0827 51.3645 73.1172C51.3645 68.1517 50.056 64.131 48.4375 64.131C46.819 64.131 45.5104 68.1517 45.5104 73.1172C45.5104 78.0827 46.819 82.1034 48.4375 82.1034Z" fill="#8A593D"/>
<path d="M93.5239 69.0308C93.2897 68.7688 93.1864 68.817 93.2209 69.1688L94.5432 82.6929C94.557 82.8308 94.6534 82.9412 94.7911 82.9619C95.0115 82.9963 95.2663 82.9895 95.5487 82.9343C95.9137 82.8653 96.2099 83.1067 96.2168 83.4791C96.2168 83.8515 95.9344 84.2101 95.5694 84.2929C94.9358 84.4308 94.6672 84.8377 94.7636 85.5274C94.7842 85.6929 94.6396 85.8308 94.4812 85.7963L93.7443 85.6584C93.6272 85.6377 93.5308 85.5343 93.517 85.4101L93.4481 84.6032C93.4412 84.5067 93.3861 84.4584 93.2897 84.4584H84.8805C84.729 84.4515 84.6394 84.5274 84.605 84.6722L84.3984 85.6722C84.3708 85.8101 84.2813 85.8722 84.1367 85.8515L83.5857 85.7688C83.4548 85.7481 83.3722 85.6722 83.3515 85.5412L83.2 84.7067C83.1793 84.5826 83.1036 84.4998 82.9796 84.4653C82.3598 84.2929 82.1738 83.8791 82.4149 83.217C82.4493 83.1136 82.5251 83.0515 82.6353 83.0377L83.1587 82.9619C83.3033 82.9412 83.3791 82.8584 83.386 82.7067L83.9851 69.486C83.992 69.2929 83.93 69.2722 83.8061 69.417L80.7895 72.7757C80.6931 72.886 80.5829 72.8998 80.4589 72.817L79.3501 72.0722C79.2261 71.9895 79.2054 71.8032 79.3156 71.6998C80.8308 70.217 82.2702 68.6929 83.6546 67.1205C84.2262 66.4722 84.3157 65.9412 84.0885 65.1343C84.0609 65.0239 84.1435 64.9205 84.2537 64.9274L85.3901 65.0308C85.5141 65.0377 85.6174 65.0032 85.7069 64.9136L87.415 63.1895C87.6698 62.9412 87.6767 62.6791 87.4287 62.417L78.0759 52.1826C77.9933 52.0929 77.9795 51.9895 78.0277 51.886C78.2412 51.4239 78.5925 51.1343 79.0884 51.0101C79.2123 50.9826 79.3087 51.0101 79.3914 51.1067L88.7097 61.3205C88.8131 61.4377 88.999 61.4446 89.1092 61.3274L98.9166 51.1412C99.0543 50.9963 99.2885 50.9963 99.4262 51.1412L100.232 51.955C100.322 52.0446 100.322 52.1343 100.232 52.2239L90.2938 62.5619C90.1698 62.686 90.1698 62.8239 90.2938 62.955L98.2347 71.7412C98.3931 71.9205 98.4 72.1067 98.2554 72.2929C97.6218 73.1205 97.057 73.1412 96.3683 72.3343C95.3834 71.1688 94.433 70.0722 93.5101 69.0515L93.5239 69.0308ZM88.1932 78.1895C88.1932 78.1274 88.2414 78.086 88.2965 78.0791L90.1078 78.0515C90.1698 78.0515 90.218 78.0998 90.218 78.155V82.817C90.218 82.8791 90.2731 82.9205 90.3282 82.9205L93.2071 82.9412C93.2691 82.9412 93.3173 82.886 93.3173 82.8239L91.7883 67.2101C91.7883 67.2101 91.7745 67.1619 91.7608 67.1481L88.999 64.1067C88.9577 64.0653 88.8888 64.0584 88.8475 64.1067L85.3626 67.7757C85.3626 67.7757 85.335 67.817 85.335 67.8446L84.6325 82.8308C84.6325 82.8929 84.6739 82.9412 84.7358 82.9412L88.1657 82.9274C88.2208 82.9274 88.269 82.8791 88.269 82.8239L88.2001 78.1826L88.1932 78.1895Z" fill="#8A593D"/>
<path d="M17.1903 79.9447C16.9562 80.324 16.7358 80.7033 16.5223 81.0896C15.7302 82.5654 14.5939 83.4482 13.12 83.724C6.94908 84.8965 5.19285 75.6068 5.02756 71.3585C4.90359 68.3516 5.0069 65.7861 5.32371 63.6689C5.73694 60.924 6.60472 57.5171 7.93395 53.462C7.97527 53.3378 8.05792 53.262 8.18878 53.2482C8.96014 53.1378 9.64886 53.3171 10.2618 53.7723C10.3445 53.8344 10.3996 53.9378 10.4133 54.0413C10.4547 54.4896 10.4409 54.8137 10.3789 55.0068C8.58823 60.6551 7.52072 66.2137 7.89263 72.1723C8.05103 74.7033 8.48492 77.0206 9.20119 79.124C10.434 82.7516 13.4093 82.9861 15.2963 79.7516C16.1779 78.2275 16.784 76.6206 17.1077 74.9102C17.4451 73.1033 18.065 72.1102 19.8488 71.724C21.2469 71.4206 22.6174 70.9999 23.9398 70.462C24.0568 70.4137 24.1119 70.3309 24.1119 70.2068C24.1395 67.3723 21.481 62.7654 17.8997 64.6137C15.9851 65.5999 15.3239 68.1171 14.7867 69.8896C14.7454 70.0137 14.6283 70.0827 14.5043 70.0689L13.609 69.9516C13.4919 69.9378 13.423 69.8758 13.3886 69.7585C13.2577 69.2689 13.306 68.6964 13.5195 68.0482C14.4974 65.1654 15.9231 62.593 19.2427 62.4275C23.8984 62.193 26.5225 65.9999 27.1216 70.1654C27.6588 73.8896 27.3489 78.0482 25.5582 81.4137C23.9742 84.3999 20.4204 84.6689 18.4369 81.9585C18.0237 81.393 17.7482 80.662 17.4176 79.9516C17.3487 79.8068 17.273 79.7999 17.1834 79.9378L17.1903 79.9447ZM24.2566 72.6068C22.8103 73.4275 21.5086 73.8551 20.0692 74.4689C19.8212 74.5723 19.6422 74.7999 19.6008 75.0689C19.2909 77.0827 19.5526 78.9999 20.3929 80.8206C20.7234 81.5447 21.3364 82.2482 22.156 81.9654C24.3117 81.2275 24.4838 74.7033 24.4425 72.7171C24.4425 72.5723 24.3737 72.5309 24.2497 72.5999L24.2566 72.6068Z" fill="#8A593D"/>
<path d="M109.079 82.2483C105.126 86.9104 101.538 83.1655 100.098 78.9793C99.8366 78.2138 99.6437 76.6069 99.5336 74.1517C99.3889 71.0207 100.126 65.6483 102.922 63.7379C104.651 62.5586 106.324 62.5931 107.943 63.8621C108.039 63.931 108.115 63.9173 108.17 63.8207C108.783 62.7862 109.665 62.5586 110.815 63.1448C110.994 63.2345 111.104 63.4138 111.104 63.6138C111.125 68.3862 111.159 73.131 111.194 77.8345C111.207 79.6414 111.07 81.069 111.917 82.3862C111.979 82.4828 112.061 82.5173 112.178 82.5104C113.501 82.3379 114.575 79.9448 114.947 78.8276C115.223 77.9862 115.36 76.8207 115.36 75.3241C115.36 71.6897 115.36 68.0621 115.353 64.4276C115.353 62.5724 117.461 62.3448 118.349 63.7448C118.391 63.8138 118.48 63.8345 118.549 63.7862C124.1 60.5173 126.951 66.7104 126.607 71.131C126.414 73.6414 126.187 76.1448 125.946 78.6552C125.843 79.7173 125.629 81.5448 126.545 82.3242C126.883 82.6138 127.392 82.5655 127.675 82.2138C128.962 80.6069 129.892 78.5448 129.658 76.4345C129.238 72.6759 129.383 64.6207 134.093 63.0759C135.368 62.6621 136.642 62.9104 137.909 63.8414C137.992 63.9035 138.116 63.8759 138.171 63.7793C138.921 62.3931 141.132 62.4 141.132 64.2621C141.111 69.2483 141.105 74.2345 141.118 79.2207C141.118 80.2345 141.118 82.2966 142.365 82.5035C142.475 82.5173 142.572 82.4897 142.654 82.4276C144.149 81.1862 144.851 78.931 145.437 77.0621C145.464 76.9724 145.533 76.8897 145.629 76.8552C146.587 76.469 147.269 77.2138 146.924 78.1379C146.029 80.5104 144.528 84.9379 141.408 84.3173C140.388 84.1173 139.7 83.1793 139.211 82.3035C139.142 82.1793 138.963 82.1793 138.894 82.3035C138.205 83.4069 137.206 84.1035 135.857 84.1793C133.439 84.3104 131.759 83.1724 130.829 80.7517C130.767 80.5931 130.54 80.5862 130.478 80.7517C129.789 82.5172 127.861 85.2483 125.533 84.0966C123.17 82.9242 123.046 78.9104 123.315 76.6966C123.522 75.0276 124.348 64.331 121.111 64.7793C118.887 65.0897 118.522 69.9241 118.473 71.5448C118.37 75.2207 118.349 78.9035 118.398 82.5793C118.404 83.0897 118.294 83.5724 118.067 84.0207C118.026 84.1035 117.964 84.1586 117.881 84.1931C117.144 84.5035 116.435 84.4759 115.739 84.1104C115.608 84.0414 115.519 83.9104 115.505 83.7586L115.395 82.3448C115.388 82.2207 115.216 82.1793 115.154 82.2828C113.714 84.6828 110.539 85.3724 109.306 82.2966C109.251 82.1655 109.182 82.1517 109.093 82.2621L109.079 82.2483ZM105.367 82.5379C106.992 82.5379 108.301 78.5241 108.301 73.5793C108.301 68.6345 106.985 64.6207 105.367 64.6207C103.749 64.6207 102.433 68.6276 102.433 73.5793C102.433 78.531 103.742 82.5379 105.367 82.5379ZM135.381 82.6483C137.014 82.6345 138.315 78.5931 138.274 73.6207C138.24 68.6483 136.883 64.6207 135.25 64.6345C133.611 64.6483 132.317 68.6897 132.351 73.6621C132.385 78.6345 133.742 82.6621 135.374 82.6483H135.381Z" fill="#8A593D"/>
<path d="M88.7299 69.0238L89.7008 69.0038C89.8798 69.0001 90.0343 69.1418 90.0381 69.328L90.0991 72.2929C90.1028 72.4721 89.9544 72.6269 89.7754 72.6306L88.8114 72.6505C88.6323 72.6542 88.4777 72.5056 88.474 72.3264L88.4131 69.3615C88.4094 69.1822 88.5508 69.0275 88.7368 69.0237L88.7299 69.0238Z" fill="#8A593D"/>
</g>
<defs>
<clipPath id="clip0_112_2686">
<rect width="147" height="86" fill="white"/>
</clipPath>
</defs>
</svg>
