<svg width="24" height="35" viewBox="0 0 24 35" fill="none" xmlns="http://www.w3.org/2000/svg">
<path d="M16.2201 18.0308C15.9754 17.7688 15.8674 17.817 15.9034 18.1688L17.2851 31.6929C17.2995 31.8308 17.4002 31.9412 17.5441 31.9619C17.7744 31.9963 18.0407 31.9895 18.3357 31.9343C18.7171 31.8653 19.0265 32.1067 19.0337 32.4791C19.0337 32.8515 18.7387 33.2101 18.3573 33.2929C17.6952 33.4308 17.4146 33.8377 17.5153 34.5274C17.5369 34.6929 17.3858 34.8308 17.2203 34.7963L16.4503 34.6584C16.328 34.6377 16.2273 34.5343 16.2129 34.4101L16.1409 33.6032C16.1337 33.5067 16.0761 33.4584 15.9754 33.4584H7.18903C7.03071 33.4515 6.93717 33.5274 6.90119 33.6722L6.68531 34.6722C6.65652 34.8101 6.56298 34.8722 6.41186 34.8515L5.83617 34.7688C5.69945 34.7481 5.6131 34.6722 5.59151 34.5412L5.4332 33.7067C5.41161 33.5826 5.33245 33.4998 5.20293 33.4653C4.55528 33.2929 4.36099 32.8791 4.61285 32.217C4.64883 32.1136 4.72799 32.0515 4.84312 32.0377L5.39002 31.9619C5.54113 31.9412 5.62029 31.8584 5.62749 31.7067L6.25355 18.486C6.26074 18.2929 6.19598 18.2722 6.06645 18.417L2.91459 21.7757C2.81384 21.886 2.6987 21.8998 2.56917 21.817L1.41061 21.0722C1.28108 20.9895 1.2595 20.8032 1.37463 20.6998C2.95776 19.217 4.46173 17.6929 5.90813 16.1205C6.5054 15.4722 6.59896 14.9412 6.36149 14.1343C6.3327 14.0239 6.41905 13.9205 6.53419 13.9274L7.72154 14.0308C7.85107 14.0377 7.95901 14.0032 8.05255 13.9136L9.83717 12.1895C10.1034 11.9412 10.1106 11.6791 9.85156 11.417L0.0793458 1.18256C-0.00700659 1.0929 -0.0213984 0.989452 0.0289738 0.886004C0.252051 0.423935 0.619049 0.134277 1.13716 0.0101389C1.26669 -0.0174473 1.36744 0.0101385 1.45379 0.10669L11.19 10.3205C11.298 10.4377 11.4923 10.4446 11.6074 10.3274L21.8546 0.141175C21.9985 -0.00365253 22.2431 -0.00365253 22.3871 0.141175L23.229 0.954968C23.3225 1.04462 23.3225 1.13428 23.229 1.22393L12.8451 11.5619C12.7156 11.686 12.7156 11.8239 12.8451 11.955L21.1421 20.7412C21.3076 20.9205 21.3148 21.1067 21.1637 21.2929C20.5017 22.1205 19.9116 22.1412 19.192 21.3343C18.163 20.1688 17.1699 19.0722 16.2057 18.0515L16.2201 18.0308ZM10.6503 27.1895C10.6503 27.1274 10.7007 27.086 10.7583 27.0791L12.6508 27.0515C12.7156 27.0515 12.766 27.0998 12.766 27.155V31.817C12.766 31.8791 12.8235 31.9205 12.8811 31.9205L15.889 31.9412C15.9538 31.9412 16.0042 31.886 16.0042 31.8239L14.4066 16.2101C14.4066 16.2101 14.3923 16.1619 14.3779 16.1481L11.4923 13.1067C11.4491 13.0653 11.3771 13.0584 11.334 13.1067L7.69275 16.7757C7.69275 16.7757 7.66397 16.817 7.66397 16.8446L6.92997 31.8308C6.92997 31.8929 6.97315 31.9412 7.03791 31.9412L10.6215 31.9274C10.6791 31.9274 10.7295 31.8791 10.7295 31.8239L10.6575 27.1826L10.6503 27.1895Z" fill="#8A593D"/>
<path d="M11.2109 18.0236L12.2254 18.0036C12.4124 17.9999 12.5738 18.1416 12.5778 18.3277L12.6415 21.2926C12.6454 21.4719 12.4904 21.6267 12.3033 21.6304L11.2961 21.6503C11.109 21.654 10.9475 21.5054 10.9436 21.3261L10.8799 18.3612C10.8761 18.182 11.0239 18.0273 11.2181 18.0235L11.2109 18.0236Z" fill="#8A593D"/>
</svg>
