<svg width="168" height="18" viewBox="0 0 168 18" fill="none" xmlns="http://www.w3.org/2000/svg">
<mask id="path-1-outside-1_377_2" maskUnits="userSpaceOnUse" x="-1" y="-1" width="169" height="19" fill="black">
<rect fill="white" x="-1" y="-1" width="169" height="19"/>
<path d="M6.944 17.144C5.648 17.144 4.488 16.8 3.464 16.112C2.456 15.424 1.664 14.44 1.088 13.16C0.528 11.864 0.248 10.344 0.248 8.6C0.248 6.856 0.528 5.344 1.088 4.064C1.664 2.768 2.456 1.776 3.464 1.088C4.488 0.399999 5.648 0.0559993 6.944 0.0559993C8.24 0.0559993 9.392 0.399999 10.4 1.088C11.424 1.776 12.224 2.768 12.8 4.064C13.376 5.344 13.664 6.856 13.664 8.6C13.664 10.344 13.376 11.864 12.8 13.16C12.224 14.44 11.424 15.424 10.4 16.112C9.392 16.8 8.24 17.144 6.944 17.144ZM6.944 15.56C7.92 15.56 8.776 15.288 9.512 14.744C10.264 14.2 10.848 13.408 11.264 12.368C11.68 11.328 11.888 10.072 11.888 8.6C11.888 7.128 11.68 5.872 11.264 4.832C10.848 3.792 10.264 3 9.512 2.456C8.776 1.912 7.92 1.64 6.944 1.64C5.968 1.64 5.104 1.912 4.352 2.456C3.616 3 3.04 3.792 2.624 4.832C2.208 5.872 2 7.128 2 8.6C2 10.072 2.208 11.328 2.624 12.368C3.04 13.408 3.616 14.2 4.352 14.744C5.104 15.288 5.968 15.56 6.944 15.56ZM20.5546 7.088C22.9866 7.088 24.7546 7.528 25.8586 8.408C26.9786 9.272 27.5386 10.488 27.5386 12.056C27.5386 13.032 27.3066 13.904 26.8426 14.672C26.3946 15.44 25.7146 16.048 24.8026 16.496C23.8906 16.928 22.7706 17.144 21.4426 17.144C20.2426 17.144 19.0986 16.952 18.0106 16.568C16.9386 16.168 16.0746 15.64 15.4186 14.984L16.2586 13.616C16.8186 14.192 17.5546 14.664 18.4666 15.032C19.3786 15.384 20.3626 15.56 21.4186 15.56C22.8106 15.56 23.8826 15.248 24.6346 14.624C25.4026 14 25.7866 13.168 25.7866 12.128C25.7866 10.976 25.3546 10.104 24.4906 9.512C23.6426 8.92 22.2026 8.624 20.1706 8.624H16.5946L17.4586 0.199999H26.6506V1.736H18.9706L18.3946 7.088H20.5546ZM34.0312 7.088C36.4632 7.088 38.2312 7.528 39.3352 8.408C40.4552 9.272 41.0152 10.488 41.0152 12.056C41.0152 13.032 40.7832 13.904 40.3192 14.672C39.8712 15.44 39.1912 16.048 38.2792 16.496C37.3672 16.928 36.2472 17.144 34.9192 17.144C33.7192 17.144 32.5752 16.952 31.4872 16.568C30.4152 16.168 29.5512 15.64 28.8952 14.984L29.7352 13.616C30.2952 14.192 31.0312 14.664 31.9432 15.032C32.8552 15.384 33.8392 15.56 34.8952 15.56C36.2872 15.56 37.3592 15.248 38.1112 14.624C38.8792 14 39.2632 13.168 39.2632 12.128C39.2632 10.976 38.8312 10.104 37.9672 9.512C37.1192 8.92 35.6792 8.624 33.6472 8.624H30.0712L30.9352 0.199999H40.1272V1.736H32.4472L31.8712 7.088H34.0312ZM43.4009 9.752H49.6889V11.24H43.4009V9.752ZM63.9946 0.199999V1.424L56.9626 17H55.0906L62.0026 1.736H53.3626V4.88H51.6586V0.199999H63.9946ZM72.7627 6.944C73.8667 6.944 74.8427 7.152 75.6907 7.568C76.5547 7.984 77.2267 8.576 77.7067 9.344C78.1867 10.096 78.4267 10.976 78.4267 11.984C78.4267 13.008 78.1787 13.912 77.6827 14.696C77.1867 15.48 76.4987 16.088 75.6187 16.52C74.7547 16.936 73.7787 17.144 72.6907 17.144C70.4667 17.144 68.7627 16.416 67.5787 14.96C66.3947 13.488 65.8027 11.416 65.8027 8.744C65.8027 6.872 66.1227 5.288 66.7627 3.992C67.4027 2.696 68.2987 1.72 69.4507 1.064C70.6027 0.391999 71.9467 0.0559993 73.4827 0.0559993C75.1467 0.0559993 76.4747 0.359999 77.4667 0.967999L76.7707 2.36C75.9707 1.832 74.8827 1.568 73.5067 1.568C71.6507 1.568 70.1947 2.16 69.1387 3.344C68.0827 4.512 67.5547 6.216 67.5547 8.456C67.5547 8.856 67.5787 9.312 67.6267 9.824C68.0427 8.912 68.7067 8.208 69.6187 7.712C70.5307 7.2 71.5787 6.944 72.7627 6.944ZM72.6187 15.68C73.8347 15.68 74.8187 15.352 75.5707 14.696C76.3387 14.024 76.7227 13.136 76.7227 12.032C76.7227 10.928 76.3387 10.048 75.5707 9.392C74.8187 8.736 73.7947 8.408 72.4987 8.408C71.6507 8.408 70.8987 8.568 70.2427 8.888C69.6027 9.208 69.0987 9.648 68.7307 10.208C68.3627 10.768 68.1787 11.392 68.1787 12.08C68.1787 12.72 68.3467 13.312 68.6827 13.856C69.0347 14.4 69.5467 14.84 70.2187 15.176C70.8907 15.512 71.6907 15.68 72.6187 15.68ZM92.0962 0.199999V1.424L85.0642 17H83.1922L90.1042 1.736H81.4642V4.88H79.7602V0.199999H92.0962ZM93.3697 9.752H99.6577V11.24H93.3697V9.752ZM109.489 6.944C110.593 6.944 111.569 7.152 112.417 7.568C113.281 7.984 113.953 8.576 114.433 9.344C114.913 10.096 115.153 10.976 115.153 11.984C115.153 13.008 114.905 13.912 114.409 14.696C113.913 15.48 113.225 16.088 112.345 16.52C111.481 16.936 110.505 17.144 109.417 17.144C107.193 17.144 105.489 16.416 104.305 14.96C103.121 13.488 102.529 11.416 102.529 8.744C102.529 6.872 102.849 5.288 103.489 3.992C104.129 2.696 105.025 1.72 106.177 1.064C107.329 0.391999 108.673 0.0559993 110.209 0.0559993C111.873 0.0559993 113.201 0.359999 114.193 0.967999L113.497 2.36C112.697 1.832 111.609 1.568 110.233 1.568C108.377 1.568 106.921 2.16 105.865 3.344C104.809 4.512 104.281 6.216 104.281 8.456C104.281 8.856 104.305 9.312 104.353 9.824C104.769 8.912 105.433 8.208 106.345 7.712C107.257 7.2 108.305 6.944 109.489 6.944ZM109.345 15.68C110.561 15.68 111.545 15.352 112.297 14.696C113.065 14.024 113.449 13.136 113.449 12.032C113.449 10.928 113.065 10.048 112.297 9.392C111.545 8.736 110.521 8.408 109.225 8.408C108.377 8.408 107.625 8.568 106.969 8.888C106.329 9.208 105.825 9.648 105.457 10.208C105.089 10.768 104.905 11.392 104.905 12.08C104.905 12.72 105.073 13.312 105.409 13.856C105.761 14.4 106.273 14.84 106.945 15.176C107.617 15.512 108.417 15.68 109.345 15.68ZM121.57 7.088C124.002 7.088 125.77 7.528 126.874 8.408C127.994 9.272 128.554 10.488 128.554 12.056C128.554 13.032 128.322 13.904 127.858 14.672C127.41 15.44 126.73 16.048 125.818 16.496C124.906 16.928 123.786 17.144 122.458 17.144C121.258 17.144 120.114 16.952 119.026 16.568C117.954 16.168 117.09 15.64 116.434 14.984L117.274 13.616C117.834 14.192 118.57 14.664 119.482 15.032C120.394 15.384 121.378 15.56 122.434 15.56C123.826 15.56 124.898 15.248 125.65 14.624C126.418 14 126.802 13.168 126.802 12.128C126.802 10.976 126.37 10.104 125.506 9.512C124.658 8.92 123.218 8.624 121.186 8.624H117.61L118.474 0.199999H127.666V1.736H119.986L119.41 7.088H121.57ZM130.94 9.752H137.228V11.24H130.94V9.752ZM154.38 12.584H151.02V17H149.292V12.584H139.812V11.336L148.716 0.199999H150.636L142.044 11.048H149.34V7.16H151.02V11.048H154.38V12.584ZM160.289 7.088C162.721 7.088 164.489 7.528 165.593 8.408C166.713 9.272 167.273 10.488 167.273 12.056C167.273 13.032 167.041 13.904 166.577 14.672C166.129 15.44 165.449 16.048 164.537 16.496C163.625 16.928 162.505 17.144 161.177 17.144C159.977 17.144 158.833 16.952 157.745 16.568C156.673 16.168 155.809 15.64 155.153 14.984L155.993 13.616C156.553 14.192 157.289 14.664 158.201 15.032C159.113 15.384 160.097 15.56 161.153 15.56C162.545 15.56 163.617 15.248 164.369 14.624C165.137 14 165.521 13.168 165.521 12.128C165.521 10.976 165.089 10.104 164.225 9.512C163.377 8.92 161.937 8.624 159.905 8.624H156.329L157.193 0.199999H166.385V1.736H158.705L158.129 7.088H160.289Z"/>
</mask>
<path d="M6.944 17.144C5.648 17.144 4.488 16.8 3.464 16.112C2.456 15.424 1.664 14.44 1.088 13.16C0.528 11.864 0.248 10.344 0.248 8.6C0.248 6.856 0.528 5.344 1.088 4.064C1.664 2.768 2.456 1.776 3.464 1.088C4.488 0.399999 5.648 0.0559993 6.944 0.0559993C8.24 0.0559993 9.392 0.399999 10.4 1.088C11.424 1.776 12.224 2.768 12.8 4.064C13.376 5.344 13.664 6.856 13.664 8.6C13.664 10.344 13.376 11.864 12.8 13.16C12.224 14.44 11.424 15.424 10.4 16.112C9.392 16.8 8.24 17.144 6.944 17.144ZM6.944 15.56C7.92 15.56 8.776 15.288 9.512 14.744C10.264 14.2 10.848 13.408 11.264 12.368C11.68 11.328 11.888 10.072 11.888 8.6C11.888 7.128 11.68 5.872 11.264 4.832C10.848 3.792 10.264 3 9.512 2.456C8.776 1.912 7.92 1.64 6.944 1.64C5.968 1.64 5.104 1.912 4.352 2.456C3.616 3 3.04 3.792 2.624 4.832C2.208 5.872 2 7.128 2 8.6C2 10.072 2.208 11.328 2.624 12.368C3.04 13.408 3.616 14.2 4.352 14.744C5.104 15.288 5.968 15.56 6.944 15.56ZM20.5546 7.088C22.9866 7.088 24.7546 7.528 25.8586 8.408C26.9786 9.272 27.5386 10.488 27.5386 12.056C27.5386 13.032 27.3066 13.904 26.8426 14.672C26.3946 15.44 25.7146 16.048 24.8026 16.496C23.8906 16.928 22.7706 17.144 21.4426 17.144C20.2426 17.144 19.0986 16.952 18.0106 16.568C16.9386 16.168 16.0746 15.64 15.4186 14.984L16.2586 13.616C16.8186 14.192 17.5546 14.664 18.4666 15.032C19.3786 15.384 20.3626 15.56 21.4186 15.56C22.8106 15.56 23.8826 15.248 24.6346 14.624C25.4026 14 25.7866 13.168 25.7866 12.128C25.7866 10.976 25.3546 10.104 24.4906 9.512C23.6426 8.92 22.2026 8.624 20.1706 8.624H16.5946L17.4586 0.199999H26.6506V1.736H18.9706L18.3946 7.088H20.5546ZM34.0312 7.088C36.4632 7.088 38.2312 7.528 39.3352 8.408C40.4552 9.272 41.0152 10.488 41.0152 12.056C41.0152 13.032 40.7832 13.904 40.3192 14.672C39.8712 15.44 39.1912 16.048 38.2792 16.496C37.3672 16.928 36.2472 17.144 34.9192 17.144C33.7192 17.144 32.5752 16.952 31.4872 16.568C30.4152 16.168 29.5512 15.64 28.8952 14.984L29.7352 13.616C30.2952 14.192 31.0312 14.664 31.9432 15.032C32.8552 15.384 33.8392 15.56 34.8952 15.56C36.2872 15.56 37.3592 15.248 38.1112 14.624C38.8792 14 39.2632 13.168 39.2632 12.128C39.2632 10.976 38.8312 10.104 37.9672 9.512C37.1192 8.92 35.6792 8.624 33.6472 8.624H30.0712L30.9352 0.199999H40.1272V1.736H32.4472L31.8712 7.088H34.0312ZM43.4009 9.752H49.6889V11.24H43.4009V9.752ZM63.9946 0.199999V1.424L56.9626 17H55.0906L62.0026 1.736H53.3626V4.88H51.6586V0.199999H63.9946ZM72.7627 6.944C73.8667 6.944 74.8427 7.152 75.6907 7.568C76.5547 7.984 77.2267 8.576 77.7067 9.344C78.1867 10.096 78.4267 10.976 78.4267 11.984C78.4267 13.008 78.1787 13.912 77.6827 14.696C77.1867 15.48 76.4987 16.088 75.6187 16.52C74.7547 16.936 73.7787 17.144 72.6907 17.144C70.4667 17.144 68.7627 16.416 67.5787 14.96C66.3947 13.488 65.8027 11.416 65.8027 8.744C65.8027 6.872 66.1227 5.288 66.7627 3.992C67.4027 2.696 68.2987 1.72 69.4507 1.064C70.6027 0.391999 71.9467 0.0559993 73.4827 0.0559993C75.1467 0.0559993 76.4747 0.359999 77.4667 0.967999L76.7707 2.36C75.9707 1.832 74.8827 1.568 73.5067 1.568C71.6507 1.568 70.1947 2.16 69.1387 3.344C68.0827 4.512 67.5547 6.216 67.5547 8.456C67.5547 8.856 67.5787 9.312 67.6267 9.824C68.0427 8.912 68.7067 8.208 69.6187 7.712C70.5307 7.2 71.5787 6.944 72.7627 6.944ZM72.6187 15.68C73.8347 15.68 74.8187 15.352 75.5707 14.696C76.3387 14.024 76.7227 13.136 76.7227 12.032C76.7227 10.928 76.3387 10.048 75.5707 9.392C74.8187 8.736 73.7947 8.408 72.4987 8.408C71.6507 8.408 70.8987 8.568 70.2427 8.888C69.6027 9.208 69.0987 9.648 68.7307 10.208C68.3627 10.768 68.1787 11.392 68.1787 12.08C68.1787 12.72 68.3467 13.312 68.6827 13.856C69.0347 14.4 69.5467 14.84 70.2187 15.176C70.8907 15.512 71.6907 15.68 72.6187 15.68ZM92.0962 0.199999V1.424L85.0642 17H83.1922L90.1042 1.736H81.4642V4.88H79.7602V0.199999H92.0962ZM93.3697 9.752H99.6577V11.24H93.3697V9.752ZM109.489 6.944C110.593 6.944 111.569 7.152 112.417 7.568C113.281 7.984 113.953 8.576 114.433 9.344C114.913 10.096 115.153 10.976 115.153 11.984C115.153 13.008 114.905 13.912 114.409 14.696C113.913 15.48 113.225 16.088 112.345 16.52C111.481 16.936 110.505 17.144 109.417 17.144C107.193 17.144 105.489 16.416 104.305 14.96C103.121 13.488 102.529 11.416 102.529 8.744C102.529 6.872 102.849 5.288 103.489 3.992C104.129 2.696 105.025 1.72 106.177 1.064C107.329 0.391999 108.673 0.0559993 110.209 0.0559993C111.873 0.0559993 113.201 0.359999 114.193 0.967999L113.497 2.36C112.697 1.832 111.609 1.568 110.233 1.568C108.377 1.568 106.921 2.16 105.865 3.344C104.809 4.512 104.281 6.216 104.281 8.456C104.281 8.856 104.305 9.312 104.353 9.824C104.769 8.912 105.433 8.208 106.345 7.712C107.257 7.2 108.305 6.944 109.489 6.944ZM109.345 15.68C110.561 15.68 111.545 15.352 112.297 14.696C113.065 14.024 113.449 13.136 113.449 12.032C113.449 10.928 113.065 10.048 112.297 9.392C111.545 8.736 110.521 8.408 109.225 8.408C108.377 8.408 107.625 8.568 106.969 8.888C106.329 9.208 105.825 9.648 105.457 10.208C105.089 10.768 104.905 11.392 104.905 12.08C104.905 12.72 105.073 13.312 105.409 13.856C105.761 14.4 106.273 14.84 106.945 15.176C107.617 15.512 108.417 15.68 109.345 15.68ZM121.57 7.088C124.002 7.088 125.77 7.528 126.874 8.408C127.994 9.272 128.554 10.488 128.554 12.056C128.554 13.032 128.322 13.904 127.858 14.672C127.41 15.44 126.73 16.048 125.818 16.496C124.906 16.928 123.786 17.144 122.458 17.144C121.258 17.144 120.114 16.952 119.026 16.568C117.954 16.168 117.09 15.64 116.434 14.984L117.274 13.616C117.834 14.192 118.57 14.664 119.482 15.032C120.394 15.384 121.378 15.56 122.434 15.56C123.826 15.56 124.898 15.248 125.65 14.624C126.418 14 126.802 13.168 126.802 12.128C126.802 10.976 126.37 10.104 125.506 9.512C124.658 8.92 123.218 8.624 121.186 8.624H117.61L118.474 0.199999H127.666V1.736H119.986L119.41 7.088H121.57ZM130.94 9.752H137.228V11.24H130.94V9.752ZM154.38 12.584H151.02V17H149.292V12.584H139.812V11.336L148.716 0.199999H150.636L142.044 11.048H149.34V7.16H151.02V11.048H154.38V12.584ZM160.289 7.088C162.721 7.088 164.489 7.528 165.593 8.408C166.713 9.272 167.273 10.488 167.273 12.056C167.273 13.032 167.041 13.904 166.577 14.672C166.129 15.44 165.449 16.048 164.537 16.496C163.625 16.928 162.505 17.144 161.177 17.144C159.977 17.144 158.833 16.952 157.745 16.568C156.673 16.168 155.809 15.64 155.153 14.984L155.993 13.616C156.553 14.192 157.289 14.664 158.201 15.032C159.113 15.384 160.097 15.56 161.153 15.56C162.545 15.56 163.617 15.248 164.369 14.624C165.137 14 165.521 13.168 165.521 12.128C165.521 10.976 165.089 10.104 164.225 9.512C163.377 8.92 161.937 8.624 159.905 8.624H156.329L157.193 0.199999H166.385V1.736H158.705L158.129 7.088H160.289Z" fill="#8A573C"/>
<path d="M3.464 16.112L3.18212 16.525L3.18516 16.527L3.464 16.112ZM1.088 13.16L0.628964 13.3583L0.632039 13.3652L1.088 13.16ZM1.088 4.064L0.631087 3.86093L0.629921 3.86359L1.088 4.064ZM3.464 1.088L3.18515 0.672963L3.18213 0.675024L3.464 1.088ZM10.4 1.088L10.1181 1.50098L10.1212 1.50302L10.4 1.088ZM12.8 4.064L12.3431 4.26707L12.344 4.26918L12.8 4.064ZM12.8 13.16L13.256 13.3652L13.2569 13.3631L12.8 13.16ZM10.4 16.112L10.1211 15.697L10.1181 15.699L10.4 16.112ZM9.512 14.744L9.21893 14.3389L9.21481 14.3419L9.512 14.744ZM11.264 12.368L11.7282 12.5537L11.7282 12.5537L11.264 12.368ZM11.264 4.832L11.7282 4.6463L11.7282 4.6463L11.264 4.832ZM9.512 2.456L9.21479 2.85811L9.21894 2.86111L9.512 2.456ZM4.352 2.456L4.05892 2.05087L4.0548 2.05391L4.352 2.456ZM2.624 4.832L3.08824 5.01769L3.08824 5.01769L2.624 4.832ZM2.624 12.368L3.08824 12.1823L3.08824 12.1823L2.624 12.368ZM4.352 14.744L4.05479 15.1461L4.05894 15.1491L4.352 14.744ZM6.944 16.644C5.74203 16.644 4.68011 16.3267 3.74284 15.697L3.18516 16.527C4.29589 17.2733 5.55397 17.644 6.944 17.644V16.644ZM3.74587 15.699C2.82478 15.0703 2.08796 14.1637 1.54396 12.9548L0.632039 13.3652C1.24004 14.7163 2.08722 15.7777 3.18213 16.525L3.74587 15.699ZM1.54698 12.9617C1.01961 11.7412 0.748 10.2914 0.748 8.6H-0.252C-0.252 10.3966 0.0363906 11.9868 0.629016 13.3583L1.54698 12.9617ZM0.748 8.6C0.748 6.90838 1.01968 5.4676 1.54608 4.26441L0.629921 3.86359C0.0363169 5.2204 -0.252 6.80362 -0.252 8.6H0.748ZM1.54491 4.26707C2.08941 3.04194 2.82631 2.12861 3.74587 1.50097L3.18213 0.675024C2.08569 1.42339 1.23859 2.49406 0.631094 3.86093L1.54491 4.26707ZM3.74284 1.50302C4.68011 0.873299 5.74203 0.555999 6.944 0.555999V-0.444001C5.55397 -0.444001 4.29589 -0.0733011 3.18516 0.672974L3.74284 1.50302ZM6.944 0.555999C8.146 0.555999 9.19846 0.873263 10.1181 1.50097L10.6819 0.675024C9.58554 -0.073265 8.334 -0.444001 6.944 -0.444001V0.555999ZM10.1212 1.50302C11.0559 2.13105 11.7995 3.04392 12.3431 4.26707L13.2569 3.86093C12.6485 2.49208 11.7921 1.42095 10.6788 0.672974L10.1212 1.50302ZM12.344 4.26918C12.8849 5.47103 13.164 6.91006 13.164 8.6H14.164C14.164 6.80194 13.8671 5.21697 13.256 3.85882L12.344 4.26918ZM13.164 8.6C13.164 10.2897 12.8849 11.7378 12.3431 12.9569L13.2569 13.3631C13.8671 11.9902 14.164 10.3983 14.164 8.6H13.164ZM12.344 12.9548C11.8009 14.1617 11.0574 15.0679 10.1212 15.697L10.6788 16.527C11.7906 15.7801 12.6471 14.7183 13.256 13.3652L12.344 12.9548ZM10.1181 15.699C9.19846 16.3267 8.146 16.644 6.944 16.644V17.644C8.334 17.644 9.58554 17.2733 10.6819 16.525L10.1181 15.699ZM6.944 16.06C8.01944 16.06 8.98128 15.758 9.8092 15.1461L9.21481 14.3419C8.57072 14.818 7.82056 15.06 6.944 15.06V16.06ZM9.80506 15.1491C10.6483 14.5391 11.2844 13.6632 11.7282 12.5537L10.7998 12.1823C10.4116 13.1528 9.87972 13.8609 9.21894 14.3389L9.80506 15.1491ZM11.7282 12.5537C12.174 11.4393 12.388 10.1167 12.388 8.6H11.388C11.388 10.0273 11.186 11.2167 10.7998 12.1823L11.7282 12.5537ZM12.388 8.6C12.388 7.08334 12.174 5.76072 11.7282 4.6463L10.7998 5.01769C11.186 5.98328 11.388 7.17266 11.388 8.6H12.388ZM11.7282 4.6463C11.2844 3.53675 10.6483 2.66088 9.80506 2.05089L9.21894 2.86111C9.87972 3.33912 10.4116 4.04725 10.7998 5.01769L11.7282 4.6463ZM9.8092 2.05391C8.98128 1.44197 8.01944 1.14 6.944 1.14V2.14C7.82056 2.14 8.57072 2.38203 9.2148 2.85809L9.8092 2.05391ZM6.944 1.14C5.86854 1.14 4.90077 1.4419 4.05894 2.05089L4.64506 2.86111C5.30723 2.38209 6.06746 2.14 6.944 2.14V1.14ZM4.0548 2.05391C3.22897 2.66431 2.60253 3.53938 2.15976 4.6463L3.08824 5.01769C3.47747 4.04461 4.00303 3.33569 4.6492 2.85809L4.0548 2.05391ZM2.15976 4.6463C1.714 5.76072 1.5 7.08334 1.5 8.6H2.5C2.5 7.17266 2.702 5.98328 3.08824 5.01769L2.15976 4.6463ZM1.5 8.6C1.5 10.1167 1.714 11.4393 2.15976 12.5537L3.08824 12.1823C2.702 11.2167 2.5 10.0273 2.5 8.6H1.5ZM2.15976 12.5537C2.60253 13.6606 3.22897 14.5357 4.0548 15.1461L4.6492 14.3419C4.00303 13.8643 3.47747 13.1554 3.08824 12.1823L2.15976 12.5537ZM4.05894 15.1491C4.90077 15.7581 5.86854 16.06 6.944 16.06V15.06C6.06746 15.06 5.30723 14.8179 4.64506 14.3389L4.05894 15.1491ZM25.8586 8.408L25.5469 8.79904L25.5532 8.80389L25.8586 8.408ZM26.8426 14.672L26.4146 14.4134L26.4107 14.4201L26.8426 14.672ZM24.8026 16.496L25.0167 16.9479L25.0231 16.9448L24.8026 16.496ZM18.0106 16.568L17.8358 17.0365L17.8442 17.0395L18.0106 16.568ZM15.4186 14.984L14.9925 14.7224L14.7861 15.0586L15.0651 15.3376L15.4186 14.984ZM16.2586 13.616L16.6171 13.2675L16.169 12.8065L15.8325 13.3544L16.2586 13.616ZM18.4666 15.032L18.2795 15.4957L18.2866 15.4985L18.4666 15.032ZM24.6346 14.624L24.3193 14.2359L24.3153 14.2392L24.6346 14.624ZM24.4906 9.512L24.2044 9.92199L24.208 9.92447L24.4906 9.512ZM16.5946 8.624L16.0972 8.57299L16.0407 9.124H16.5946V8.624ZM17.4586 0.199999V-0.300001H17.0073L16.9612 0.148984L17.4586 0.199999ZM26.6506 0.199999H27.1506V-0.300001H26.6506V0.199999ZM26.6506 1.736V2.236H27.1506V1.736H26.6506ZM18.9706 1.736V1.236H18.5215L18.4735 1.6825L18.9706 1.736ZM18.3946 7.088L17.8975 7.0345L17.8379 7.588H18.3946V7.088ZM20.5546 7.588C22.9473 7.588 24.5758 8.02487 25.547 8.79899L26.1703 8.01701C24.9334 7.03113 23.0259 6.588 20.5546 6.588V7.588ZM25.5532 8.80389C26.536 9.56204 27.0386 10.6237 27.0386 12.056H28.0386C28.0386 10.3523 27.4212 8.98196 26.164 8.01211L25.5532 8.80389ZM27.0386 12.056C27.0386 12.9491 26.8274 13.7302 26.4147 14.4134L27.2706 14.9306C27.7858 14.0778 28.0386 13.1149 28.0386 12.056H27.0386ZM26.4107 14.4201C26.0191 15.0914 25.4188 15.6362 24.5822 16.0472L25.0231 16.9448C26.0104 16.4598 26.7701 15.7886 27.2745 14.9239L26.4107 14.4201ZM24.5886 16.0441C23.7611 16.4361 22.719 16.644 21.4426 16.644V17.644C22.8223 17.644 24.0201 17.4199 25.0167 16.9479L24.5886 16.0441ZM21.4426 16.644C20.297 16.644 19.2095 16.4609 18.177 16.0965L17.8442 17.0395C18.9878 17.4431 20.1882 17.644 21.4426 17.644V16.644ZM18.1854 16.0995C17.1653 15.7189 16.3671 15.2254 15.7722 14.6304L15.0651 15.3376C15.7821 16.0546 16.712 16.6171 17.8358 17.0365L18.1854 16.0995ZM15.8447 15.2456L16.6847 13.8776L15.8325 13.3544L14.9925 14.7224L15.8447 15.2456ZM15.9001 13.9645C16.5182 14.6003 17.3171 15.1073 18.2795 15.4957L18.6537 14.5683C17.7921 14.2207 17.119 13.7837 16.6171 13.2675L15.9001 13.9645ZM18.2866 15.4985C19.2605 15.8744 20.306 16.06 21.4186 16.06V15.06C20.4192 15.06 19.4968 14.8936 18.6467 14.5655L18.2866 15.4985ZM21.4186 16.06C22.8786 16.06 24.0808 15.7333 24.9539 15.0088L24.3153 14.2392C23.6845 14.7627 22.7426 15.06 21.4186 15.06V16.06ZM24.9499 15.0121C25.8415 14.2877 26.2866 13.3097 26.2866 12.128H25.2866C25.2866 13.0263 24.9638 13.7123 24.3193 14.2359L24.9499 15.0121ZM26.2866 12.128C26.2866 10.8304 25.7885 9.79518 24.7732 9.09953L24.208 9.92447C24.9207 10.4128 25.2866 11.1216 25.2866 12.128H26.2866ZM24.7768 9.10202C23.796 8.4173 22.2223 8.124 20.1706 8.124V9.124C22.183 9.124 23.4892 9.4227 24.2044 9.92198L24.7768 9.10202ZM20.1706 8.124H16.5946V9.124H20.1706V8.124ZM17.092 8.67501L17.956 0.251013L16.9612 0.148984L16.0972 8.57299L17.092 8.67501ZM17.4586 0.699999H26.6506V-0.300001H17.4586V0.699999ZM26.1506 0.199999V1.736H27.1506V0.199999H26.1506ZM26.6506 1.236H18.9706V2.236H26.6506V1.236ZM18.4735 1.6825L17.8975 7.0345L18.8918 7.1415L19.4678 1.7895L18.4735 1.6825ZM18.3946 7.588H20.5546V6.588H18.3946V7.588ZM39.3352 8.408L39.0235 8.79904L39.0298 8.80389L39.3352 8.408ZM40.3192 14.672L39.8912 14.4134L39.8873 14.4201L40.3192 14.672ZM38.2792 16.496L38.4933 16.9479L38.4996 16.9448L38.2792 16.496ZM31.4872 16.568L31.3124 17.0365L31.3208 17.0395L31.4872 16.568ZM28.8952 14.984L28.4691 14.7224L28.2627 15.0586L28.5416 15.3376L28.8952 14.984ZM29.7352 13.616L30.0937 13.2675L29.6455 12.8065L29.3091 13.3544L29.7352 13.616ZM31.9432 15.032L31.7561 15.4957L31.7631 15.4985L31.9432 15.032ZM38.1112 14.624L37.7959 14.2359L37.7919 14.2392L38.1112 14.624ZM37.9672 9.512L37.681 9.92199L37.6846 9.92447L37.9672 9.512ZM30.0712 8.624L29.5738 8.57299L29.5173 9.124H30.0712V8.624ZM30.9352 0.199999V-0.300001H30.4838L30.4378 0.148984L30.9352 0.199999ZM40.1272 0.199999H40.6272V-0.300001H40.1272V0.199999ZM40.1272 1.736V2.236H40.6272V1.736H40.1272ZM32.4472 1.736V1.236H31.9981L31.9501 1.6825L32.4472 1.736ZM31.8712 7.088L31.3741 7.0345L31.3145 7.588H31.8712V7.088ZM34.0312 7.588C36.4239 7.588 38.0524 8.02487 39.0235 8.79899L39.6468 8.01701C38.41 7.03113 36.5025 6.588 34.0312 6.588V7.588ZM39.0298 8.80389C40.0126 9.56204 40.5152 10.6237 40.5152 12.056H41.5152C41.5152 10.3523 40.8978 8.98196 39.6406 8.01211L39.0298 8.80389ZM40.5152 12.056C40.5152 12.9491 40.304 13.7302 39.8912 14.4134L40.7471 14.9306C41.2624 14.0778 41.5152 13.1149 41.5152 12.056H40.5152ZM39.8873 14.4201C39.4957 15.0914 38.8954 15.6362 38.0587 16.0472L38.4996 16.9448C39.487 16.4598 40.2467 15.7886 40.7511 14.9239L39.8873 14.4201ZM38.0651 16.0441C37.2377 16.4361 36.1955 16.644 34.9192 16.644V17.644C36.2988 17.644 37.4967 17.4199 38.4932 16.9479L38.0651 16.0441ZM34.9192 16.644C33.7736 16.644 32.686 16.4609 31.6536 16.0965L31.3208 17.0395C32.4644 17.4431 33.6648 17.644 34.9192 17.644V16.644ZM31.662 16.0995C30.6418 15.7189 29.8437 15.2254 29.2487 14.6304L28.5416 15.3376C29.2587 16.0546 30.1885 16.6171 31.3124 17.0365L31.662 16.0995ZM29.3213 15.2456L30.1613 13.8776L29.3091 13.3544L28.4691 14.7224L29.3213 15.2456ZM29.3767 13.9645C29.9948 14.6003 30.7937 15.1073 31.7561 15.4957L32.1303 14.5683C31.2687 14.2207 30.5956 13.7837 30.0937 13.2675L29.3767 13.9645ZM31.7631 15.4985C32.737 15.8744 33.7826 16.06 34.8952 16.06V15.06C33.8958 15.06 32.9733 14.8936 32.1232 14.5655L31.7631 15.4985ZM34.8952 16.06C36.3552 16.06 37.5574 15.7333 38.4305 15.0088L37.7919 14.2392C37.161 14.7627 36.2192 15.06 34.8952 15.06V16.06ZM38.4265 15.0121C39.318 14.2877 39.7632 13.3097 39.7632 12.128H38.7632C38.7632 13.0263 38.4403 13.7123 37.7959 14.2359L38.4265 15.0121ZM39.7632 12.128C39.7632 10.8304 39.2651 9.79518 38.2498 9.09953L37.6846 9.92447C38.3973 10.4128 38.7632 11.1216 38.7632 12.128H39.7632ZM38.2534 9.10202C37.2726 8.4173 35.6989 8.124 33.6472 8.124V9.124C35.6595 9.124 36.9658 9.4227 37.681 9.92198L38.2534 9.10202ZM33.6472 8.124H30.0712V9.124H33.6472V8.124ZM30.5686 8.67501L31.4326 0.251013L30.4378 0.148984L29.5738 8.57299L30.5686 8.67501ZM30.9352 0.699999H40.1272V-0.300001H30.9352V0.699999ZM39.6272 0.199999V1.736H40.6272V0.199999H39.6272ZM40.1272 1.236H32.4472V2.236H40.1272V1.236ZM31.9501 1.6825L31.3741 7.0345L32.3683 7.1415L32.9443 1.7895L31.9501 1.6825ZM31.8712 7.588H34.0312V6.588H31.8712V7.588ZM43.4009 9.752V9.252H42.9009V9.752H43.4009ZM49.6889 9.752H50.1889V9.252H49.6889V9.752ZM49.6889 11.24V11.74H50.1889V11.24H49.6889ZM43.4009 11.24H42.9009V11.74H43.4009V11.24ZM43.4009 10.252H49.6889V9.252H43.4009V10.252ZM49.1889 9.752V11.24H50.1889V9.752H49.1889ZM49.6889 10.74H43.4009V11.74H49.6889V10.74ZM43.9009 11.24V9.752H42.9009V11.24H43.9009ZM63.9946 0.199999H64.4946V-0.300001H63.9946V0.199999ZM63.9946 1.424L64.4503 1.62974L64.4946 1.53163V1.424H63.9946ZM56.9626 17V17.5H57.2855L57.4183 17.2057L56.9626 17ZM55.0906 17L54.6351 16.7937L54.3153 17.5H55.0906V17ZM62.0026 1.736L62.4581 1.94225L62.7779 1.236H62.0026V1.736ZM53.3626 1.736V1.236H52.8626V1.736H53.3626ZM53.3626 4.88V5.38H53.8626V4.88H53.3626ZM51.6586 4.88H51.1586V5.38H51.6586V4.88ZM51.6586 0.199999V-0.300001H51.1586V0.199999H51.6586ZM63.4946 0.199999V1.424H64.4946V0.199999H63.4946ZM63.5389 1.21826L56.5069 16.7943L57.4183 17.2057L64.4503 1.62974L63.5389 1.21826ZM56.9626 16.5H55.0906V17.5H56.9626V16.5ZM55.5461 17.2063L62.4581 1.94225L61.5471 1.52975L54.6351 16.7937L55.5461 17.2063ZM62.0026 1.236H53.3626V2.236H62.0026V1.236ZM52.8626 1.736V4.88H53.8626V1.736H52.8626ZM53.3626 4.38H51.6586V5.38H53.3626V4.38ZM52.1586 4.88V0.199999H51.1586V4.88H52.1586ZM51.6586 0.699999H63.9946V-0.300001H51.6586V0.699999ZM75.6907 7.568L75.4705 8.01691L75.4738 8.0185L75.6907 7.568ZM77.7067 9.344L77.2827 9.60901L77.2852 9.61302L77.7067 9.344ZM77.6827 14.696L78.1052 14.9633L78.1052 14.9633L77.6827 14.696ZM75.6187 16.52L75.8356 16.9705L75.839 16.9688L75.6187 16.52ZM67.5787 14.96L67.1891 15.2734L67.1908 15.2755L67.5787 14.96ZM66.7627 3.992L66.3144 3.77061L66.3144 3.77061L66.7627 3.992ZM69.4507 1.064L69.6981 1.49852L69.7026 1.49589L69.4507 1.064ZM77.4667 0.967999L77.9139 1.19161L78.119 0.781373L77.728 0.541698L77.4667 0.967999ZM76.7707 2.36L76.4953 2.7773L76.9658 3.08784L77.2179 2.58361L76.7707 2.36ZM69.1387 3.344L69.5096 3.67933L69.5118 3.67681L69.1387 3.344ZM67.6267 9.824L67.1289 9.87067L67.3038 11.7367L68.0816 10.0315L67.6267 9.824ZM69.6187 7.712L69.8576 8.15128L69.8635 8.14799L69.6187 7.712ZM75.5707 14.696L75.8994 15.0728L75.8999 15.0723L75.5707 14.696ZM75.5707 9.392L75.242 9.7688L75.2459 9.77219L75.5707 9.392ZM70.2427 8.888L70.0235 8.43859L70.0191 8.44079L70.2427 8.888ZM68.7307 10.208L68.3128 9.93341L68.3128 9.93341L68.7307 10.208ZM68.6827 13.856L68.2572 14.1188L68.2629 14.1276L68.6827 13.856ZM70.2187 15.176L70.4423 14.7288L70.4423 14.7288L70.2187 15.176ZM72.7627 7.444C73.8032 7.444 74.7017 7.63975 75.4705 8.01689L75.9109 7.11911C74.9837 6.66425 73.9302 6.444 72.7627 6.444V7.444ZM75.4738 8.0185C76.2578 8.39601 76.8558 8.92596 77.2827 9.609L78.1307 9.079C77.5976 8.22603 76.8515 7.57199 75.9076 7.1175L75.4738 8.0185ZM77.2852 9.61302C77.7075 10.2746 77.9267 11.0586 77.9267 11.984H78.9267C78.9267 10.8934 78.6659 9.91744 78.1281 9.07498L77.2852 9.61302ZM77.9267 11.984C77.9267 12.9235 77.7004 13.7328 77.2601 14.4287L78.1052 14.9633C78.657 14.0912 78.9267 13.0925 78.9267 11.984H77.9267ZM77.2601 14.4287C76.8163 15.1302 76.2004 15.6774 75.3984 16.0712L75.839 16.9688C76.797 16.4986 77.557 15.8298 78.1052 14.9633L77.2601 14.4287ZM75.4018 16.0695C74.614 16.4488 73.7137 16.644 72.6907 16.644V17.644C73.8436 17.644 74.8953 17.4232 75.8356 16.9705L75.4018 16.0695ZM72.6907 16.644C70.5862 16.644 69.0377 15.9617 67.9666 14.6445L67.1908 15.2755C68.4877 16.8703 70.3472 17.644 72.6907 17.644V16.644ZM67.9683 14.6466C66.8802 13.2938 66.3027 11.3483 66.3027 8.744H65.3027C65.3027 11.4837 65.9092 13.6822 67.1891 15.2734L67.9683 14.6466ZM66.3027 8.744C66.3027 6.92692 66.6135 5.42331 67.211 4.21339L66.3144 3.77061C65.6319 5.15269 65.3027 6.81708 65.3027 8.744H66.3027ZM67.211 4.21339C67.811 2.99843 68.6407 2.10063 69.6981 1.49849L69.2033 0.629507C67.9567 1.33936 66.9944 2.39357 66.3144 3.77061L67.211 4.21339ZM69.7026 1.49589C70.7672 0.874893 72.0216 0.555999 73.4827 0.555999V-0.444001C71.8718 -0.444001 70.4382 -0.0908943 69.1988 0.63211L69.7026 1.49589ZM73.4827 0.555999C75.0921 0.555999 76.3189 0.850946 77.2054 1.3943L77.728 0.541698C76.6305 -0.130948 75.2013 -0.444001 73.4827 -0.444001V0.555999ZM77.0195 0.744392L76.3235 2.13639L77.2179 2.58361L77.9139 1.19161L77.0195 0.744392ZM77.0461 1.94269C76.136 1.34203 74.94 1.068 73.5067 1.068V2.068C74.8254 2.068 75.8054 2.32197 76.4953 2.7773L77.0461 1.94269ZM73.5067 1.068C71.5348 1.068 69.9328 1.70246 68.7655 3.01119L69.5118 3.67681C70.4566 2.61754 71.7666 2.068 73.5067 2.068V1.068ZM68.7678 3.00868C67.5994 4.30101 67.0547 6.14413 67.0547 8.456H68.0547C68.0547 6.28787 68.566 4.72299 69.5096 3.67932L68.7678 3.00868ZM67.0547 8.456C67.0547 8.87524 67.0798 9.34728 67.1289 9.87067L68.1245 9.77733C68.0776 9.27672 68.0547 8.83676 68.0547 8.456H67.0547ZM68.0816 10.0315C68.4509 9.22183 69.0372 8.59744 69.8576 8.15124L69.3798 7.27276C68.3762 7.81856 67.6345 8.60217 67.1718 9.6165L68.0816 10.0315ZM69.8635 8.14799C70.6913 7.68325 71.6529 7.444 72.7627 7.444V6.444C71.5045 6.444 70.3701 6.71675 69.3739 7.27601L69.8635 8.14799ZM72.6187 16.18C73.928 16.18 75.0375 15.8246 75.8994 15.0728L75.242 14.3192C74.5999 14.8794 73.7414 15.18 72.6187 15.18V16.18ZM75.8999 15.0723C76.7861 14.2969 77.2227 13.2669 77.2227 12.032H76.2227C76.2227 13.0051 75.8913 13.7511 75.2414 14.3197L75.8999 15.0723ZM77.2227 12.032C77.2227 10.7971 76.7858 9.77236 75.8954 9.01181L75.2459 9.77219C75.8915 10.3236 76.2227 11.0589 76.2227 12.032H77.2227ZM75.8994 9.01522C75.0319 8.25848 73.8786 7.908 72.4987 7.908V8.908C73.7107 8.908 74.6055 9.21352 75.242 9.76878L75.8994 9.01522ZM72.4987 7.908C71.587 7.908 70.758 8.08032 70.0235 8.43861L70.4619 9.33738C71.0394 9.05568 71.7144 8.908 72.4987 8.908V7.908ZM70.0191 8.44079C69.3058 8.79743 68.7325 9.29475 68.3128 9.93341L69.1485 10.4826C69.4648 10.0013 69.8996 9.61857 70.4663 9.33521L70.0191 8.44079ZM68.3128 9.93341C67.8897 10.5772 67.6787 11.2972 67.6787 12.08H68.6787C68.6787 11.4868 68.8356 10.9588 69.1485 10.4826L68.3128 9.93341ZM67.6787 12.08C67.6787 12.8127 67.8725 13.4957 68.2573 14.1187L69.1081 13.5933C68.8209 13.1283 68.6787 12.6273 68.6787 12.08H67.6787ZM68.2629 14.1276C68.6707 14.7579 69.2561 15.2537 69.9951 15.6232L70.4423 14.7288C69.8373 14.4263 69.3987 14.0421 69.1025 13.5844L68.2629 14.1276ZM69.9951 15.6232C70.7509 16.0011 71.631 16.18 72.6187 16.18V15.18C71.7504 15.18 71.0305 15.0229 70.4423 14.7288L69.9951 15.6232ZM92.0962 0.199999H92.5962V-0.300001H92.0962V0.199999ZM92.0962 1.424L92.5519 1.62974L92.5962 1.53163V1.424H92.0962ZM85.0642 17V17.5H85.387L85.5199 17.2057L85.0642 17ZM83.1922 17L82.7367 16.7937L82.4169 17.5H83.1922V17ZM90.1042 1.736L90.5597 1.94225L90.8795 1.236H90.1042V1.736ZM81.4642 1.736V1.236H80.9642V1.736H81.4642ZM81.4642 4.88V5.38H81.9642V4.88H81.4642ZM79.7602 4.88H79.2602V5.38H79.7602V4.88ZM79.7602 0.199999V-0.300001H79.2602V0.199999H79.7602ZM91.5962 0.199999V1.424H92.5962V0.199999H91.5962ZM91.6405 1.21826L84.6085 16.7943L85.5199 17.2057L92.5519 1.62974L91.6405 1.21826ZM85.0642 16.5H83.1922V17.5H85.0642V16.5ZM83.6477 17.2063L90.5597 1.94225L89.6487 1.52975L82.7367 16.7937L83.6477 17.2063ZM90.1042 1.236H81.4642V2.236H90.1042V1.236ZM80.9642 1.736V4.88H81.9642V1.736H80.9642ZM81.4642 4.38H79.7602V5.38H81.4642V4.38ZM80.2602 4.88V0.199999H79.2602V4.88H80.2602ZM79.7602 0.699999H92.0962V-0.300001H79.7602V0.699999ZM93.3697 9.752V9.252H92.8697V9.752H93.3697ZM99.6577 9.752H100.158V9.252H99.6577V9.752ZM99.6577 11.24V11.74H100.158V11.24H99.6577ZM93.3697 11.24H92.8697V11.74H93.3697V11.24ZM93.3697 10.252H99.6577V9.252H93.3697V10.252ZM99.1577 9.752V11.24H100.158V9.752H99.1577ZM99.6577 10.74H93.3697V11.74H99.6577V10.74ZM93.8697 11.24V9.752H92.8697V11.24H93.8697ZM112.417 7.568L112.197 8.01691L112.2 8.0185L112.417 7.568ZM114.433 9.344L114.009 9.60901L114.012 9.61302L114.433 9.344ZM114.409 14.696L114.832 14.9633L114.832 14.9633L114.409 14.696ZM112.345 16.52L112.562 16.9705L112.566 16.9688L112.345 16.52ZM104.305 14.96L103.916 15.2734L103.917 15.2755L104.305 14.96ZM103.489 3.992L103.041 3.77061L103.041 3.77061L103.489 3.992ZM106.177 1.064L106.425 1.49852L106.429 1.49589L106.177 1.064ZM114.193 0.967999L114.64 1.19161L114.846 0.781373L114.455 0.541698L114.193 0.967999ZM113.497 2.36L113.222 2.7773L113.692 3.08784L113.944 2.58361L113.497 2.36ZM105.865 3.344L106.236 3.67933L106.238 3.67681L105.865 3.344ZM104.353 9.824L103.855 9.87067L104.03 11.7367L104.808 10.0315L104.353 9.824ZM106.345 7.712L106.584 8.15128L106.59 8.14799L106.345 7.712ZM112.297 14.696L112.626 15.0728L112.627 15.0723L112.297 14.696ZM112.297 9.392L111.969 9.7688L111.973 9.77219L112.297 9.392ZM106.969 8.888L106.75 8.43859L106.746 8.44079L106.969 8.888ZM105.457 10.208L105.039 9.93341L105.039 9.93341L105.457 10.208ZM105.409 13.856L104.984 14.1188L104.989 14.1276L105.409 13.856ZM106.945 15.176L107.169 14.7288L107.169 14.7288L106.945 15.176ZM109.489 7.444C110.53 7.444 111.428 7.63975 112.197 8.01689L112.637 7.11911C111.71 6.66425 110.657 6.444 109.489 6.444V7.444ZM112.2 8.0185C112.984 8.39601 113.582 8.92596 114.009 9.609L114.857 9.079C114.324 8.22603 113.578 7.57199 112.634 7.1175L112.2 8.0185ZM114.012 9.61302C114.434 10.2746 114.653 11.0586 114.653 11.984H115.653C115.653 10.8934 115.392 9.91744 114.855 9.07498L114.012 9.61302ZM114.653 11.984C114.653 12.9235 114.427 13.7328 113.987 14.4287L114.832 14.9633C115.384 14.0912 115.653 13.0925 115.653 11.984H114.653ZM113.987 14.4287C113.543 15.1302 112.927 15.6774 112.125 16.0712L112.566 16.9688C113.524 16.4986 114.284 15.8298 114.832 14.9633L113.987 14.4287ZM112.128 16.0695C111.341 16.4488 110.44 16.644 109.417 16.644V17.644C110.57 17.644 111.622 17.4232 112.562 16.9705L112.128 16.0695ZM109.417 16.644C107.313 16.644 105.764 15.9617 104.693 14.6445L103.917 15.2755C105.214 16.8703 107.074 17.644 109.417 17.644V16.644ZM104.695 14.6466C103.607 13.2938 103.029 11.3483 103.029 8.744H102.029C102.029 11.4837 102.636 13.6822 103.916 15.2734L104.695 14.6466ZM103.029 8.744C103.029 6.92692 103.34 5.42331 103.938 4.21339L103.041 3.77061C102.358 5.15269 102.029 6.81708 102.029 8.744H103.029ZM103.938 4.21339C104.538 2.99843 105.367 2.10063 106.425 1.49849L105.93 0.629507C104.683 1.33936 103.721 2.39357 103.041 3.77061L103.938 4.21339ZM106.429 1.49589C107.494 0.874893 108.748 0.555999 110.209 0.555999V-0.444001C108.598 -0.444001 107.165 -0.0908943 105.925 0.63211L106.429 1.49589ZM110.209 0.555999C111.819 0.555999 113.045 0.850946 113.932 1.3943L114.455 0.541698C113.357 -0.130948 111.928 -0.444001 110.209 -0.444001V0.555999ZM113.746 0.744392L113.05 2.13639L113.944 2.58361L114.64 1.19161L113.746 0.744392ZM113.773 1.94269C112.863 1.34203 111.667 1.068 110.233 1.068V2.068C111.552 2.068 112.532 2.32197 113.222 2.7773L113.773 1.94269ZM110.233 1.068C108.261 1.068 106.659 1.70246 105.492 3.01119L106.238 3.67681C107.183 2.61754 108.493 2.068 110.233 2.068V1.068ZM105.494 3.00868C104.326 4.30101 103.781 6.14413 103.781 8.456H104.781C104.781 6.28787 105.293 4.72299 106.236 3.67932L105.494 3.00868ZM103.781 8.456C103.781 8.87524 103.806 9.34728 103.855 9.87067L104.851 9.77733C104.804 9.27672 104.781 8.83676 104.781 8.456H103.781ZM104.808 10.0315C105.177 9.22183 105.764 8.59744 106.584 8.15124L106.106 7.27276C105.103 7.81856 104.361 8.60217 103.898 9.6165L104.808 10.0315ZM106.59 8.14799C107.418 7.68325 108.379 7.444 109.489 7.444V6.444C108.231 6.444 107.097 6.71675 106.1 7.27601L106.59 8.14799ZM109.345 16.18C110.655 16.18 111.764 15.8246 112.626 15.0728L111.969 14.3192C111.326 14.8794 110.468 15.18 109.345 15.18V16.18ZM112.627 15.0723C113.513 14.2969 113.949 13.2669 113.949 12.032H112.949C112.949 13.0051 112.618 13.7511 111.968 14.3197L112.627 15.0723ZM113.949 12.032C113.949 10.7971 113.512 9.77236 112.622 9.01181L111.973 9.77219C112.618 10.3236 112.949 11.0589 112.949 12.032H113.949ZM112.626 9.01522C111.758 8.25848 110.605 7.908 109.225 7.908V8.908C110.437 8.908 111.332 9.21352 111.969 9.76878L112.626 9.01522ZM109.225 7.908C108.314 7.908 107.485 8.08032 106.75 8.43861L107.188 9.33738C107.766 9.05568 108.441 8.908 109.225 8.908V7.908ZM106.746 8.44079C106.032 8.79743 105.459 9.29475 105.039 9.93341L105.875 10.4826C106.191 10.0013 106.626 9.61857 107.193 9.33521L106.746 8.44079ZM105.039 9.93341C104.616 10.5772 104.405 11.2972 104.405 12.08H105.405C105.405 11.4868 105.562 10.9588 105.875 10.4826L105.039 9.93341ZM104.405 12.08C104.405 12.8127 104.599 13.4957 104.984 14.1187L105.835 13.5933C105.547 13.1283 105.405 12.6273 105.405 12.08H104.405ZM104.989 14.1276C105.397 14.7579 105.983 15.2537 106.722 15.6232L107.169 14.7288C106.564 14.4263 106.125 14.0421 105.829 13.5844L104.989 14.1276ZM106.722 15.6232C107.477 16.0011 108.358 16.18 109.345 16.18V15.18C108.477 15.18 107.757 15.0229 107.169 14.7288L106.722 15.6232ZM126.874 8.408L126.563 8.79904L126.569 8.80389L126.874 8.408ZM127.858 14.672L127.43 14.4134L127.426 14.4201L127.858 14.672ZM125.818 16.496L126.032 16.9479L126.039 16.9448L125.818 16.496ZM119.026 16.568L118.851 17.0365L118.86 17.0395L119.026 16.568ZM116.434 14.984L116.008 14.7224L115.802 15.0586L116.081 15.3376L116.434 14.984ZM117.274 13.616L117.633 13.2675L117.185 12.8065L116.848 13.3544L117.274 13.616ZM119.482 15.032L119.295 15.4957L119.302 15.4985L119.482 15.032ZM125.65 14.624L125.335 14.2359L125.331 14.2392L125.65 14.624ZM125.506 9.512L125.22 9.92199L125.224 9.92447L125.506 9.512ZM117.61 8.624L117.113 8.57299L117.056 9.124H117.61V8.624ZM118.474 0.199999V-0.300001H118.023L117.977 0.148984L118.474 0.199999ZM127.666 0.199999H128.166V-0.300001H127.666V0.199999ZM127.666 1.736V2.236H128.166V1.736H127.666ZM119.986 1.736V1.236H119.537L119.489 1.6825L119.986 1.736ZM119.41 7.088L118.913 7.0345L118.854 7.588H119.41V7.088ZM121.57 7.588C123.963 7.588 125.591 8.02487 126.563 8.79899L127.186 8.01701C125.949 7.03113 124.042 6.588 121.57 6.588V7.588ZM126.569 8.80389C127.552 9.56204 128.054 10.6237 128.054 12.056H129.054C129.054 10.3523 128.437 8.98196 127.18 8.01211L126.569 8.80389ZM128.054 12.056C128.054 12.9491 127.843 13.7302 127.43 14.4134L128.286 14.9306C128.801 14.0778 129.054 13.1149 129.054 12.056H128.054ZM127.426 14.4201C127.035 15.0914 126.434 15.6362 125.598 16.0472L126.039 16.9448C127.026 16.4598 127.786 15.7886 128.29 14.9239L127.426 14.4201ZM125.604 16.0441C124.777 16.4361 123.735 16.644 122.458 16.644V17.644C123.838 17.644 125.036 17.4199 126.032 16.9479L125.604 16.0441ZM122.458 16.644C121.313 16.644 120.225 16.4609 119.193 16.0965L118.86 17.0395C120.003 17.4431 121.204 17.644 122.458 17.644V16.644ZM119.201 16.0995C118.181 15.7189 117.383 15.2254 116.788 14.6304L116.081 15.3376C116.798 16.0546 117.728 16.6171 118.851 17.0365L119.201 16.0995ZM116.86 15.2456L117.7 13.8776L116.848 13.3544L116.008 14.7224L116.86 15.2456ZM116.916 13.9645C117.534 14.6003 118.333 15.1073 119.295 15.4957L119.669 14.5683C118.808 14.2207 118.135 13.7837 117.633 13.2675L116.916 13.9645ZM119.302 15.4985C120.276 15.8744 121.322 16.06 122.434 16.06V15.06C121.435 15.06 120.512 14.8936 119.662 14.5655L119.302 15.4985ZM122.434 16.06C123.894 16.06 125.096 15.7333 125.97 15.0088L125.331 14.2392C124.7 14.7627 123.758 15.06 122.434 15.06V16.06ZM125.966 15.0121C126.857 14.2877 127.302 13.3097 127.302 12.128H126.302C126.302 13.0263 125.979 13.7123 125.335 14.2359L125.966 15.0121ZM127.302 12.128C127.302 10.8304 126.804 9.79518 125.789 9.09953L125.224 9.92447C125.936 10.4128 126.302 11.1216 126.302 12.128H127.302ZM125.792 9.10202C124.812 8.4173 123.238 8.124 121.186 8.124V9.124C123.199 9.124 124.505 9.4227 125.22 9.92198L125.792 9.10202ZM121.186 8.124H117.61V9.124H121.186V8.124ZM118.108 8.67501L118.972 0.251013L117.977 0.148984L117.113 8.57299L118.108 8.67501ZM118.474 0.699999H127.666V-0.300001H118.474V0.699999ZM127.166 0.199999V1.736H128.166V0.199999H127.166ZM127.666 1.236H119.986V2.236H127.666V1.236ZM119.489 1.6825L118.913 7.0345L119.907 7.1415L120.483 1.7895L119.489 1.6825ZM119.41 7.588H121.57V6.588H119.41V7.588ZM130.94 9.752V9.252H130.44V9.752H130.94ZM137.228 9.752H137.728V9.252H137.228V9.752ZM137.228 11.24V11.74H137.728V11.24H137.228ZM130.94 11.24H130.44V11.74H130.94V11.24ZM130.94 10.252H137.228V9.252H130.94V10.252ZM136.728 9.752V11.24H137.728V9.752H136.728ZM137.228 10.74H130.94V11.74H137.228V10.74ZM131.44 11.24V9.752H130.44V11.24H131.44ZM154.38 12.584V13.084H154.88V12.584H154.38ZM151.02 12.584V12.084H150.52V12.584H151.02ZM151.02 17V17.5H151.52V17H151.02ZM149.292 17H148.792V17.5H149.292V17ZM149.292 12.584H149.792V12.084H149.292V12.584ZM139.812 12.584H139.312V13.084H139.812V12.584ZM139.812 11.336L139.421 11.0238L139.312 11.1607V11.336H139.812ZM148.716 0.199999V-0.300001H148.475L148.325 -0.112246L148.716 0.199999ZM150.636 0.199999L151.028 0.510439L151.669 -0.300001H150.636V0.199999ZM142.044 11.048L141.652 10.7376L141.01 11.548H142.044V11.048ZM149.34 11.048V11.548H149.84V11.048H149.34ZM149.34 7.16V6.66H148.84V7.16H149.34ZM151.02 7.16H151.52V6.66H151.02V7.16ZM151.02 11.048H150.52V11.548H151.02V11.048ZM154.38 11.048H154.88V10.548H154.38V11.048ZM154.38 12.084H151.02V13.084H154.38V12.084ZM150.52 12.584V17H151.52V12.584H150.52ZM151.02 16.5H149.292V17.5H151.02V16.5ZM149.792 17V12.584H148.792V17H149.792ZM149.292 12.084H139.812V13.084H149.292V12.084ZM140.312 12.584V11.336H139.312V12.584H140.312ZM140.202 11.6482L149.106 0.512244L148.325 -0.112246L139.421 11.0238L140.202 11.6482ZM148.716 0.699999H150.636V-0.300001H148.716V0.699999ZM150.244 -0.110441L141.652 10.7376L142.436 11.3584L151.028 0.510439L150.244 -0.110441ZM142.044 11.548H149.34V10.548H142.044V11.548ZM149.84 11.048V7.16H148.84V11.048H149.84ZM149.34 7.66H151.02V6.66H149.34V7.66ZM150.52 7.16V11.048H151.52V7.16H150.52ZM151.02 11.548H154.38V10.548H151.02V11.548ZM153.88 11.048V12.584H154.88V11.048H153.88ZM165.593 8.408L165.281 8.79904L165.288 8.80389L165.593 8.408ZM166.577 14.672L166.149 14.4134L166.145 14.4201L166.577 14.672ZM164.537 16.496L164.751 16.9479L164.757 16.9448L164.537 16.496ZM157.745 16.568L157.57 17.0365L157.579 17.0395L157.745 16.568ZM155.153 14.984L154.727 14.7224L154.52 15.0586L154.799 15.3376L155.153 14.984ZM155.993 13.616L156.351 13.2675L155.903 12.8065L155.567 13.3544L155.993 13.616ZM158.201 15.032L158.014 15.4957L158.021 15.4985L158.201 15.032ZM164.369 14.624L164.054 14.2359L164.05 14.2392L164.369 14.624ZM164.225 9.512L163.939 9.92199L163.942 9.92447L164.225 9.512ZM156.329 8.624L155.832 8.57299L155.775 9.124H156.329V8.624ZM157.193 0.199999V-0.300001H156.742L156.696 0.148984L157.193 0.199999ZM166.385 0.199999H166.885V-0.300001H166.385V0.199999ZM166.385 1.736V2.236H166.885V1.736H166.385ZM158.705 1.736V1.236H158.256L158.208 1.6825L158.705 1.736ZM158.129 7.088L157.632 7.0345L157.572 7.588H158.129V7.088ZM160.289 7.588C162.682 7.588 164.31 8.02487 165.281 8.79899L165.905 8.01701C164.668 7.03113 162.76 6.588 160.289 6.588V7.588ZM165.288 8.80389C166.27 9.56204 166.773 10.6237 166.773 12.056H167.773C167.773 10.3523 167.156 8.98196 165.898 8.01211L165.288 8.80389ZM166.773 12.056C166.773 12.9491 166.562 13.7302 166.149 14.4134L167.005 14.9306C167.52 14.0778 167.773 13.1149 167.773 12.056H166.773ZM166.145 14.4201C165.754 15.0914 165.153 15.6362 164.317 16.0472L164.757 16.9448C165.745 16.4598 166.504 15.7886 167.009 14.9239L166.145 14.4201ZM164.323 16.0441C163.496 16.4361 162.453 16.644 161.177 16.644V17.644C162.557 17.644 163.754 17.4199 164.751 16.9479L164.323 16.0441ZM161.177 16.644C160.031 16.644 158.944 16.4609 157.911 16.0965L157.579 17.0395C158.722 17.4431 159.923 17.644 161.177 17.644V16.644ZM157.92 16.0995C156.9 15.7189 156.102 15.2254 155.507 14.6304L154.799 15.3376C155.516 16.0546 156.446 16.6171 157.57 17.0365L157.92 16.0995ZM155.579 15.2456L156.419 13.8776L155.567 13.3544L154.727 14.7224L155.579 15.2456ZM155.635 13.9645C156.253 14.6003 157.051 15.1073 158.014 15.4957L158.388 14.5683C157.527 14.2207 156.853 13.7837 156.351 13.2675L155.635 13.9645ZM158.021 15.4985C158.995 15.8744 160.04 16.06 161.153 16.06V15.06C160.154 15.06 159.231 14.8936 158.381 14.5655L158.021 15.4985ZM161.153 16.06C162.613 16.06 163.815 15.7333 164.688 15.0088L164.05 14.2392C163.419 14.7627 162.477 15.06 161.153 15.06V16.06ZM164.684 15.0121C165.576 14.2877 166.021 13.3097 166.021 12.128H165.021C165.021 13.0263 164.698 13.7123 164.054 14.2359L164.684 15.0121ZM166.021 12.128C166.021 10.8304 165.523 9.79518 164.508 9.09953L163.942 9.92447C164.655 10.4128 165.021 11.1216 165.021 12.128H166.021ZM164.511 9.10202C163.53 8.4173 161.957 8.124 159.905 8.124V9.124C161.917 9.124 163.224 9.4227 163.939 9.92198L164.511 9.10202ZM159.905 8.124H156.329V9.124H159.905V8.124ZM156.826 8.67501L157.69 0.251013L156.696 0.148984L155.832 8.57299L156.826 8.67501ZM157.193 0.699999H166.385V-0.300001H157.193V0.699999ZM165.885 0.199999V1.736H166.885V0.199999H165.885ZM166.385 1.236H158.705V2.236H166.385V1.236ZM158.208 1.6825L157.632 7.0345L158.626 7.1415L159.202 1.7895L158.208 1.6825ZM158.129 7.588H160.289V6.588H158.129V7.588Z" fill="#8A573C" mask="url(#path-1-outside-1_377_2)"/>
</svg>
