<svg width="96" height="216" viewBox="0 0 96 216" fill="none" xmlns="http://www.w3.org/2000/svg">
<path d="M173.667 203.727C173.579 203.852 173.49 203.971 173.402 204.088C173.049 203.875 172.696 203.655 172.343 203.442C172.372 203.369 172.411 203.302 172.439 203.229C172.852 203.398 173.257 203.567 173.667 203.73V203.727ZM103.527 147.319C103.674 147.215 103.82 147.114 103.968 147.002C104.313 147.511 104.666 148.017 105.013 148.533C104.881 148.622 104.749 148.71 104.609 148.806C104.248 148.305 103.887 147.812 103.527 147.319ZM56.174 89.4548C56.0053 89.5872 55.8289 89.7195 55.6524 89.8519C55.2762 89.2992 54.9025 88.7413 54.5262 88.1886C54.6664 88.0848 54.8065 87.9836 54.9466 87.872C55.3592 88.4014 55.7692 88.9229 56.174 89.4522V89.4548ZM178.509 207.311C178.553 207.098 178.597 206.885 178.641 206.67C179.508 207.127 180.369 207.583 181.231 208.037C181.163 208.097 181.09 208.149 181.018 208.206C180.187 207.905 179.349 207.604 178.509 207.308V207.311ZM19.486 77.5395C19.582 77.3034 19.678 77.062 19.774 76.8259C20.7601 76.8856 21.7824 76.8623 22.592 78.6501C21.1882 78.1415 20.3423 77.8405 19.4886 77.5395H19.486ZM106.42 102.577C103.301 109.946 100.249 117.162 97.011 124.804C96.2533 115.463 99.6006 108.371 106.42 102.577ZM78.6969 63.5431C78.9693 52.1805 80.3368 40.823 78.8967 29.4448C82.8252 40.8386 80.9699 52.196 78.6969 63.5431ZM95.3425 115.634C95.9445 119.988 95.0052 128.784 93.7831 131.234C93.3938 130.998 92.9216 130.845 92.6362 130.528C91.4893 129.241 90.3424 127.931 89.2759 126.555C87.5633 124.355 87.7605 122.759 90.3268 121.56C91.8421 120.855 92.6361 119.78 93.4457 118.53C93.9309 117.772 94.4395 117.014 95.3425 115.631V115.634ZM94.0191 52.0611C95.2854 58.5196 88.6791 88.7205 85.42 93.9724C88.3262 79.8048 91.1727 65.9329 94.0191 52.0611ZM37.0139 112.367C27.4443 110.675 7.47466 93.6636 5.56229 85.983C10.4976 90.786 15.1034 95.8173 20.28 100.156C25.5604 104.583 31.4091 108.327 37.0139 112.367ZM99.9327 106.902C99.9172 103.093 121.153 65.3958 124.661 62.1964C123.719 64.8379 123.182 67.3964 121.955 69.5734C118.475 75.7439 114.682 81.7405 111.07 87.8434C108.768 91.7201 106.142 95.3892 104.302 99.5668C103.168 102.149 101.412 104.466 99.9327 106.9V106.902ZM48.3273 114.051C38.9782 113.662 14.7271 96.6035 11.7639 88.557C14.875 89.6676 16.5227 92.1768 18.7595 93.8608C21.1648 95.6772 23.3185 97.8179 25.711 99.6654C27.9996 101.438 30.4335 103.033 32.8311 104.673C35.3169 106.373 37.782 108.122 40.356 109.689C42.7329 111.137 45.2472 112.375 48.3299 114.051H48.3273ZM107.995 97.1121C107.834 96.972 107.67 96.8319 107.51 96.6918C108.062 95.6979 108.568 94.6678 109.186 93.7129C111.9 89.5275 114.931 85.5055 117.328 81.1437C120.507 75.3702 123.315 69.3762 126.052 63.3745C126.906 61.4984 127.015 59.2772 127.5 57.0405C128.935 59.7184 129.384 62.0641 127.993 65.4996C126.052 70.3259 123.911 75.1419 121.218 79.5764C118.166 84.6233 114.451 89.2706 110.943 94.0373C110.112 95.1712 108.986 96.0975 107.992 97.1121H107.995ZM156.79 101.983C157.166 102.071 157.54 102.151 157.916 102.239C157.652 104.284 157.659 106.409 157.078 108.358C154.893 115.603 152.908 122.923 149.582 129.776C147.353 134.381 145.28 139.057 143.087 143.684C142.859 144.153 142.301 144.47 141.896 144.862C141.784 144.766 141.683 144.677 141.579 144.589C146.647 130.385 151.722 116.184 156.79 101.98V101.983ZM126.994 129.109C133.606 111.332 142.859 94.7223 148.575 76.6132C148.206 84.4547 146.787 92.073 143.271 99.1283C139.696 106.308 135.886 113.376 132.09 120.445C130.51 123.395 128.699 126.226 126.994 129.109ZM154.966 142.467C155.106 142.539 155.246 142.615 155.379 142.687C155.783 142.062 156.292 141.473 156.57 140.798C157.247 139.187 157.828 137.547 158.438 135.915C160.298 130.891 162.115 125.852 164.043 120.86C164.447 119.814 164.587 118.434 166.227 117.909C166.103 121.815 164.808 125.139 163.742 128.582C160.646 138.569 155.716 147.641 150.435 156.554C150.163 157.018 149.613 157.312 148.876 157.973C151.105 151.294 153.209 145.139 155.223 138.953C156.378 135.409 157.216 131.761 158.534 128.273C160.29 123.602 162.338 119.041 164.331 114.461C164.751 113.503 165.457 112.665 166.03 111.775C166.17 111.871 166.31 111.967 166.443 112.069C162.618 122.196 158.801 132.331 154.969 142.469L154.966 142.467ZM81.4188 105.924C81.1542 105.908 80.8973 105.903 80.6326 105.896C80.7883 103.739 80.7883 101.557 81.1256 99.4241C82.8459 88.6349 84.53 77.8353 86.4813 67.0824C87.636 60.6837 89.1877 54.3497 90.6953 48.0184C91.0559 46.5186 91.9667 45.1486 92.631 43.724C93.3368 44.6581 93.6378 45.4807 93.4925 46.202C89.4991 66.1197 85.4538 86.0167 81.4214 105.927L81.4188 105.924ZM73.8342 77.3786C73.5903 76.4886 73.3931 76.0682 73.3697 75.6349C72.5913 61.9032 72.3837 48.1559 72.8767 34.4164C72.9883 31.3779 73.3775 28.2382 75.0979 25.2438C76.5406 26.4711 76.8987 27.7011 76.032 29.053C74.9655 30.724 75.43 32.408 75.6272 34.1362C76.0035 37.4679 76.5899 40.8074 76.5847 44.1392C76.5691 49.6038 76.2474 55.0685 75.8867 60.528C75.5494 65.6242 75.0044 70.7152 74.5192 75.8062C74.4829 76.1954 74.1949 76.5638 73.8342 77.3812V77.3786ZM124.521 56.4956C124.272 57.1936 124.22 57.5543 124.036 57.8346C118.159 66.7633 112.665 75.9359 107.678 85.394C105.237 90.0127 103.06 94.7716 100.683 99.4267C99.1673 102.39 97.3353 105.156 94.9974 107.541C96.6295 103.251 98.5497 99.149 100.41 95.0155C104.227 86.5357 107.831 77.9443 111.884 69.5734C113.737 65.7409 116.327 62.2327 118.82 58.7453C120.035 57.038 121.835 55.8469 124.521 56.4956ZM3.07647 82.96C2.95192 85.4459 4.29863 87.1169 5.54154 88.9255C9.3066 94.4187 13.8449 99.053 18.9281 103.43C28.6586 111.814 39.9564 116.464 52.1442 119.523C54.8428 120.201 57.5933 120.722 60.5747 122.105C59.7133 122.393 59.3967 122.59 59.0879 122.583C52.9901 122.518 47.0169 121.524 41.2668 119.612C32.7481 116.789 24.7613 112.94 17.5451 107.351C11.411 102.608 6.93234 96.6502 2.79881 90.3163C1.26269 87.9628 1.4677 85.3966 3.07907 82.96H3.07647ZM68.0971 141.582C69.1921 141.045 69.4801 140.772 69.7811 140.764C76.8493 140.456 83.9046 139.963 90.9781 140.809C92.4493 140.985 93.207 141.559 94.0088 142.685C97.4132 147.516 100.929 152.27 104.38 157.073C104.653 157.449 104.705 157.991 105.034 159.029C93.0513 152.182 81.2112 146.437 68.0945 141.582H68.0971ZM133.546 164.346C133.302 164.281 133.061 164.214 132.817 164.141C133.354 161.214 133.727 158.243 134.449 155.358C136.429 147.464 138.523 139.594 140.627 131.724C142.965 122.956 145.085 114.093 149.122 105.893C150.55 102.995 152.234 100.192 154.029 97.4935C154.675 96.5075 155.596 95.1323 157.177 95.7135C149.263 118.698 141.408 141.522 133.543 164.346H133.546ZM58.9115 12.672C61.95 19.7117 62.8919 27.1769 63.538 34.6422C64.1789 42.0478 64.5604 49.5078 64.4644 56.9367C64.3087 68.808 62.9724 77.0101 61.1768 79.2832C61.0652 77.6433 60.9562 76.4134 60.9199 75.186C60.8835 73.6706 61.0314 72.1553 60.8991 70.6477C60.1855 62.417 59.4356 54.1785 58.6494 45.9555C57.9436 38.6304 56.8694 31.3779 54.1838 24.4705C53.3898 22.418 53.2781 20.3811 53.8153 18.3079C54.4406 15.8584 55.1464 13.4322 56.052 10.1498C57.9877 19.1097 58.0967 27.5298 59.4642 35.7761C59.4927 28.0747 58.5015 20.4097 58.9115 12.672ZM8.13634 76.1046C8.61379 79.0315 10.5417 78.8914 12.4385 78.5826C15.6535 78.074 18.6764 78.715 21.676 79.7658C23.9776 80.5754 26.3752 81.1411 28.6353 82.0467C31.2249 83.0846 33.7315 84.3197 36.2043 85.5912C36.8894 85.9441 37.3305 86.7381 37.8806 87.3271C37.7405 87.5191 37.6003 87.7085 37.455 87.9006C36.0071 87.4958 34.5566 87.091 33.1087 86.6862C39.7281 89.6131 46.2307 92.688 52.6892 95.8666C53.7193 96.3752 54.5055 97.3742 55.4111 98.1474C55.2788 98.4121 55.1386 98.6612 55.0063 98.9259C53.9321 98.6975 52.8371 98.5289 51.7784 98.2356C48.1898 97.2574 44.6297 96.1832 41.0333 95.2412C34.061 93.4249 27.0732 91.6656 20.0854 89.8933C15.3784 88.6945 11.6782 85.9882 8.67086 82.2802C7.2515 80.5287 6.25771 78.5956 8.14154 76.102L8.13634 76.1046ZM130.884 116.433C130.634 116.301 130.375 116.168 130.126 116.036C132.78 109.593 135.43 103.142 138.1 96.7073C140.918 89.9245 143.235 82.9756 144.919 75.8243C144.963 75.6401 144.587 75.3598 144.117 74.7423C143.564 76.6391 143.087 78.17 142.674 79.7139C142.049 82.0674 141.732 84.5403 140.842 86.7822C135.466 100.309 130.058 113.82 124.461 127.251C122.136 132.835 119.43 138.261 116.687 143.66C115.408 146.182 113.62 148.448 112.061 150.832L111.443 150.479C112.009 148.884 112.642 147.301 113.143 145.676C114.806 140.344 116.202 134.908 118.094 129.656C122.832 116.506 127.848 103.449 132.619 90.3189C134.989 83.8008 138.468 77.8872 142.072 72.0411C143.071 70.4297 144.221 68.7249 146.987 68.289C146.995 70.3571 147.319 72.2253 146.935 73.9379C145.876 78.7046 144.95 83.5594 143.206 88.09C139.911 96.6658 136.086 105.044 132.453 113.488C132.012 114.51 131.408 115.452 130.886 116.43L130.884 116.433ZM77.2931 118.838C77.101 119.082 76.9038 119.324 76.704 119.573C64.2438 118.639 52.4323 115.315 41.3992 109.297C31.5285 103.913 19.4497 94.1307 18.2898 90.6303C19.5405 90.9469 20.6277 91.2193 21.7175 91.4918C26.793 92.771 31.8762 94.0373 36.9516 95.3165C40.2107 96.139 43.5061 96.8604 46.7185 97.8464C54.8688 100.356 62.8478 103.283 69.7032 108.547C71.2342 109.718 72.6665 111.129 73.7849 112.689C75.1523 114.601 76.1461 116.778 77.2931 118.838ZM38.2957 140.853C35.156 140.772 32.0007 140.861 28.8818 140.565C25.1894 140.204 21.4814 139.727 17.8772 138.896C15.6561 138.382 13.7593 136.961 12.9575 134.21C13.9643 134.078 14.7453 133.873 15.5108 133.893C21.2193 134.078 26.9201 134.298 32.6261 134.527C35.1846 134.63 37.7457 134.82 40.3042 134.903C41.2305 134.931 42.2243 134.859 42.1879 133.063C37.8339 132.731 33.4642 132.453 29.1101 132.064C24.6445 131.667 20.1451 132.983 15.4511 131.999C15.804 131.478 15.9208 131.081 16.1724 130.954C20.1892 128.997 24.4109 127.622 28.8818 127.438C34.6916 127.209 40.5325 126.937 46.197 128.813C46.8508 129.026 47.5878 128.974 48.2702 129.106C56.545 130.71 65.017 131.519 72.83 135.079C73.3152 135.3 73.9769 135.116 74.5374 135.227C78.222 135.917 82.0545 136.117 85.3266 138.494C83.4946 138.847 81.7068 138.774 79.9216 138.839C66.9995 139.296 54.067 139.766 41.1449 140.274C40.1511 140.318 39.165 140.679 38.1583 140.899C40.1822 141.084 42.1958 141.268 44.4481 141.465C40.5636 143.437 30.7682 143.671 28.0463 141.906C31.5337 141.546 34.9173 141.2 38.3009 140.855L38.2957 140.853ZM78.3025 164.595C85.7314 163.993 92.9112 165.096 99.912 167.597C99.022 168.106 98.1553 168.347 97.2653 168.407C85.1942 169.245 73.118 170.039 61.0392 170.872C54.2512 171.349 47.5411 170.711 40.9451 169.224C38.0103 168.57 35.156 167.437 32.3822 166.261C30.7708 165.576 29.1231 164.548 29.2866 162.224C34.567 162.877 39.5854 163.503 44.6089 164.12C42.4241 163.158 40.1147 162.973 37.8936 162.449C35.7088 161.936 33.062 162.685 31.0822 160.192C32.2888 159.823 33.1347 159.463 34.0091 159.317C39.5413 158.375 45.0422 158.183 50.647 158.98C58.5845 160.106 66.5791 160.828 74.5452 161.767C76.3174 161.972 78.0611 162.377 78.3336 164.634L78.3051 164.598L78.3025 164.595ZM40.8646 20.6717L40.7686 20.7159C39.9953 16.3773 39.2169 12.0362 38.4436 7.69773C38.7005 7.62507 38.9652 7.54981 39.2221 7.47716C42.5616 14.2211 45.8415 20.9883 47.4814 28.4691C47.7616 28.3653 48.0341 28.2693 48.3117 28.1681C47.0013 23.8582 45.7014 19.556 44.391 15.246C44.6401 15.1734 44.8918 15.0981 45.1409 15.0177C49.9153 21.0636 50.6341 28.6612 52.9901 35.7164C52.741 33.8767 52.4816 32.0396 52.2247 30.1999C52.4971 30.1272 52.7774 30.052 53.0472 29.9871C53.8698 32.2005 55.1282 34.3645 55.437 36.6506C56.7915 46.6821 57.8787 56.7603 59.0257 66.823C59.1372 67.7856 59.0023 68.7717 58.9893 69.7421C55.245 60.1803 52.7592 50.3382 48.8022 40.8645C48.1327 41.6871 47.6993 42.5122 47.7512 43.314C47.8161 44.4531 48.2364 45.5715 48.5011 46.7054C49.2588 49.9204 50.0165 53.1328 50.7664 56.3477C50.538 56.436 50.3097 56.5164 50.0814 56.6046C49.7207 56.096 49.264 55.6342 48.9993 55.0815C47.5436 52.03 46.2047 48.9188 44.6816 45.9088C41.8117 40.2444 39.959 34.2789 38.768 28.0566C38.2542 25.3632 37.3253 22.7398 36.5754 20.0827C36.5391 21.3101 36.5027 22.54 36.4638 23.7673C34.3672 19.6702 33.7652 15.5522 34.5073 13.4115C35.2053 15.6612 35.9267 17.942 36.6403 20.2229C36.36 17.5969 36.059 14.971 35.8099 12.3528C35.6932 11.0502 35.2079 9.6594 36.6195 8.35162C38.4878 10.9101 38.4722 13.8967 39.3129 16.5823C39.7463 17.9732 40.3353 19.3173 40.8568 20.6717H40.8646ZM49.4846 84.0006L49.5883 83.9487C49.552 85.8455 51.0518 86.7355 52.1546 87.8902C53.6181 89.4211 55.0685 90.9806 56.5242 92.5245C56.3633 92.7087 56.2077 92.8852 56.0468 93.0616C54.8117 92.252 53.5169 91.5022 52.3466 90.5966C43.3504 83.6607 35.5323 75.5467 28.7054 66.47C26.5361 63.595 24.2267 60.8056 22.1431 57.8631C20.7678 55.9222 19.7092 53.7659 19.9946 50.6392C22.5401 52.7436 24.686 54.5313 26.8423 56.3166C26.9461 56.1998 27.0551 56.0727 27.1666 55.9481C24.9221 53.6387 22.6724 51.3294 20.4279 49.02C20.6122 48.815 20.7886 48.5996 20.9728 48.3947C23.1577 49.8659 25.3425 51.3371 28.0333 53.1457C26.5776 51.2852 25.5034 49.91 23.9517 47.9302C28.0696 49.4533 29.0271 49.9904 30.8876 52.0715C34.6085 56.2335 38.2932 60.4345 41.957 64.6563C42.559 65.3491 42.9638 66.2158 43.4802 66.9812C47.8135 73.4683 52.1598 79.9423 56.4775 86.4371C56.7863 86.9016 56.9628 87.4594 57.2716 88.1367C55.6965 87.2311 54.4407 86.4604 53.1381 85.7676C51.9393 85.1345 50.7041 84.5844 49.482 83.9954L49.4846 84.0006ZM65.2843 148.712C69.4619 149.294 83.5258 154.317 85.0775 155.877C84.5248 155.957 84.0707 156.134 83.6503 156.076C72.8222 154.517 61.9656 153.134 51.1997 151.266C45.1461 150.223 39.2169 148.391 33.2514 146.844C32.1045 146.551 31.051 145.926 29.9483 145.453C39.9357 143.372 49.3081 147.085 58.9582 147.233C55.9119 145.918 52.3907 146.315 48.8955 144.363C51.7213 143.092 54.272 142.98 56.6929 142.371C60.938 141.296 64.96 141.774 68.9534 143.505C73.432 145.453 78.0741 147.049 82.4957 149.117C87.8565 151.626 93.0721 154.465 98.324 157.2C99.2814 157.701 100.112 158.435 101.002 159.06C100.877 159.325 100.753 159.59 100.633 159.847C98.2202 159.125 95.698 158.656 93.425 157.633C85.9675 154.278 78.2506 151.712 70.3883 149.535C68.7562 149.086 67.0125 149.006 65.3284 148.762L65.2843 148.71V148.712ZM100.369 147.558C106.944 153.964 113.491 160.407 120.11 166.77C126.317 172.743 132.783 178.413 139.888 183.304C144.19 186.262 148.611 189.041 152.942 191.955C158.723 195.852 164.476 199.796 170.242 203.722C172.551 205.29 174.86 206.857 177.149 208.445C177.606 208.761 177.987 209.195 178.4 209.571C178.26 209.792 178.119 210.012 177.974 210.24C175.384 209.005 172.694 207.947 170.213 206.496C165.999 204.047 161.998 201.2 157.745 198.803C147.462 192.993 138.113 185.917 129.22 178.208C125.712 175.177 122.541 171.609 118.657 169.183C114.972 166.873 112.198 163.843 109.624 160.62C106.3 156.463 103.498 151.896 100.459 147.514C99.681 146.844 98.9 146.182 98.1138 145.513C98.3707 145.308 98.6275 145.1 98.887 144.903C99.38 145.785 99.8731 146.668 100.366 147.558H100.369ZM119.793 90.76C118.057 93.495 116.402 96.2922 114.57 98.9622C109.422 106.472 105.192 114.466 101.516 122.772C100.441 125.198 99.3307 127.611 98.2435 130.04C97.9555 128.857 97.9866 127.702 98.368 126.693C100.693 120.491 103.062 114.305 105.488 108.15C106.755 104.935 109.329 102.289 109.489 98.573C109.518 97.875 110.276 97.1977 110.74 96.5283C114.404 91.292 118.073 86.0608 121.745 80.8245C122.378 79.9267 123.024 79.0445 123.673 78.1545C123.828 78.266 123.974 78.3595 124.129 78.4632C122.65 82.589 121.179 86.7147 119.708 90.8353C121.488 87.5918 123.26 84.3482 125.032 81.097C123.649 86.5097 122.386 92.0341 119.809 96.8526C114.609 106.57 108.703 115.917 103.062 125.398C102.629 126.132 102.016 126.758 101.487 127.435C103.913 120.066 106.695 112.959 110.872 106.487C114.139 101.419 117.793 96.549 119.793 90.7626V90.76ZM168.986 118.82C168.926 120.416 168.926 122.012 168.809 123.595C168.111 133.016 164.359 141.395 159.725 149.405C158.005 152.384 155.82 155.098 153.827 157.924C152.01 160.482 150.186 163.044 148.295 165.553C147.882 166.105 147.169 166.443 145.926 167.369C151.92 156.364 157.488 146.141 163.233 135.593C163.674 138.336 161.482 140.292 161.785 143.043C165.169 135.017 167.595 127.046 169.089 118.771C169.333 116.667 167.346 114.674 168.817 111.887C169.803 114.586 170.441 116.674 168.986 118.823V118.82ZM92.9527 134.54C89.6054 132.126 86.9717 128.883 86.7901 126.522C88.9749 128.992 90.9521 131.618 92.9242 134.252C92.9761 134.311 92.8878 134.472 92.8723 134.584C96.3 136.584 98.2565 139.887 100.33 143.079C97.3353 140.697 94.9092 137.819 92.9527 134.54ZM86.3412 200.819C88.3937 200.51 90.5473 200.502 92.483 199.84C98.0956 197.92 103.589 195.626 109.194 193.683C117.497 190.808 126.096 189.261 134.82 188.403C137.446 188.146 139.623 188.896 141.904 190.543C147.176 194.339 152.825 197.619 158.313 201.12C162.242 203.621 166.074 206.268 170.081 208.629C172.382 209.976 174.899 210.99 177.414 211.909C181.026 213.219 184.702 214.379 188.395 215.433C189.433 215.734 190.704 215.601 191.763 215.308C194.064 214.654 194.493 212.91 192.858 211.138C192.321 210.549 191.631 210.043 190.922 209.659C182.764 205.194 174.469 200.98 166.458 196.273C158.324 191.498 150.417 186.329 142.516 181.166C139.169 178.981 139.14 176.591 142.48 174.354C147.431 171.038 151.063 166.521 154.226 161.681C158.56 155.054 162.766 148.315 166.495 141.343C170.864 133.193 172.657 124.293 172.52 115.027C172.52 114.682 172.499 114.329 172.483 113.984C172.432 111.858 171.754 109.91 169.673 109.165C167.437 108.363 165.76 109.951 164.73 111.607C162.839 114.666 160.898 117.8 159.707 121.161C156.206 131.047 153.116 141.071 149.756 151.017C146.725 159.982 142.68 168.464 136.833 176.511C135.863 175.914 134.877 175.4 134.003 174.738C133.053 174.025 132.936 173.046 133.341 171.92C134.195 169.53 134.833 167.05 135.819 164.712C139.254 156.549 142.739 148.406 146.33 140.308C151.053 129.664 156.642 119.388 159.055 107.826C159.857 103.994 160.283 100.249 159.533 96.3959C158.952 93.4456 157.561 92.7684 155.244 94.6885C153.567 96.0794 151.948 97.7556 150.91 99.6395C147.329 106.186 144.364 112.997 142.459 120.286C139.532 131.444 136.265 142.513 133.19 153.635C131.792 158.695 130.712 163.822 130.925 169.133C130.948 169.686 130.741 170.236 130.608 171.002C129.83 170.714 129.065 170.67 128.644 170.267C124.254 165.934 119.773 161.668 115.603 157.122C112.564 153.811 112.72 153.474 115.265 149.569C119.656 142.83 124.275 136.226 128.447 129.355C133.772 120.603 139.01 111.775 143.798 102.722C148.269 94.2708 150.22 85.0021 150.565 75.4558C150.646 73.271 150.285 71.0343 149.867 68.8728C149.39 66.4519 147.918 65.6812 145.793 66.976C144.057 68.0347 142.35 69.4982 141.263 71.19C137.908 76.3692 134.708 81.6574 132.539 87.5035C126.911 102.699 121.169 117.852 115.569 133.063C113.958 137.441 112.743 141.948 111.251 146.369C110.87 147.508 110.125 148.526 109.419 149.841C108.545 149.107 107.964 148.731 107.543 148.23C105.161 145.355 102.777 142.477 100.467 139.542C98.5315 137.093 98.5835 136.916 100.099 134.298C106.578 123.089 113.273 112.011 119.407 100.618C122.541 94.8079 124.791 88.4973 127.152 82.3035C128.182 79.5894 128.33 76.5898 127.3 73.7277C126.55 71.6233 127.44 69.807 128.25 68.0269C129.633 64.9754 130.266 61.8331 129.861 58.5014C129.516 55.6627 128.691 54.8739 125.876 54.6481C122.905 54.4042 120.279 55.2371 118.351 57.5543C116.719 59.5263 115.027 61.5192 113.812 63.7481C110.93 69.0648 108.104 74.4439 105.618 79.9605C99.8809 92.7061 94.5563 105.646 87.8462 117.935C87.309 118.929 86.6032 119.827 85.9856 120.746C82.493 118.789 81.8081 117.214 82.7188 113.913C87.1015 97.945 91.5074 81.9922 95.8252 66.0082C96.7879 62.4118 97.8413 58.7557 98.0749 55.0711C98.3473 50.922 97.8258 46.7158 97.4858 42.5511C97.3613 40.9476 96.2793 39.8525 94.6393 39.2557C91.8889 41.0435 90.3735 43.6773 89.608 46.6172C87.8565 53.3767 86.1154 60.1647 84.8128 67.0201C83.2326 75.3676 82.0701 83.7904 80.8116 92.1897C80.1214 96.8007 79.6492 101.443 79.0238 106.054C78.8474 107.401 78.4867 108.708 78.1857 110.151C74.7865 108.122 73.4346 104.767 74.1248 101.611C75.6921 94.4472 77.332 87.2752 78.523 80.0383C79.8982 71.6389 80.861 63.1798 81.943 54.7441C83.0613 45.9841 82.8096 37.2837 80.4068 28.7442C79.8489 26.7514 78.9071 24.8312 77.9288 22.9837C77.1945 21.5799 75.8841 21.432 74.8021 22.6308C74.0522 23.4612 73.3386 24.5666 73.1466 25.6304C72.4693 29.5226 71.6831 33.4408 71.5586 37.3693C71.3302 44.9228 71.5144 52.4918 71.543 60.0531C71.5793 70.7541 71.6545 81.4577 71.6597 92.1508C71.6597 93.8349 71.7843 95.6227 70.1003 97.3871C67.2019 93.1291 63.525 89.6261 64.6642 83.9279C65.3933 80.2718 65.9305 76.5716 66.4442 72.8792C68.1283 60.803 68.0244 48.7086 66.5999 36.6246C65.9097 30.7318 64.9963 24.8624 64.1789 18.9877C63.7092 15.6197 62.936 12.3684 61.0755 9.42586C60.2011 8.04283 59.1788 7.0127 57.4947 7.03605C55.7069 7.0646 54.8843 8.32307 54.3472 9.85401C53.5091 12.2594 52.6476 14.6414 51.6409 17.4516C51.0518 16.5019 50.5017 15.5755 49.9205 14.6777C47.7279 11.2422 45.6754 7.70551 43.2648 4.43865C42.1309 2.90772 40.3898 1.73227 38.7265 0.70992C36.7337 -0.525208 35.086 -0.164539 34.0195 1.91649C33.0932 3.71729 32.4393 5.82168 32.2992 7.83784C31.8425 14.7011 33.4461 21.2608 35.6542 27.7114C39.2143 38.0958 43.9291 47.9613 48.8877 57.7437C51.0881 62.09 52.7411 66.7244 54.5652 71.2627C55.7874 74.2856 56.8901 77.3605 57.9929 80.4353C58.4418 81.7016 58.7351 83.0171 59.1035 84.3119C58.8596 84.4676 58.6183 84.6285 58.3744 84.7894C57.7853 84.2445 57.0795 83.7904 56.6229 83.1495C52.4608 77.2437 48.5764 71.1174 44.1263 65.4296C39.7644 59.8533 35.1093 54.425 30.0417 49.4897C27.5558 47.0765 23.9153 45.7765 20.6485 44.2974C18.6557 43.3919 17.0806 44.3052 16.7719 46.4537C16.5228 48.226 16.515 50.2863 17.2052 51.8665C18.5078 54.8298 20.28 57.6036 22.0523 60.3334C26.4427 67.0928 31.7387 73.1465 37.0269 79.2002C37.2475 79.4493 37.359 79.7892 37.7249 80.4664C35.7892 80.386 34.4892 79.509 33.1139 78.7824C26.9798 75.5545 20.6537 72.8766 13.5569 72.9285C11.9611 72.9363 10.3056 73.201 8.78245 73.694C5.55451 74.7397 5.06151 75.7231 5.54673 79.195C5.61939 79.7477 5.71538 80.29 5.79063 80.7389C5.48963 80.9309 5.39362 81.0269 5.29761 81.0321C4.1066 81.1411 2.81959 79.4129 1.81021 80.8764C1.00063 82.0544 0.250731 83.6191 0.318196 84.9736C0.406419 86.8704 0.907212 88.9463 1.86988 90.5862C8.32057 101.523 17.4932 109.557 28.804 115.234C35.195 118.449 41.7572 121.156 48.841 122.326C53.2029 123.047 57.6089 123.553 62.0149 124.01C66.068 124.435 70.1418 124.731 74.2105 124.928C75.4248 124.988 76.6807 124.62 77.8743 124.287C79.1691 123.927 80.508 123.602 81.4188 124.801C84.0214 128.221 86.5228 131.722 89.0319 135.225C89.281 135.562 89.2811 136.078 89.525 136.953C88.3625 136.761 87.488 136.732 86.694 136.46C71.4106 131.104 55.4708 128.766 39.5828 126.288C32.6469 125.198 25.5994 125.515 18.6946 126.81C15.996 127.318 13.2663 128.333 10.8764 129.68C6.94012 131.908 6.62615 135.388 10.2303 138.079C12.6072 139.843 15.6068 140.764 18.3132 142.096C19.3433 142.596 20.6225 142.942 21.2842 143.759C22.8437 145.695 24.9169 146.65 27.1329 147.399C35.7684 150.334 44.5882 152.363 53.657 153.541C65.2039 155.041 76.7897 156.512 88.212 158.749C95.1324 160.104 101.791 162.862 108.55 165.016C109.059 165.184 109.484 165.589 109.809 166.502C108.859 166.443 107.888 166.474 106.962 166.303C93.7882 163.853 80.6585 161.11 67.4276 158.985C57.9021 157.454 48.2883 156.006 38.5578 156.824C36.1368 157.029 33.6822 157.426 31.3572 158.134C29.4968 158.687 27.408 159.694 27.2004 161.915C26.9954 164.164 28.8844 165.475 30.6878 166.292C37.7483 169.476 45.076 171.604 52.9149 171.881C65.4192 172.338 77.8042 170.587 90.2567 170.109C97.9295 169.821 105.592 168.799 113.293 169.829C115.919 170.182 118.096 170.976 120.053 172.984C122.142 175.14 124.744 176.801 127.173 178.618C128.556 179.663 129.807 180.774 130.608 182.907C126.218 182.554 122.194 182.214 118.164 181.905C108.125 181.14 98.1138 181.303 88.2354 183.449C82.1376 184.772 76.5172 187.341 71.3614 190.855C70.4039 191.501 69.5009 192.29 68.7354 193.156C66.2651 195.943 66.8386 199.334 70.1781 201.005C72.3915 202.108 74.8047 202.573 77.2697 201.659C75.2458 201.174 73.1959 200.785 71.216 200.173C70.2378 199.864 69.2959 199.202 70.0977 197.619C71.4651 197.868 73.1284 199.693 74.3116 197.282C73.8342 197.142 73.4216 197.025 72.459 196.745C80.5781 192.98 87.898 188.426 96.7022 187.476C94.2761 187.448 91.811 187.453 89.6055 188.205C85.5446 189.588 81.6472 191.42 77.6616 193.024C77.1478 193.237 76.5224 193.2 75.2406 193.369C76.1591 192.406 76.4679 191.838 76.9402 191.633C80.4484 190.102 83.9357 188.478 87.5399 187.212C91.0196 185.984 94.2916 183.584 98.3447 184.785C98.5445 184.845 98.8014 184.741 99.0297 184.689C102.582 183.88 106.15 183.88 109.775 184.087C115.805 184.44 121.846 184.448 127.876 184.689C129.744 184.762 131.641 185.021 133.561 186.786C131.966 187.103 130.964 187.315 129.949 187.492C119.946 189.184 110.141 191.573 100.727 195.479C96.0042 197.435 91.1416 199.054 86.3464 200.819H86.3412Z" fill="#88593B" fill-opacity="0.6"/>
<path d="M86.4839 200.889C83.3727 201.161 80.2537 201.441 77.1426 201.719C80.342 202.433 83.4687 202.285 86.4839 200.889Z" fill="#88593B" fill-opacity="0.6"/>
<path d="M79.4368 195.901C78.6635 195.982 77.8851 196.062 77.1118 196.145C77.1715 196.381 77.2286 196.623 77.296 196.851C77.994 196.506 78.6869 196.153 79.3849 195.805C79.3927 195.805 79.4368 195.901 79.4368 195.901Z" fill="#88593B" fill-opacity="0.6"/>
<path d="M69.0887 134.809C63.8602 132.772 58.4085 133.626 52.8115 134.236C53.2968 134.56 53.878 135.243 54.2465 135.141C57.9544 134.104 61.5145 135.863 65.168 135.663C66.4705 135.596 67.7861 135.634 69.0965 135.634C69.0965 135.354 69.0965 135.082 69.0887 134.812V134.809Z" fill="#88593B" fill-opacity="0.6"/>
<path d="M48.434 132.949C47.9851 132.913 47.5362 132.876 47.0795 132.837C47.0717 132.97 47.0639 133.102 47.0562 133.242C47.5051 133.263 47.954 133.294 48.4029 133.315C48.4107 133.198 48.4236 133.071 48.4314 132.946L48.434 132.949Z" fill="#88593B" fill-opacity="0.6"/>
<path d="M67.77 164.369C69.6461 164.149 71.5221 163.928 73.4033 163.716C73.4111 163.723 73.4552 163.796 73.4552 163.796C71.5792 164.017 69.6954 164.229 67.8219 164.437L67.77 164.369Z" fill="#88593B" fill-opacity="0.6"/>
<path d="M78.3261 164.634C76.9146 163.163 75.1553 163.672 73.4635 163.812C73.4557 163.796 73.4116 163.724 73.4038 163.716C75.023 163.996 76.6473 164.282 78.2795 164.582C78.295 164.598 78.3235 164.634 78.3235 164.634H78.3261Z" fill="#88593B" fill-opacity="0.6"/>
<path d="M67.822 164.437C66.5505 163.775 65.2921 163.347 64.1452 164.673L64.1011 164.65C65.3232 164.546 66.535 164.45 67.7649 164.362C67.7727 164.369 67.8246 164.434 67.8246 164.434L67.822 164.437Z" fill="#88593B" fill-opacity="0.6"/>
<path d="M64.1454 164.67C63.2347 164.346 62.3213 164.024 61.4027 163.692C61.3508 163.861 61.299 164.029 61.2471 164.201C62.1968 164.341 63.1387 164.481 64.0936 164.634C64.1013 164.65 64.1454 164.67 64.1454 164.67Z" fill="#88593B" fill-opacity="0.6"/>
<path d="M29.2578 59.1138C34.245 65.4762 39.24 71.8465 44.6294 78.7227C43.9236 75.583 34.8626 63.7118 29.2578 59.1138Z" fill="#88593B" fill-opacity="0.6"/>
<path d="M40.4236 67.3885C38.9004 65.24 37.3721 63.0941 35.6128 60.6057C36.194 63.1798 37.0114 64.4824 40.4236 67.3885Z" fill="#88593B" fill-opacity="0.6"/>
<path d="M44.3802 73.0819C44.1363 72.7368 43.8949 72.3839 43.651 72.031C43.6225 72.3554 43.5342 72.6771 43.5835 72.9885C43.6121 73.1442 43.8846 73.2687 44.0532 73.4011C44.157 73.2973 44.266 73.1961 44.3776 73.0845L44.3802 73.0819Z" fill="#88593B" fill-opacity="0.6"/>
<path d="M49.4794 84.006C49.1421 83.2327 48.7943 82.4543 48.3013 81.3359C47.6033 83.1757 48.4337 83.6687 49.5806 83.9619C49.5806 83.9541 49.4768 84.006 49.4768 84.006H49.4794Z" fill="#88593B" fill-opacity="0.6"/>
<path d="M65.3208 148.769C64.3945 148.328 63.4759 147.887 62.547 147.454C62.4873 147.638 62.4224 147.822 62.355 148.007C63.3254 148.235 64.2907 148.463 65.2689 148.705C65.2767 148.72 65.3208 148.772 65.3208 148.772V148.769Z" fill="#88593B" fill-opacity="0.6"/>
</svg>
