<svg width="133" height="19" viewBox="0 0 133 19" fill="none" xmlns="http://www.w3.org/2000/svg">
<mask id="path-1-outside-1_112_1778" maskUnits="userSpaceOnUse" x="0" y="0" width="134" height="20" fill="black">
<rect fill="white" width="134" height="20"/>
<path d="M3.792 16.728C4.096 16.392 4.384 16.088 4.656 15.816C4.928 15.528 5.184 15.248 5.424 14.976C5.664 14.704 5.896 14.432 6.12 14.16C6.36 13.888 6.6 13.608 6.84 13.32C7.032 13.08 7.192 12.88 7.32 12.72C7.464 12.56 7.592 12.408 7.704 12.264C7.816 12.104 7.928 11.952 8.04 11.808C8.152 11.648 8.28 11.464 8.424 11.256L8.376 11.208C7.992 11.336 7.68 11.424 7.44 11.472C7.2 11.504 6.872 11.52 6.456 11.52C5.624 11.52 4.856 11.384 4.152 11.112C3.464 10.84 2.864 10.464 2.352 9.984C1.84 9.488 1.44 8.904 1.152 8.232C0.864 7.56 0.72 6.824 0.72 6.024C0.72 5.208 0.864 4.464 1.152 3.792C1.44 3.12 1.84 2.544 2.352 2.064C2.88 1.584 3.504 1.208 4.224 0.935999C4.944 0.663999 5.736 0.527999 6.6 0.527999C7.48 0.527999 8.28 0.663999 9 0.935999C9.72 1.208 10.336 1.592 10.848 2.088C11.36 2.584 11.76 3.176 12.048 3.864C12.336 4.552 12.48 5.312 12.48 6.144C12.48 7.616 11.912 9.288 10.776 11.16C9.656 13.016 7.92 15.16 5.568 17.592L5.184 18H2.592L3.792 16.728ZM2.736 5.976C2.736 6.488 2.84 6.976 3.048 7.44C3.256 7.888 3.528 8.288 3.864 8.64C4.216 8.976 4.624 9.248 5.088 9.456C5.568 9.648 6.072 9.744 6.6 9.744C7.144 9.744 7.648 9.648 8.112 9.456C8.576 9.248 8.984 8.976 9.336 8.64C9.688 8.288 9.96 7.88 10.152 7.416C10.36 6.952 10.464 6.456 10.464 5.928C10.464 5.432 10.36 4.96 10.152 4.512C9.96 4.064 9.688 3.68 9.336 3.36C9 3.04 8.592 2.784 8.112 2.592C7.648 2.4 7.152 2.304 6.624 2.304C6.096 2.304 5.592 2.4 5.112 2.592C4.648 2.784 4.24 3.048 3.888 3.384C3.536 3.72 3.256 4.112 3.048 4.56C2.84 5.008 2.736 5.48 2.736 5.976ZM17.1279 16.728C17.4319 16.392 17.7199 16.088 17.9919 15.816C18.2639 15.528 18.5199 15.248 18.7599 14.976C18.9999 14.704 19.2319 14.432 19.4559 14.16C19.6959 13.888 19.9359 13.608 20.1759 13.32C20.3679 13.08 20.5279 12.88 20.6559 12.72C20.7999 12.56 20.9279 12.408 21.0399 12.264C21.1519 12.104 21.2639 11.952 21.3759 11.808C21.4879 11.648 21.6159 11.464 21.7599 11.256L21.7119 11.208C21.3279 11.336 21.0159 11.424 20.7759 11.472C20.5359 11.504 20.2079 11.52 19.7919 11.52C18.9599 11.52 18.1919 11.384 17.4879 11.112C16.7999 10.84 16.1999 10.464 15.6879 9.984C15.1759 9.488 14.7759 8.904 14.4879 8.232C14.1999 7.56 14.0559 6.824 14.0559 6.024C14.0559 5.208 14.1999 4.464 14.4879 3.792C14.7759 3.12 15.1759 2.544 15.6879 2.064C16.2159 1.584 16.8399 1.208 17.5599 0.935999C18.2799 0.663999 19.0719 0.527999 19.9359 0.527999C20.8159 0.527999 21.6159 0.663999 22.3359 0.935999C23.0559 1.208 23.6719 1.592 24.1839 2.088C24.6959 2.584 25.0959 3.176 25.3839 3.864C25.6719 4.552 25.8159 5.312 25.8159 6.144C25.8159 7.616 25.2479 9.288 24.1119 11.16C22.9919 13.016 21.2559 15.16 18.9039 17.592L18.5199 18H15.9279L17.1279 16.728ZM16.0719 5.976C16.0719 6.488 16.1759 6.976 16.3839 7.44C16.5919 7.888 16.8639 8.288 17.1999 8.64C17.5519 8.976 17.9599 9.248 18.4239 9.456C18.9039 9.648 19.4079 9.744 19.9359 9.744C20.4799 9.744 20.9839 9.648 21.4479 9.456C21.9119 9.248 22.3199 8.976 22.6719 8.64C23.0239 8.288 23.2959 7.88 23.4879 7.416C23.6959 6.952 23.7999 6.456 23.7999 5.928C23.7999 5.432 23.6959 4.96 23.4879 4.512C23.2959 4.064 23.0239 3.68 22.6719 3.36C22.3359 3.04 21.9279 2.784 21.4479 2.592C20.9839 2.4 20.4879 2.304 19.9599 2.304C19.4319 2.304 18.9279 2.4 18.4479 2.592C17.9839 2.784 17.5759 3.048 17.2239 3.384C16.8719 3.72 16.5919 4.112 16.3839 4.56C16.1759 5.008 16.0719 5.48 16.0719 5.976ZM36.8959 2.88H27.8959V1.104H39.7999L31.0879 18H28.8079L36.8959 2.88ZM48.8715 14.136C49.0795 14.552 49.2475 14.864 49.3755 15.072C49.5035 15.28 49.6715 15.488 49.8795 15.696C50.5675 16.432 51.5035 16.8 52.6875 16.8C53.8235 16.8 54.7195 16.496 55.3755 15.888C56.0475 15.264 56.3835 14.424 56.3835 13.368C56.3835 11.112 55.0155 9.984 52.2795 9.984H51.8475V8.208C52.1675 8.208 52.4395 8.2 52.6635 8.184C52.9035 8.168 53.1115 8.152 53.2875 8.136C53.4795 8.104 53.6475 8.064 53.7915 8.016C53.9515 7.968 54.1115 7.912 54.2715 7.848C54.7835 7.64 55.1755 7.32 55.4475 6.888C55.7195 6.44 55.8555 5.904 55.8555 5.28C55.8555 4.368 55.5755 3.648 55.0155 3.12C54.4555 2.576 53.7035 2.304 52.7595 2.304C52.0395 2.304 51.4315 2.448 50.9355 2.736C50.4555 3.024 50.0155 3.504 49.6155 4.176L47.7915 3.768C48.2235 2.712 48.8475 1.912 49.6635 1.368C50.4955 0.807999 51.5035 0.527999 52.6875 0.527999C53.4395 0.527999 54.1355 0.647999 54.7755 0.887999C55.4155 1.112 55.9595 1.432 56.4075 1.848C56.8715 2.264 57.2315 2.76 57.4875 3.336C57.7435 3.912 57.8715 4.544 57.8715 5.232C57.8715 6.976 57.0715 8.224 55.4715 8.976C57.4235 9.728 58.3995 11.16 58.3995 13.272C58.3995 14.072 58.2635 14.8 57.9915 15.456C57.7195 16.112 57.3275 16.672 56.8155 17.136C56.3195 17.6 55.7115 17.952 54.9915 18.192C54.2715 18.448 53.4715 18.576 52.5915 18.576C51.7275 18.576 50.9675 18.448 50.3115 18.192C49.6555 17.936 49.0635 17.528 48.5355 16.968C48.3915 16.824 48.2635 16.68 48.1515 16.536C48.0395 16.392 47.9275 16.24 47.8155 16.08C47.7195 15.904 47.6075 15.712 47.4795 15.504C47.3675 15.296 47.2395 15.04 47.0955 14.736L48.8715 14.136ZM65.9754 2.544H63.8154L64.0554 1.104H67.9914V18H65.9754V2.544ZM74.1034 9.552C74.1034 8.16 74.2394 6.912 74.5114 5.808C74.7834 4.688 75.1754 3.744 75.6874 2.976C76.2154 2.192 76.8394 1.592 77.5594 1.176C78.2954 0.743999 79.1194 0.527999 80.0314 0.527999C80.9434 0.527999 81.7594 0.743999 82.4794 1.176C83.2154 1.592 83.8394 2.192 84.3514 2.976C84.8794 3.744 85.2794 4.688 85.5514 5.808C85.8234 6.912 85.9594 8.16 85.9594 9.552C85.9594 10.944 85.8234 12.2 85.5514 13.32C85.2794 14.424 84.8794 15.368 84.3514 16.152C83.8394 16.92 83.2154 17.52 82.4794 17.952C81.7594 18.368 80.9434 18.576 80.0314 18.576C79.1194 18.576 78.2954 18.368 77.5594 17.952C76.8394 17.52 76.2154 16.92 75.6874 16.152C75.1754 15.368 74.7834 14.424 74.5114 13.32C74.2394 12.2 74.1034 10.944 74.1034 9.552ZM76.1194 9.552C76.1194 11.888 76.4554 13.68 77.1274 14.928C77.7994 16.176 78.7674 16.8 80.0314 16.8C81.2954 16.8 82.2634 16.176 82.9354 14.928C83.6074 13.68 83.9434 11.888 83.9434 9.552C83.9434 7.216 83.6074 5.424 82.9354 4.176C82.2634 2.928 81.2954 2.304 80.0314 2.304C78.7674 2.304 77.7994 2.928 77.1274 4.176C76.4554 5.424 76.1194 7.216 76.1194 9.552ZM94.119 9.552C94.119 8.16 94.255 6.912 94.527 5.808C94.799 4.688 95.191 3.744 95.703 2.976C96.231 2.192 96.855 1.592 97.575 1.176C98.311 0.743999 99.135 0.527999 100.047 0.527999C100.959 0.527999 101.775 0.743999 102.495 1.176C103.231 1.592 103.855 2.192 104.367 2.976C104.895 3.744 105.295 4.688 105.567 5.808C105.839 6.912 105.975 8.16 105.975 9.552C105.975 10.944 105.839 12.2 105.567 13.32C105.295 14.424 104.895 15.368 104.367 16.152C103.855 16.92 103.231 17.52 102.495 17.952C101.775 18.368 100.959 18.576 100.047 18.576C99.135 18.576 98.311 18.368 97.575 17.952C96.855 17.52 96.231 16.92 95.703 16.152C95.191 15.368 94.799 14.424 94.527 13.32C94.255 12.2 94.119 10.944 94.119 9.552ZM96.135 9.552C96.135 11.888 96.471 13.68 97.143 14.928C97.815 16.176 98.783 16.8 100.047 16.8C101.311 16.8 102.279 16.176 102.951 14.928C103.623 13.68 103.959 11.888 103.959 9.552C103.959 7.216 103.623 5.424 102.951 4.176C102.279 2.928 101.311 2.304 100.047 2.304C98.783 2.304 97.815 2.928 97.143 4.176C96.471 5.424 96.135 7.216 96.135 9.552ZM116.935 2.88H107.935V1.104H119.839L111.127 18H108.847L116.935 2.88ZM120.791 9.552C120.791 8.16 120.927 6.912 121.199 5.808C121.471 4.688 121.863 3.744 122.375 2.976C122.903 2.192 123.527 1.592 124.247 1.176C124.983 0.743999 125.807 0.527999 126.719 0.527999C127.631 0.527999 128.447 0.743999 129.167 1.176C129.903 1.592 130.527 2.192 131.039 2.976C131.567 3.744 131.967 4.688 132.239 5.808C132.511 6.912 132.647 8.16 132.647 9.552C132.647 10.944 132.511 12.2 132.239 13.32C131.967 14.424 131.567 15.368 131.039 16.152C130.527 16.92 129.903 17.52 129.167 17.952C128.447 18.368 127.631 18.576 126.719 18.576C125.807 18.576 124.983 18.368 124.247 17.952C123.527 17.52 122.903 16.92 122.375 16.152C121.863 15.368 121.471 14.424 121.199 13.32C120.927 12.2 120.791 10.944 120.791 9.552ZM122.807 9.552C122.807 11.888 123.143 13.68 123.815 14.928C124.487 16.176 125.455 16.8 126.719 16.8C127.983 16.8 128.951 16.176 129.623 14.928C130.295 13.68 130.631 11.888 130.631 9.552C130.631 7.216 130.295 5.424 129.623 4.176C128.951 2.928 127.983 2.304 126.719 2.304C125.455 2.304 124.487 2.928 123.815 4.176C123.143 5.424 122.807 7.216 122.807 9.552Z"/>
</mask>
<path d="M3.792 16.728C4.096 16.392 4.384 16.088 4.656 15.816C4.928 15.528 5.184 15.248 5.424 14.976C5.664 14.704 5.896 14.432 6.12 14.16C6.36 13.888 6.6 13.608 6.84 13.32C7.032 13.08 7.192 12.88 7.32 12.72C7.464 12.56 7.592 12.408 7.704 12.264C7.816 12.104 7.928 11.952 8.04 11.808C8.152 11.648 8.28 11.464 8.424 11.256L8.376 11.208C7.992 11.336 7.68 11.424 7.44 11.472C7.2 11.504 6.872 11.52 6.456 11.52C5.624 11.52 4.856 11.384 4.152 11.112C3.464 10.84 2.864 10.464 2.352 9.984C1.84 9.488 1.44 8.904 1.152 8.232C0.864 7.56 0.72 6.824 0.72 6.024C0.72 5.208 0.864 4.464 1.152 3.792C1.44 3.12 1.84 2.544 2.352 2.064C2.88 1.584 3.504 1.208 4.224 0.935999C4.944 0.663999 5.736 0.527999 6.6 0.527999C7.48 0.527999 8.28 0.663999 9 0.935999C9.72 1.208 10.336 1.592 10.848 2.088C11.36 2.584 11.76 3.176 12.048 3.864C12.336 4.552 12.48 5.312 12.48 6.144C12.48 7.616 11.912 9.288 10.776 11.16C9.656 13.016 7.92 15.16 5.568 17.592L5.184 18H2.592L3.792 16.728ZM2.736 5.976C2.736 6.488 2.84 6.976 3.048 7.44C3.256 7.888 3.528 8.288 3.864 8.64C4.216 8.976 4.624 9.248 5.088 9.456C5.568 9.648 6.072 9.744 6.6 9.744C7.144 9.744 7.648 9.648 8.112 9.456C8.576 9.248 8.984 8.976 9.336 8.64C9.688 8.288 9.96 7.88 10.152 7.416C10.36 6.952 10.464 6.456 10.464 5.928C10.464 5.432 10.36 4.96 10.152 4.512C9.96 4.064 9.688 3.68 9.336 3.36C9 3.04 8.592 2.784 8.112 2.592C7.648 2.4 7.152 2.304 6.624 2.304C6.096 2.304 5.592 2.4 5.112 2.592C4.648 2.784 4.24 3.048 3.888 3.384C3.536 3.72 3.256 4.112 3.048 4.56C2.84 5.008 2.736 5.48 2.736 5.976ZM17.1279 16.728C17.4319 16.392 17.7199 16.088 17.9919 15.816C18.2639 15.528 18.5199 15.248 18.7599 14.976C18.9999 14.704 19.2319 14.432 19.4559 14.16C19.6959 13.888 19.9359 13.608 20.1759 13.32C20.3679 13.08 20.5279 12.88 20.6559 12.72C20.7999 12.56 20.9279 12.408 21.0399 12.264C21.1519 12.104 21.2639 11.952 21.3759 11.808C21.4879 11.648 21.6159 11.464 21.7599 11.256L21.7119 11.208C21.3279 11.336 21.0159 11.424 20.7759 11.472C20.5359 11.504 20.2079 11.52 19.7919 11.52C18.9599 11.52 18.1919 11.384 17.4879 11.112C16.7999 10.84 16.1999 10.464 15.6879 9.984C15.1759 9.488 14.7759 8.904 14.4879 8.232C14.1999 7.56 14.0559 6.824 14.0559 6.024C14.0559 5.208 14.1999 4.464 14.4879 3.792C14.7759 3.12 15.1759 2.544 15.6879 2.064C16.2159 1.584 16.8399 1.208 17.5599 0.935999C18.2799 0.663999 19.0719 0.527999 19.9359 0.527999C20.8159 0.527999 21.6159 0.663999 22.3359 0.935999C23.0559 1.208 23.6719 1.592 24.1839 2.088C24.6959 2.584 25.0959 3.176 25.3839 3.864C25.6719 4.552 25.8159 5.312 25.8159 6.144C25.8159 7.616 25.2479 9.288 24.1119 11.16C22.9919 13.016 21.2559 15.16 18.9039 17.592L18.5199 18H15.9279L17.1279 16.728ZM16.0719 5.976C16.0719 6.488 16.1759 6.976 16.3839 7.44C16.5919 7.888 16.8639 8.288 17.1999 8.64C17.5519 8.976 17.9599 9.248 18.4239 9.456C18.9039 9.648 19.4079 9.744 19.9359 9.744C20.4799 9.744 20.9839 9.648 21.4479 9.456C21.9119 9.248 22.3199 8.976 22.6719 8.64C23.0239 8.288 23.2959 7.88 23.4879 7.416C23.6959 6.952 23.7999 6.456 23.7999 5.928C23.7999 5.432 23.6959 4.96 23.4879 4.512C23.2959 4.064 23.0239 3.68 22.6719 3.36C22.3359 3.04 21.9279 2.784 21.4479 2.592C20.9839 2.4 20.4879 2.304 19.9599 2.304C19.4319 2.304 18.9279 2.4 18.4479 2.592C17.9839 2.784 17.5759 3.048 17.2239 3.384C16.8719 3.72 16.5919 4.112 16.3839 4.56C16.1759 5.008 16.0719 5.48 16.0719 5.976ZM36.8959 2.88H27.8959V1.104H39.7999L31.0879 18H28.8079L36.8959 2.88ZM48.8715 14.136C49.0795 14.552 49.2475 14.864 49.3755 15.072C49.5035 15.28 49.6715 15.488 49.8795 15.696C50.5675 16.432 51.5035 16.8 52.6875 16.8C53.8235 16.8 54.7195 16.496 55.3755 15.888C56.0475 15.264 56.3835 14.424 56.3835 13.368C56.3835 11.112 55.0155 9.984 52.2795 9.984H51.8475V8.208C52.1675 8.208 52.4395 8.2 52.6635 8.184C52.9035 8.168 53.1115 8.152 53.2875 8.136C53.4795 8.104 53.6475 8.064 53.7915 8.016C53.9515 7.968 54.1115 7.912 54.2715 7.848C54.7835 7.64 55.1755 7.32 55.4475 6.888C55.7195 6.44 55.8555 5.904 55.8555 5.28C55.8555 4.368 55.5755 3.648 55.0155 3.12C54.4555 2.576 53.7035 2.304 52.7595 2.304C52.0395 2.304 51.4315 2.448 50.9355 2.736C50.4555 3.024 50.0155 3.504 49.6155 4.176L47.7915 3.768C48.2235 2.712 48.8475 1.912 49.6635 1.368C50.4955 0.807999 51.5035 0.527999 52.6875 0.527999C53.4395 0.527999 54.1355 0.647999 54.7755 0.887999C55.4155 1.112 55.9595 1.432 56.4075 1.848C56.8715 2.264 57.2315 2.76 57.4875 3.336C57.7435 3.912 57.8715 4.544 57.8715 5.232C57.8715 6.976 57.0715 8.224 55.4715 8.976C57.4235 9.728 58.3995 11.16 58.3995 13.272C58.3995 14.072 58.2635 14.8 57.9915 15.456C57.7195 16.112 57.3275 16.672 56.8155 17.136C56.3195 17.6 55.7115 17.952 54.9915 18.192C54.2715 18.448 53.4715 18.576 52.5915 18.576C51.7275 18.576 50.9675 18.448 50.3115 18.192C49.6555 17.936 49.0635 17.528 48.5355 16.968C48.3915 16.824 48.2635 16.68 48.1515 16.536C48.0395 16.392 47.9275 16.24 47.8155 16.08C47.7195 15.904 47.6075 15.712 47.4795 15.504C47.3675 15.296 47.2395 15.04 47.0955 14.736L48.8715 14.136ZM65.9754 2.544H63.8154L64.0554 1.104H67.9914V18H65.9754V2.544ZM74.1034 9.552C74.1034 8.16 74.2394 6.912 74.5114 5.808C74.7834 4.688 75.1754 3.744 75.6874 2.976C76.2154 2.192 76.8394 1.592 77.5594 1.176C78.2954 0.743999 79.1194 0.527999 80.0314 0.527999C80.9434 0.527999 81.7594 0.743999 82.4794 1.176C83.2154 1.592 83.8394 2.192 84.3514 2.976C84.8794 3.744 85.2794 4.688 85.5514 5.808C85.8234 6.912 85.9594 8.16 85.9594 9.552C85.9594 10.944 85.8234 12.2 85.5514 13.32C85.2794 14.424 84.8794 15.368 84.3514 16.152C83.8394 16.92 83.2154 17.52 82.4794 17.952C81.7594 18.368 80.9434 18.576 80.0314 18.576C79.1194 18.576 78.2954 18.368 77.5594 17.952C76.8394 17.52 76.2154 16.92 75.6874 16.152C75.1754 15.368 74.7834 14.424 74.5114 13.32C74.2394 12.2 74.1034 10.944 74.1034 9.552ZM76.1194 9.552C76.1194 11.888 76.4554 13.68 77.1274 14.928C77.7994 16.176 78.7674 16.8 80.0314 16.8C81.2954 16.8 82.2634 16.176 82.9354 14.928C83.6074 13.68 83.9434 11.888 83.9434 9.552C83.9434 7.216 83.6074 5.424 82.9354 4.176C82.2634 2.928 81.2954 2.304 80.0314 2.304C78.7674 2.304 77.7994 2.928 77.1274 4.176C76.4554 5.424 76.1194 7.216 76.1194 9.552ZM94.119 9.552C94.119 8.16 94.255 6.912 94.527 5.808C94.799 4.688 95.191 3.744 95.703 2.976C96.231 2.192 96.855 1.592 97.575 1.176C98.311 0.743999 99.135 0.527999 100.047 0.527999C100.959 0.527999 101.775 0.743999 102.495 1.176C103.231 1.592 103.855 2.192 104.367 2.976C104.895 3.744 105.295 4.688 105.567 5.808C105.839 6.912 105.975 8.16 105.975 9.552C105.975 10.944 105.839 12.2 105.567 13.32C105.295 14.424 104.895 15.368 104.367 16.152C103.855 16.92 103.231 17.52 102.495 17.952C101.775 18.368 100.959 18.576 100.047 18.576C99.135 18.576 98.311 18.368 97.575 17.952C96.855 17.52 96.231 16.92 95.703 16.152C95.191 15.368 94.799 14.424 94.527 13.32C94.255 12.2 94.119 10.944 94.119 9.552ZM96.135 9.552C96.135 11.888 96.471 13.68 97.143 14.928C97.815 16.176 98.783 16.8 100.047 16.8C101.311 16.8 102.279 16.176 102.951 14.928C103.623 13.68 103.959 11.888 103.959 9.552C103.959 7.216 103.623 5.424 102.951 4.176C102.279 2.928 101.311 2.304 100.047 2.304C98.783 2.304 97.815 2.928 97.143 4.176C96.471 5.424 96.135 7.216 96.135 9.552ZM116.935 2.88H107.935V1.104H119.839L111.127 18H108.847L116.935 2.88ZM120.791 9.552C120.791 8.16 120.927 6.912 121.199 5.808C121.471 4.688 121.863 3.744 122.375 2.976C122.903 2.192 123.527 1.592 124.247 1.176C124.983 0.743999 125.807 0.527999 126.719 0.527999C127.631 0.527999 128.447 0.743999 129.167 1.176C129.903 1.592 130.527 2.192 131.039 2.976C131.567 3.744 131.967 4.688 132.239 5.808C132.511 6.912 132.647 8.16 132.647 9.552C132.647 10.944 132.511 12.2 132.239 13.32C131.967 14.424 131.567 15.368 131.039 16.152C130.527 16.92 129.903 17.52 129.167 17.952C128.447 18.368 127.631 18.576 126.719 18.576C125.807 18.576 124.983 18.368 124.247 17.952C123.527 17.52 122.903 16.92 122.375 16.152C121.863 15.368 121.471 14.424 121.199 13.32C120.927 12.2 120.791 10.944 120.791 9.552ZM122.807 9.552C122.807 11.888 123.143 13.68 123.815 14.928C124.487 16.176 125.455 16.8 126.719 16.8C127.983 16.8 128.951 16.176 129.623 14.928C130.295 13.68 130.631 11.888 130.631 9.552C130.631 7.216 130.295 5.424 129.623 4.176C128.951 2.928 127.983 2.304 126.719 2.304C125.455 2.304 124.487 2.928 123.815 4.176C123.143 5.424 122.807 7.216 122.807 9.552Z" fill="#8A573C"/>
<path d="M3.792 16.728L4.15578 17.0712L4.16277 17.0635L3.792 16.728ZM4.656 15.816L5.00955 16.1696L5.0146 16.1645L5.01951 16.1593L4.656 15.816ZM5.424 14.976L5.79892 15.3068L5.424 14.976ZM6.12 14.16L5.74508 13.8292L5.73945 13.8356L5.73404 13.8421L6.12 14.16ZM6.84 13.32L7.22419 13.6402L7.23043 13.6323L6.84 13.32ZM7.32 12.72L6.94835 12.3855L6.93864 12.3963L6.92957 12.4077L7.32 12.72ZM7.704 12.264L8.09868 12.571L8.1064 12.561L8.11362 12.5507L7.704 12.264ZM8.04 11.808L8.43468 12.115L8.4424 12.105L8.44962 12.0947L8.04 11.808ZM8.424 11.256L8.8351 11.5406L9.07262 11.1975L8.77755 10.9024L8.424 11.256ZM8.376 11.208L8.72955 10.8544L8.51105 10.6359L8.21789 10.7337L8.376 11.208ZM7.44 11.472L7.50608 11.9676L7.52216 11.9655L7.53806 11.9623L7.44 11.472ZM4.152 11.112L3.96816 11.577L3.9718 11.5784L4.152 11.112ZM2.352 9.984L2.00406 10.3432L2.01003 10.3488L2.352 9.984ZM1.152 8.232L0.692427 8.42896H0.692428L1.152 8.232ZM2.352 2.064L2.01562 1.69399L2.01003 1.69923L2.352 2.064ZM9 0.935999L9.1767 0.468264L9 0.935999ZM10.848 2.088L11.1959 1.72888V1.72888L10.848 2.088ZM12.048 3.864L12.5092 3.67093L12.048 3.864ZM10.776 11.16L10.3485 10.9006L10.3479 10.9017L10.776 11.16ZM5.568 17.592L5.20855 17.2444L5.2039 17.2493L5.568 17.592ZM5.184 18V18.5H5.40004L5.5481 18.3427L5.184 18ZM2.592 18L2.2283 17.6569L1.43292 18.5H2.592V18ZM3.048 7.44L2.59171 7.64455L2.5945 7.65055L3.048 7.44ZM3.864 8.64L3.50232 8.98524L3.51035 8.99365L3.51876 9.00168L3.864 8.64ZM5.088 9.456L4.88347 9.91225L4.89281 9.91644L4.90231 9.92024L5.088 9.456ZM8.112 9.456L8.30318 9.91801L8.30989 9.91523L8.31653 9.91225L8.112 9.456ZM9.336 8.64L9.68133 9.00178L9.68955 8.99355L9.336 8.64ZM10.152 7.416L9.69575 7.21147L9.69277 7.21811L9.68999 7.22482L10.152 7.416ZM10.152 4.512L9.69243 4.70896L9.69536 4.7158L9.6985 4.72256L10.152 4.512ZM9.336 3.36L8.99108 3.72217L8.99966 3.72997L9.336 3.36ZM8.112 2.592L7.92081 3.05404L7.92631 3.05624L8.112 2.592ZM5.112 2.592L4.92629 2.12773L4.92083 2.12999L5.112 2.592ZM3.888 3.384L3.54276 3.02232H3.54276L3.888 3.384ZM4.16277 17.0635C4.46213 16.7326 4.74436 16.4347 5.00955 16.1696L4.30245 15.4624C4.02364 15.7413 3.72987 16.0514 3.42123 16.3925L4.16277 17.0635ZM5.01951 16.1593C5.29503 15.8676 5.55486 15.5834 5.79892 15.3068L5.04908 14.6452C4.81314 14.9126 4.56097 15.1884 4.29249 15.4727L5.01951 16.1593ZM5.79892 15.3068C6.04256 15.0307 6.27825 14.7544 6.50597 14.4779L5.73404 13.8421C5.51375 14.1096 5.28544 14.3773 5.04908 14.6452L5.79892 15.3068ZM6.49492 14.4908C6.73814 14.2152 6.9812 13.9316 7.22411 13.6401L6.45589 12.9999C6.2188 13.2844 5.98187 13.5608 5.74508 13.8292L6.49492 14.4908ZM7.23043 13.6323C7.42244 13.3923 7.58244 13.1923 7.71043 13.0323L6.92957 12.4077C6.80157 12.5677 6.64157 12.7677 6.44957 13.0077L7.23043 13.6323ZM7.69165 13.0545C7.84227 12.8871 7.97817 12.7259 8.09868 12.571L7.30932 11.957C7.20583 12.0901 7.08573 12.2329 6.94835 12.3855L7.69165 13.0545ZM8.11362 12.5507C8.22114 12.3971 8.32817 12.2519 8.43468 12.115L7.64532 11.501C7.52783 11.6521 7.41086 11.8109 7.29438 11.9773L8.11362 12.5507ZM8.44962 12.0947C8.56223 11.9339 8.69074 11.7491 8.8351 11.5406L8.0129 10.9714C7.86926 11.1789 7.74177 11.3621 7.63038 11.5213L8.44962 12.0947ZM8.77755 10.9024L8.72955 10.8544L8.02245 11.5616L8.07045 11.6096L8.77755 10.9024ZM8.21789 10.7337C7.84264 10.8587 7.5528 10.9395 7.34194 10.9817L7.53806 11.9623C7.8072 11.9085 8.14136 11.8133 8.53411 11.6823L8.21789 10.7337ZM7.37392 10.9764C7.1659 11.0041 6.86316 11.02 6.456 11.02V12.02C6.88084 12.02 7.2341 12.0039 7.50608 11.9676L7.37392 10.9764ZM6.456 11.02C5.67932 11.02 4.97311 10.8932 4.3322 10.6456L3.9718 11.5784C4.73889 11.8748 5.56869 12.02 6.456 12.02V11.02ZM4.33583 10.647C3.70317 10.3969 3.15758 10.0539 2.69397 9.61923L2.01003 10.3488C2.57042 10.8741 3.22483 11.2831 3.96817 11.577L4.33583 10.647ZM2.6999 9.62488C2.23674 9.17619 1.87415 8.64772 1.61157 8.03504L0.692428 8.42896C1.00585 9.16028 1.44326 9.79981 2.0041 10.3431L2.6999 9.62488ZM1.61157 8.03504C1.35267 7.43092 1.22 6.76271 1.22 6.024H0.22C0.22 6.88529 0.375334 7.68907 0.692427 8.42896L1.61157 8.03504ZM1.22 6.024C1.22 5.26784 1.35318 4.59187 1.61157 3.98896L0.692428 3.59504C0.374818 4.33613 0.22 5.14816 0.22 6.024H1.22ZM1.61157 3.98896C1.87354 3.37771 2.23444 2.85958 2.69397 2.42877L2.01003 1.69923C1.44556 2.22842 1.00646 2.86229 0.692428 3.59504L1.61157 3.98896ZM2.68834 2.43397C3.1662 1.99955 3.73493 1.65525 4.4007 1.40374L4.0473 0.468264C3.27307 0.760751 2.5938 1.16845 2.01566 1.69403L2.68834 2.43397ZM4.4007 1.40374C5.05774 1.15552 5.78901 1.028 6.6 1.028V0.0279989C5.68299 0.0279989 4.83026 0.172478 4.0473 0.468264L4.4007 1.40374ZM6.6 1.028C7.42819 1.028 8.16725 1.15589 8.8233 1.40374L9.1767 0.468264C8.39275 0.172103 7.53181 0.0279989 6.6 0.0279989V1.028ZM8.8233 1.40374C9.48457 1.65355 10.041 2.00232 10.5001 2.44712L11.1959 1.72888C10.631 1.18168 9.95544 0.762453 9.1767 0.468264L8.8233 1.40374ZM10.5001 2.44712C10.9612 2.89384 11.3237 3.42857 11.5868 4.05707L12.5092 3.67093C12.1963 2.92343 11.7588 2.27416 11.1959 1.72888L10.5001 2.44712ZM11.5868 4.05707C11.8464 4.67723 11.98 5.37063 11.98 6.144H12.98C12.98 5.25337 12.8256 4.42677 12.5092 3.67093L11.5868 4.05707ZM11.98 6.144C11.98 7.49035 11.4587 9.07124 10.3485 10.9006L11.2035 11.4194C12.3653 9.50476 12.98 7.74165 12.98 6.144H11.98ZM10.3479 10.9017C9.25502 12.7127 7.54724 14.8262 5.20858 17.2444L5.92742 17.9396C8.29276 15.4938 10.057 13.3193 11.2041 11.4183L10.3479 10.9017ZM5.2039 17.2493L4.8199 17.6573L5.5481 18.3427L5.9321 17.9347L5.2039 17.2493ZM5.184 17.5H2.592V18.5H5.184V17.5ZM2.9557 18.3431L4.1557 17.0711L3.4283 16.3849L2.2283 17.6569L2.9557 18.3431ZM2.236 5.976C2.236 6.55799 2.3547 7.11574 2.59175 7.64453L3.50425 7.23547C3.3253 6.83626 3.236 6.418 3.236 5.976H2.236ZM2.5945 7.65055C2.82518 8.14741 3.12798 8.59307 3.50232 8.98524L4.22568 8.29476C3.92802 7.98293 3.68682 7.62859 3.5015 7.22944L2.5945 7.65055ZM3.51876 9.00168C3.91377 9.37873 4.36989 9.68203 4.88347 9.91225L5.29253 8.99975C4.87811 8.81397 4.51823 8.57327 4.20924 8.27832L3.51876 9.00168ZM4.90231 9.92024C5.44264 10.1364 6.00978 10.244 6.6 10.244V9.244C6.13422 9.244 5.69336 9.15963 5.2737 8.99176L4.90231 9.92024ZM6.6 10.244C7.20409 10.244 7.77367 10.1371 8.30318 9.91801L7.92083 8.99399C7.52233 9.15888 7.08391 9.244 6.6 9.244V10.244ZM8.31653 9.91225C8.83011 9.68203 9.28623 9.37873 9.68124 9.00168L8.99076 8.27832C8.68177 8.57327 8.32189 8.81397 7.90747 8.99975L8.31653 9.91225ZM9.68955 8.99355C10.0884 8.59466 10.3971 8.13136 10.614 7.60718L9.68999 7.22482C9.52289 7.62864 9.28756 7.98133 8.98245 8.28645L9.68955 8.99355ZM10.6083 7.62053C10.8462 7.08972 10.964 6.52373 10.964 5.928H9.964C9.964 6.38827 9.8738 6.81428 9.69575 7.21147L10.6083 7.62053ZM10.964 5.928C10.964 5.35958 10.8443 4.8157 10.6055 4.30144L9.6985 4.72256C9.87574 5.1043 9.964 5.50442 9.964 5.928H10.964ZM10.6116 4.31504C10.3921 3.80287 10.0787 3.35941 9.67234 2.99003L8.99966 3.72997C9.29734 4.00059 9.52793 4.32512 9.69243 4.70896L10.6116 4.31504ZM9.68083 2.99793C9.29379 2.62932 8.83002 2.34069 8.2977 2.12776L7.92631 3.05624C8.35398 3.22731 8.70621 3.45067 8.99117 3.72207L9.68083 2.99793ZM8.30318 2.12999C7.77547 1.91163 7.21417 1.804 6.624 1.804V2.804C7.08983 2.804 7.52053 2.88837 7.92082 3.05401L8.30318 2.12999ZM6.624 1.804C6.03378 1.804 5.46664 1.91163 4.9263 2.12776L5.2977 3.05624C5.71736 2.88837 6.15822 2.804 6.624 2.804V1.804ZM4.92083 2.12999C4.40157 2.34486 3.9409 2.64228 3.54276 3.02232L4.23324 3.74568C4.5391 3.45372 4.89443 3.22314 5.30318 3.05401L4.92083 2.12999ZM3.54276 3.02232C3.14485 3.40214 2.82842 3.84562 2.5945 4.34944L3.5015 4.77056C3.68358 4.37838 3.92715 4.03786 4.23324 3.74568L3.54276 3.02232ZM2.5945 4.34944C2.35574 4.8637 2.236 5.40758 2.236 5.976H3.236C3.236 5.55242 3.32427 5.1523 3.5015 4.77056L2.5945 4.34944ZM17.1279 16.728L17.4917 17.0712L17.4987 17.0635L17.1279 16.728ZM17.9919 15.816L18.3455 16.1696L18.3505 16.1645L18.3554 16.1593L17.9919 15.816ZM18.7599 14.976L19.1349 15.3068L18.7599 14.976ZM19.4559 14.16L19.081 13.8292L19.0754 13.8356L19.07 13.8421L19.4559 14.16ZM20.1759 13.32L20.5601 13.6402L20.5664 13.6323L20.1759 13.32ZM20.6559 12.72L20.2843 12.3855L20.2746 12.3963L20.2655 12.4077L20.6559 12.72ZM21.0399 12.264L21.4346 12.571L21.4423 12.561L21.4496 12.5507L21.0399 12.264ZM21.3759 11.808L21.7706 12.115L21.7783 12.105L21.7856 12.0947L21.3759 11.808ZM21.7599 11.256L22.171 11.5406L22.4086 11.1975L22.1135 10.9024L21.7599 11.256ZM21.7119 11.208L22.0655 10.8544L21.847 10.6359L21.5538 10.7337L21.7119 11.208ZM20.7759 11.472L20.842 11.9676L20.8581 11.9655L20.874 11.9623L20.7759 11.472ZM17.4879 11.112L17.3041 11.577L17.3077 11.5784L17.4879 11.112ZM15.6879 9.984L15.34 10.3432L15.346 10.3488L15.6879 9.984ZM14.4879 8.232L14.0284 8.42896L14.4879 8.232ZM15.6879 2.064L15.3516 1.69399L15.346 1.69923L15.6879 2.064ZM22.3359 0.935999L22.5126 0.468264L22.3359 0.935999ZM24.1839 2.088L24.5318 1.72888V1.72888L24.1839 2.088ZM25.3839 3.864L25.8452 3.67093L25.3839 3.864ZM24.1119 11.16L23.6845 10.9006L23.6838 10.9017L24.1119 11.16ZM18.9039 17.592L18.5445 17.2444L18.5398 17.2493L18.9039 17.592ZM18.5199 18V18.5H18.736L18.884 18.3427L18.5199 18ZM15.9279 18L15.5642 17.6569L14.7689 18.5H15.9279V18ZM16.3839 7.44L15.9276 7.64455L15.9304 7.65055L16.3839 7.44ZM17.1999 8.64L16.8383 8.98524L16.8463 8.99365L16.8547 9.00168L17.1999 8.64ZM18.4239 9.456L18.2194 9.91225L18.2287 9.91644L18.2382 9.92024L18.4239 9.456ZM21.4479 9.456L21.6391 9.91801L21.6458 9.91523L21.6525 9.91225L21.4479 9.456ZM22.6719 8.64L23.0173 9.00178L23.0255 8.99355L22.6719 8.64ZM23.4879 7.416L23.0317 7.21147L23.0287 7.21811L23.0259 7.22482L23.4879 7.416ZM23.4879 4.512L23.0284 4.70896L23.0313 4.7158L23.0344 4.72256L23.4879 4.512ZM22.6719 3.36L22.327 3.72217L22.3356 3.72997L22.6719 3.36ZM21.4479 2.592L21.2567 3.05404L21.2622 3.05624L21.4479 2.592ZM18.4479 2.592L18.2622 2.12773L18.2568 2.12999L18.4479 2.592ZM17.2239 3.384L16.8787 3.02232L17.2239 3.384ZM17.4987 17.0635C17.7981 16.7326 18.0803 16.4347 18.3455 16.1696L17.6384 15.4624C17.3596 15.7413 17.0658 16.0514 16.7572 16.3925L17.4987 17.0635ZM18.3554 16.1593C18.631 15.8676 18.8908 15.5834 19.1349 15.3068L18.385 14.6452C18.1491 14.9126 17.8969 15.1884 17.6284 15.4727L18.3554 16.1593ZM19.1349 15.3068C19.3785 15.0307 19.6142 14.7544 19.8419 14.4779L19.07 13.8421C18.8497 14.1096 18.6214 14.3773 18.385 14.6452L19.1349 15.3068ZM19.8309 14.4908C20.0741 14.2152 20.3171 13.9316 20.56 13.6401L19.7918 12.9999C19.5547 13.2844 19.3178 13.5608 19.081 13.8292L19.8309 14.4908ZM20.5664 13.6323C20.7584 13.3923 20.9184 13.1923 21.0464 13.0323L20.2655 12.4077C20.1375 12.5677 19.9775 12.7677 19.7855 13.0077L20.5664 13.6323ZM21.0276 13.0545C21.1782 12.8871 21.3141 12.7259 21.4346 12.571L20.6453 11.957C20.5418 12.0901 20.4217 12.2329 20.2843 12.3855L21.0276 13.0545ZM21.4496 12.5507C21.5571 12.3971 21.6641 12.2519 21.7706 12.115L20.9813 11.501C20.8638 11.6521 20.7468 11.8109 20.6303 11.9773L21.4496 12.5507ZM21.7856 12.0947C21.8982 11.9339 22.0267 11.7491 22.171 11.5406L21.3488 10.9714C21.2052 11.1789 21.0777 11.3621 20.9663 11.5213L21.7856 12.0947ZM22.1135 10.9024L22.0655 10.8544L21.3584 11.5616L21.4064 11.6096L22.1135 10.9024ZM21.5538 10.7337C21.1786 10.8587 20.8887 10.9395 20.6779 10.9817L20.874 11.9623C21.1431 11.9085 21.4773 11.8133 21.8701 11.6823L21.5538 10.7337ZM20.7099 10.9764C20.5018 11.0041 20.1991 11.02 19.7919 11.02V12.02C20.2168 12.02 20.57 12.0039 20.842 11.9676L20.7099 10.9764ZM19.7919 11.02C19.0153 11.02 18.309 10.8932 17.6681 10.6456L17.3077 11.5784C18.0748 11.8748 18.9046 12.02 19.7919 12.02V11.02ZM17.6718 10.647C17.0391 10.3969 16.4935 10.0539 16.0299 9.61923L15.346 10.3488C15.9064 10.8741 16.5608 11.2831 17.3041 11.577L17.6718 10.647ZM16.0358 9.62488C15.5727 9.17619 15.2101 8.64772 14.9475 8.03504L14.0284 8.42896C14.3418 9.16028 14.7792 9.79981 15.34 10.3431L16.0358 9.62488ZM14.9475 8.03504C14.6886 7.43092 14.5559 6.76271 14.5559 6.024H13.5559C13.5559 6.88529 13.7113 7.68907 14.0284 8.42896L14.9475 8.03504ZM14.5559 6.024C14.5559 5.26784 14.6891 4.59187 14.9475 3.98896L14.0284 3.59504C13.7108 4.33613 13.5559 5.14816 13.5559 6.024H14.5559ZM14.9475 3.98896C15.2095 3.37771 15.5704 2.85958 16.0299 2.42877L15.346 1.69923C14.7815 2.22842 14.3424 2.86229 14.0284 3.59504L14.9475 3.98896ZM16.0243 2.43397C16.5021 1.99955 17.0709 1.65525 17.7366 1.40374L17.3832 0.468264C16.609 0.760751 15.9297 1.16845 15.3516 1.69403L16.0243 2.43397ZM17.7366 1.40374C18.3937 1.15552 19.125 1.028 19.9359 1.028V0.0279989C19.0189 0.0279989 18.1662 0.172478 17.3832 0.468264L17.7366 1.40374ZM19.9359 1.028C20.7641 1.028 21.5032 1.15589 22.1592 1.40374L22.5126 0.468264C21.7287 0.172103 20.8678 0.0279989 19.9359 0.0279989V1.028ZM22.1592 1.40374C22.8205 1.65355 23.3769 2.00232 23.836 2.44712L24.5318 1.72888C23.967 1.18168 23.2914 0.762453 22.5126 0.468264L22.1592 1.40374ZM23.836 2.44712C24.2972 2.89384 24.6596 3.42857 24.9227 4.05707L25.8452 3.67093C25.5322 2.92343 25.0947 2.27416 24.5318 1.72888L23.836 2.44712ZM24.9227 4.05707C25.1823 4.67723 25.3159 5.37063 25.3159 6.144H26.3159C26.3159 5.25337 26.1616 4.42677 25.8452 3.67093L24.9227 4.05707ZM25.3159 6.144C25.3159 7.49035 24.7946 9.07124 23.6845 10.9006L24.5394 11.4194C25.7013 9.50476 26.3159 7.74165 26.3159 6.144H25.3159ZM23.6838 10.9017C22.591 12.7127 20.8832 14.8262 18.5445 17.2444L19.2634 17.9396C21.6287 15.4938 23.3929 13.3193 24.54 11.4183L23.6838 10.9017ZM18.5398 17.2493L18.1558 17.6573L18.884 18.3427L19.268 17.9347L18.5398 17.2493ZM18.5199 17.5H15.9279V18.5H18.5199V17.5ZM16.2916 18.3431L17.4916 17.0711L16.7642 16.3849L15.5642 17.6569L16.2916 18.3431ZM15.5719 5.976C15.5719 6.55799 15.6906 7.11574 15.9277 7.64453L16.8402 7.23547C16.6612 6.83626 16.5719 6.418 16.5719 5.976H15.5719ZM15.9304 7.65055C16.1611 8.14741 16.4639 8.59307 16.8383 8.98524L17.5616 8.29476C17.264 7.98293 17.0228 7.62859 16.8374 7.22944L15.9304 7.65055ZM16.8547 9.00168C17.2497 9.37873 17.7058 9.68203 18.2194 9.91225L18.6285 8.99975C18.2141 8.81397 17.8542 8.57327 17.5452 8.27832L16.8547 9.00168ZM18.2382 9.92024C18.7786 10.1364 19.3457 10.244 19.9359 10.244V9.244C19.4702 9.244 19.0293 9.15963 18.6096 8.99176L18.2382 9.92024ZM19.9359 10.244C20.54 10.244 21.1096 10.1371 21.6391 9.91801L21.2568 8.99399C20.8583 9.15888 20.4198 9.244 19.9359 9.244V10.244ZM21.6525 9.91225C22.1661 9.68203 22.6222 9.37873 23.0172 9.00168L22.3267 8.27832C22.0177 8.57327 21.6578 8.81397 21.2434 8.99975L21.6525 9.91225ZM23.0255 8.99355C23.4244 8.59466 23.733 8.13136 23.9499 7.60718L23.0259 7.22482C22.8588 7.62864 22.6235 7.98133 22.3184 8.28645L23.0255 8.99355ZM23.9442 7.62053C24.1821 7.08972 24.2999 6.52373 24.2999 5.928H23.2999C23.2999 6.38827 23.2097 6.81428 23.0317 7.21147L23.9442 7.62053ZM24.2999 5.928C24.2999 5.35958 24.1802 4.8157 23.9414 4.30144L23.0344 4.72256C23.2117 5.1043 23.2999 5.50442 23.2999 5.928H24.2999ZM23.9475 4.31504C23.728 3.80287 23.4146 3.35941 23.0083 2.99003L22.3356 3.72997C22.6333 4.00059 22.8639 4.32512 23.0284 4.70896L23.9475 4.31504ZM23.0168 2.99793C22.6297 2.62932 22.166 2.34069 21.6336 2.12776L21.2622 3.05624C21.6899 3.22731 22.0421 3.45067 22.3271 3.72207L23.0168 2.99793ZM21.6391 2.12999C21.1114 1.91163 20.5501 1.804 19.9599 1.804V2.804C20.4258 2.804 20.8565 2.88837 21.2568 3.05401L21.6391 2.12999ZM19.9599 1.804C19.3697 1.804 18.8026 1.91163 18.2622 2.12776L18.6336 3.05624C19.0533 2.88837 19.4942 2.804 19.9599 2.804V1.804ZM18.2568 2.12999C17.7375 2.34486 17.2768 2.64228 16.8787 3.02232L17.5692 3.74568C17.875 3.45372 18.2304 3.22314 18.6391 3.05401L18.2568 2.12999ZM16.8787 3.02232C16.4808 3.40214 16.1644 3.84562 15.9304 4.34944L16.8374 4.77056C17.0195 4.37838 17.2631 4.03786 17.5692 3.74568L16.8787 3.02232ZM15.9304 4.34944C15.6917 4.8637 15.5719 5.40758 15.5719 5.976H16.5719C16.5719 5.55242 16.6602 5.1523 16.8374 4.77056L15.9304 4.34944ZM36.8959 2.88L37.3368 3.11584L37.7304 2.38H36.8959V2.88ZM27.8959 2.88H27.3959V3.38H27.8959V2.88ZM27.8959 1.104V0.603999H27.3959V1.104H27.8959ZM39.7999 1.104L40.2443 1.33314L40.6202 0.603999H39.7999V1.104ZM31.0879 18V18.5H31.3926L31.5323 18.2291L31.0879 18ZM28.8079 18L28.367 17.7642L27.9734 18.5H28.8079V18ZM36.8959 2.38H27.8959V3.38H36.8959V2.38ZM28.3959 2.88V1.104H27.3959V2.88H28.3959ZM27.8959 1.604H39.7999V0.603999H27.8959V1.604ZM39.3555 0.874854L30.6435 17.7709L31.5323 18.2291L40.2443 1.33314L39.3555 0.874854ZM31.0879 17.5H28.8079V18.5H31.0879V17.5ZM29.2488 18.2358L37.3368 3.11584L36.455 2.64416L28.367 17.7642L29.2488 18.2358ZM48.8715 14.136L49.3187 13.9124L49.124 13.5229L48.7115 13.6623L48.8715 14.136ZM49.3755 15.072L49.8013 14.81L49.3755 15.072ZM49.8795 15.696L50.2448 15.3546L50.239 15.3484L50.2331 15.3424L49.8795 15.696ZM55.3755 15.888L55.7154 16.2547L55.7157 16.2544L55.3755 15.888ZM51.8475 9.984H51.3475V10.484H51.8475V9.984ZM51.8475 8.208V7.708H51.3475V8.208H51.8475ZM52.6635 8.184L52.6302 7.6851L52.6279 7.68527L52.6635 8.184ZM53.2875 8.136L53.3328 8.63395L53.3513 8.63226L53.3697 8.6292L53.2875 8.136ZM53.7915 8.016L53.6478 7.53709L53.6406 7.53926L53.6334 7.54166L53.7915 8.016ZM54.2715 7.848L54.4572 8.31225L54.4597 8.31123L54.2715 7.848ZM55.4475 6.888L55.8707 7.15444L55.8749 7.14749L55.4475 6.888ZM55.0155 3.12L54.6671 3.47868L54.6725 3.4838L55.0155 3.12ZM50.9355 2.736L50.6844 2.30356L50.6783 2.30725L50.9355 2.736ZM49.6155 4.176L49.5064 4.66394L49.8599 4.74302L50.0451 4.43174L49.6155 4.176ZM47.7915 3.768L47.3287 3.57868L47.1045 4.12669L47.6824 4.25594L47.7915 3.768ZM49.6635 1.368L49.9409 1.78403L49.9427 1.78279L49.6635 1.368ZM54.7755 0.887999L54.5999 1.35628L54.6103 1.35993L54.7755 0.887999ZM56.4075 1.848L56.0672 2.21445L56.0737 2.22028L56.4075 1.848ZM57.4875 3.336L57.0306 3.53907L57.4875 3.336ZM55.4715 8.976L55.2588 8.52349L54.199 9.0216L55.2918 9.44257L55.4715 8.976ZM57.9915 15.456L57.5296 15.2645L57.9915 15.456ZM56.8155 17.136L56.4797 16.7655L56.4739 16.7709L56.8155 17.136ZM54.9915 18.192L54.8334 17.7176L54.824 17.7209L54.9915 18.192ZM50.3115 18.192L50.4933 17.7262L50.3115 18.192ZM48.5355 16.968L48.8993 16.625L48.8943 16.6196L48.8891 16.6144L48.5355 16.968ZM48.1515 16.536L48.5462 16.229V16.229L48.1515 16.536ZM47.8155 16.08L47.3766 16.3194L47.3899 16.3439L47.4059 16.3667L47.8155 16.08ZM47.4795 15.504L47.0393 15.7411L47.0461 15.7538L47.0537 15.766L47.4795 15.504ZM47.0955 14.736L46.9355 14.2623L46.4031 14.4422L46.6436 14.95L47.0955 14.736ZM48.4243 14.3596C48.6341 14.7793 48.8099 15.107 48.9497 15.334L49.8013 14.81C49.6851 14.621 49.5249 14.3247 49.3187 13.9124L48.4243 14.3596ZM48.9497 15.334C49.1018 15.5812 49.2958 15.8194 49.5259 16.0496L50.2331 15.3424C50.0472 15.1566 49.9052 14.9788 49.8013 14.81L48.9497 15.334ZM49.5142 16.0374C50.3134 16.8924 51.3915 17.3 52.6875 17.3V16.3C51.6155 16.3 50.8216 15.9716 50.2448 15.3546L49.5142 16.0374ZM52.6875 17.3C53.9142 17.3 54.9439 16.9697 55.7154 16.2547L55.0356 15.5213C54.4951 16.0223 53.7328 16.3 52.6875 16.3V17.3ZM55.7157 16.2544C56.5054 15.5211 56.8835 14.5399 56.8835 13.368H55.8835C55.8835 14.3081 55.5896 15.0069 55.0353 15.5216L55.7157 16.2544ZM56.8835 13.368C56.8835 12.1348 56.505 11.1281 55.6756 10.4442C54.8647 9.7756 53.7036 9.484 52.2795 9.484V10.484C53.5914 10.484 54.4823 10.7564 55.0394 11.2158C55.578 11.6599 55.8835 12.3452 55.8835 13.368H56.8835ZM52.2795 9.484H51.8475V10.484H52.2795V9.484ZM52.3475 9.984V8.208H51.3475V9.984H52.3475ZM51.8475 8.708C52.1749 8.708 52.4595 8.69985 52.6991 8.68273L52.6279 7.68527C52.4195 7.70015 52.1601 7.708 51.8475 7.708V8.708ZM52.6968 8.68289C52.9394 8.66671 53.1516 8.65041 53.3328 8.63395L53.2422 7.63805C53.0714 7.65359 52.8676 7.66929 52.6302 7.68511L52.6968 8.68289ZM53.3697 8.6292C53.5807 8.59404 53.7751 8.54852 53.9496 8.49034L53.6334 7.54166C53.5199 7.57947 53.3783 7.61396 53.2053 7.6428L53.3697 8.6292ZM53.9352 8.49491C54.1098 8.44252 54.2838 8.38158 54.4572 8.31224L54.0858 7.38376C53.9392 7.44242 53.7932 7.49348 53.6478 7.53709L53.9352 8.49491ZM54.4597 8.31123C55.0602 8.06726 55.5382 7.6824 55.8706 7.15441L55.0244 6.62159C54.8128 6.9576 54.5068 7.21274 54.0833 7.38477L54.4597 8.31123ZM55.8749 7.14749C56.2028 6.60749 56.3555 5.97793 56.3555 5.28H55.3555C55.3555 5.83007 55.2363 6.27251 55.0201 6.62851L55.8749 7.14749ZM56.3555 5.28C56.3555 4.25791 56.0372 3.39609 55.3585 2.75621L54.6725 3.4838C55.1138 3.89991 55.3555 4.47809 55.3555 5.28H56.3555ZM55.3639 2.76136C54.6917 2.10838 53.8047 1.804 52.7595 1.804V2.804C53.6023 2.804 54.2193 3.04362 54.6671 3.47864L55.3639 2.76136ZM52.7595 1.804C51.9735 1.804 51.2739 1.96136 50.6844 2.3036L51.1866 3.16839C51.5891 2.93464 52.1055 2.804 52.7595 2.804V1.804ZM50.6783 2.30725C50.1048 2.65131 49.6123 3.20389 49.1859 3.92026L50.0451 4.43174C50.4187 3.80411 50.8062 3.39669 51.1927 3.16475L50.6783 2.30725ZM49.7246 3.68806L47.9006 3.28006L47.6824 4.25594L49.5064 4.66394L49.7246 3.68806ZM48.2543 3.95732C48.6548 2.97821 49.2208 2.26405 49.9408 1.78402L49.3862 0.951974C48.4742 1.55995 47.7922 2.44579 47.3287 3.57868L48.2543 3.95732ZM49.9427 1.78279C50.6782 1.28776 51.5846 1.028 52.6875 1.028V0.0279989C51.4224 0.0279989 50.3128 0.32824 49.3843 0.953206L49.9427 1.78279ZM52.6875 1.028C53.3855 1.028 54.0214 1.13922 54.5999 1.35616L54.9511 0.419834C54.2496 0.156774 53.4935 0.0279989 52.6875 0.0279989V1.028ZM54.6103 1.35993C55.1925 1.56367 55.675 1.85013 56.0673 2.2144L56.7477 1.4816C56.244 1.01387 55.6385 0.660325 54.9407 0.41607L54.6103 1.35993ZM56.0737 2.22028C56.4846 2.58864 56.8029 3.02677 57.0306 3.53907L57.9444 3.13293C57.6601 2.49323 57.2584 1.93936 56.7413 1.47571L56.0737 2.22028ZM57.0306 3.53907C57.2557 4.04548 57.3715 4.60749 57.3715 5.232H58.3715C58.3715 4.4805 58.2313 3.77851 57.9444 3.13293L57.0306 3.53907ZM57.3715 5.232C57.3715 6.02551 57.1904 6.67602 56.8506 7.20617C56.5105 7.73674 55.9902 8.17975 55.2588 8.52349L55.6842 9.42851C56.5528 9.02025 57.2325 8.46326 57.6924 7.74583C58.1526 7.02798 58.3715 6.18249 58.3715 5.232H57.3715ZM55.2918 9.44257C56.1929 9.78975 56.8345 10.2796 57.2543 10.8956C57.6744 11.5119 57.8995 12.2942 57.8995 13.272H58.8995C58.8995 12.1378 58.6366 11.1481 58.0807 10.3324C57.5245 9.51637 56.7021 8.91425 55.6512 8.50943L55.2918 9.44257ZM57.8995 13.272C57.8995 14.0146 57.7735 14.6764 57.5296 15.2645L58.4534 15.6475C58.7535 14.9236 58.8995 14.1294 58.8995 13.272H57.8995ZM57.5296 15.2645C57.2851 15.8542 56.9355 16.3525 56.4797 16.7655L57.1513 17.5065C57.7196 16.9915 58.1539 16.3698 58.4534 15.6475L57.5296 15.2645ZM56.4739 16.7709C56.0364 17.1802 55.4931 17.4977 54.8334 17.7177L55.1496 18.6663C55.9299 18.4063 56.6026 18.0198 57.1571 17.5011L56.4739 16.7709ZM54.824 17.7209C54.1652 17.9551 53.4229 18.076 52.5915 18.076V19.076C53.5201 19.076 54.3778 18.9409 55.159 18.6631L54.824 17.7209ZM52.5915 18.076C51.776 18.076 51.0798 17.9551 50.4933 17.7262L50.1297 18.6578C50.8552 18.9409 51.679 19.076 52.5915 19.076V18.076ZM50.4933 17.7262C49.9125 17.4996 49.3813 17.1362 48.8993 16.625L48.1717 17.311C48.7457 17.9198 49.3985 18.3724 50.1297 18.6578L50.4933 17.7262ZM48.8891 16.6144C48.7581 16.4834 48.6441 16.3549 48.5462 16.229L47.7568 16.843C47.8829 17.0051 48.0249 17.1646 48.1819 17.3216L48.8891 16.6144ZM48.5462 16.229C48.4397 16.0921 48.3326 15.9469 48.2251 15.7933L47.4059 16.3667C47.5224 16.5331 47.6393 16.6919 47.7568 16.843L48.5462 16.229ZM48.2544 15.8406C48.1535 15.6555 48.037 15.4558 47.9053 15.242L47.0537 15.766C47.178 15.9682 47.2855 16.1525 47.3766 16.3194L48.2544 15.8406ZM47.9197 15.267C47.8131 15.0689 47.6891 14.8211 47.5474 14.522L46.6436 14.95C46.7899 15.2589 46.9219 15.5231 47.0393 15.7411L47.9197 15.267ZM47.2555 15.2097L49.0315 14.6097L48.7115 13.6623L46.9355 14.2623L47.2555 15.2097ZM65.9754 2.544H66.4754V2.044H65.9754V2.544ZM63.8154 2.544L63.3222 2.4618L63.2252 3.044H63.8154V2.544ZM64.0554 1.104V0.603999H63.6319L63.5622 1.0218L64.0554 1.104ZM67.9914 1.104H68.4914V0.603999H67.9914V1.104ZM67.9914 18V18.5H68.4914V18H67.9914ZM65.9754 18H65.4754V18.5H65.9754V18ZM65.9754 2.044H63.8154V3.044H65.9754V2.044ZM64.3086 2.6262L64.5486 1.1862L63.5622 1.0218L63.3222 2.4618L64.3086 2.6262ZM64.0554 1.604H67.9914V0.603999H64.0554V1.604ZM67.4914 1.104V18H68.4914V1.104H67.4914ZM67.9914 17.5H65.9754V18.5H67.9914V17.5ZM66.4754 18V2.544H65.4754V18H66.4754ZM74.5114 5.808L74.9969 5.92761L74.9973 5.926L74.5114 5.808ZM75.6874 2.976L75.2727 2.6967L75.2713 2.69865L75.6874 2.976ZM77.5594 1.176L77.8095 1.60894L77.8125 1.60721L77.5594 1.176ZM82.4794 1.176L82.222 1.60489L82.2333 1.61128L82.4794 1.176ZM84.3514 2.976L83.9326 3.24947L83.9394 3.25926L84.3514 2.976ZM85.5514 5.808L85.0655 5.926L85.0659 5.92761L85.5514 5.808ZM85.5514 13.32L86.0369 13.4396L86.0373 13.438L85.5514 13.32ZM84.3514 16.152L83.9367 15.8727L83.9353 15.8746L84.3514 16.152ZM82.4794 17.952L82.7295 18.3849L82.7325 18.3832L82.4794 17.952ZM77.5594 17.952L77.302 18.3809L77.3133 18.3873L77.5594 17.952ZM75.6874 16.152L75.2686 16.4255L75.2754 16.4353L75.6874 16.152ZM74.5114 13.32L74.0255 13.438L74.0259 13.4396L74.5114 13.32ZM77.1274 14.928L76.6871 15.1651L77.1274 14.928ZM82.9354 14.928L83.3756 15.1651L82.9354 14.928ZM77.1274 4.176L76.6871 3.93895L77.1274 4.176ZM74.6034 9.552C74.6034 8.19168 74.7364 6.98489 74.9969 5.92761L74.0259 5.68839C73.7424 6.8391 73.6034 8.12832 73.6034 9.552H74.6034ZM74.9973 5.926C75.2588 4.84923 75.6307 3.96233 76.1034 3.25335L75.2713 2.69865C74.72 3.52567 74.308 4.52677 74.0255 5.69L74.9973 5.926ZM76.1021 3.2553C76.5935 2.5257 77.1638 1.982 77.8095 1.60893L77.3092 0.743067C76.5149 1.202 75.8373 1.8583 75.2727 2.6967L76.1021 3.2553ZM77.8125 1.60721C78.4664 1.22335 79.202 1.028 80.0314 1.028V0.0279989C79.0367 0.0279989 78.1243 0.264645 77.3063 0.744792L77.8125 1.60721ZM80.0314 1.028C80.8608 1.028 81.5865 1.22336 82.2221 1.60475L82.7366 0.747252C81.9323 0.264641 81.0259 0.0279989 80.0314 0.0279989V1.028ZM82.2333 1.61128C82.8924 1.98382 83.4597 2.52507 83.9327 3.24939L84.77 2.7026C84.219 1.85893 83.5383 1.20018 82.7254 0.740718L82.2333 1.61128ZM83.9394 3.25926C84.4258 3.96683 84.8046 4.85162 85.0655 5.926L86.0373 5.69C85.7542 4.52438 85.3329 3.52117 84.7634 2.69273L83.9394 3.25926ZM85.0659 5.92761C85.3264 6.98489 85.4594 8.19168 85.4594 9.552H86.4594C86.4594 8.12832 86.3204 6.8391 86.0369 5.68839L85.0659 5.92761ZM85.4594 9.552C85.4594 10.9122 85.3264 12.1276 85.0655 13.202L86.0373 13.438C86.3203 12.2724 86.4594 10.9758 86.4594 9.552H85.4594ZM85.0659 13.2004C84.8052 14.2587 84.426 15.1461 83.9367 15.8727L84.7661 16.4313C85.3328 15.5899 85.7536 14.5893 86.0369 13.4396L85.0659 13.2004ZM83.9353 15.8746C83.4618 16.5849 82.8918 17.1301 82.2263 17.5208L82.7325 18.3832C83.5389 17.9099 84.2169 17.2551 84.7674 16.4293L83.9353 15.8746ZM82.2292 17.5191C81.5925 17.887 80.8643 18.076 80.0314 18.076V19.076C81.0225 19.076 81.9262 18.849 82.7295 18.3849L82.2292 17.5191ZM80.0314 18.076C79.1986 18.076 78.4605 17.887 77.8054 17.5167L77.3133 18.3873C78.1303 18.849 79.0402 19.076 80.0314 19.076V18.076ZM77.8166 17.5233C77.1645 17.132 76.5913 16.5843 76.0994 15.8687L75.2754 16.4353C75.8394 17.2557 76.5143 17.908 77.3021 18.3807L77.8166 17.5233ZM76.106 15.8786C75.6306 15.1506 75.2582 14.2611 74.9969 13.2004L74.0259 13.4396C74.3086 14.5869 74.7202 15.5854 75.2687 16.4254L76.106 15.8786ZM74.9973 13.202C74.7363 12.1276 74.6034 10.9122 74.6034 9.552H73.6034C73.6034 10.9758 73.7424 12.2724 74.0255 13.438L74.9973 13.202ZM75.6194 9.552C75.6194 11.9232 75.9583 13.8115 76.6871 15.1651L77.5676 14.691C76.9525 13.5485 76.6194 11.8528 76.6194 9.552H75.6194ZM76.6871 15.1651C77.0541 15.8465 77.5168 16.385 78.0865 16.7523C78.659 17.1213 79.313 17.3 80.0314 17.3V16.3C79.4857 16.3 79.0237 16.1667 78.6283 15.9117C78.2299 15.6549 77.8727 15.2575 77.5676 14.691L76.6871 15.1651ZM80.0314 17.3C80.7497 17.3 81.4037 17.1213 81.9763 16.7523C82.5459 16.385 83.0087 15.8465 83.3756 15.1651L82.4951 14.691C82.1901 15.2575 81.8328 15.6549 81.4345 15.9117C81.039 16.1667 80.577 16.3 80.0314 16.3V17.3ZM83.3756 15.1651C84.1045 13.8115 84.4434 11.9232 84.4434 9.552H83.4434C83.4434 11.8528 83.1103 13.5485 82.4951 14.691L83.3756 15.1651ZM84.4434 9.552C84.4434 7.18077 84.1045 5.29253 83.3756 3.93895L82.4951 4.41305C83.1103 5.55547 83.4434 7.25123 83.4434 9.552H84.4434ZM83.3756 3.93895C83.0087 3.25754 82.5459 2.71895 81.9763 2.35175C81.4037 1.98265 80.7497 1.804 80.0314 1.804V2.804C80.577 2.804 81.039 2.93734 81.4345 3.19225C81.8328 3.44905 82.1901 3.84646 82.4951 4.41305L83.3756 3.93895ZM80.0314 1.804C79.313 1.804 78.659 1.98265 78.0865 2.35175C77.5168 2.71895 77.0541 3.25754 76.6871 3.93895L77.5676 4.41305C77.8727 3.84646 78.2299 3.44905 78.6283 3.19225C79.0237 2.93734 79.4857 2.804 80.0314 2.804V1.804ZM76.6871 3.93895C75.9583 5.29253 75.6194 7.18077 75.6194 9.552H76.6194C76.6194 7.25123 76.9525 5.55547 77.5676 4.41305L76.6871 3.93895ZM94.527 5.808L95.0125 5.92761L95.0129 5.926L94.527 5.808ZM95.703 2.976L95.2883 2.6967L95.287 2.69865L95.703 2.976ZM97.575 1.176L97.8251 1.60894L97.8281 1.60721L97.575 1.176ZM102.495 1.176L102.238 1.60489L102.249 1.61128L102.495 1.176ZM104.367 2.976L103.948 3.24947L103.955 3.25926L104.367 2.976ZM105.567 5.808L105.081 5.926L105.082 5.92761L105.567 5.808ZM105.567 13.32L106.052 13.4396L106.053 13.438L105.567 13.32ZM104.367 16.152L103.952 15.8727L103.951 15.8746L104.367 16.152ZM102.495 17.952L102.745 18.3849L102.748 18.3832L102.495 17.952ZM97.575 17.952L97.3177 18.3809L97.329 18.3873L97.575 17.952ZM95.703 16.152L95.2842 16.4255L95.291 16.4353L95.703 16.152ZM94.527 13.32L94.0411 13.438L94.0415 13.4396L94.527 13.32ZM97.143 14.928L96.7028 15.1651L97.143 14.928ZM102.951 14.928L103.391 15.1651L102.951 14.928ZM97.143 4.176L96.7028 3.93895L97.143 4.176ZM94.619 9.552C94.619 8.19168 94.752 6.98489 95.0125 5.92761L94.0415 5.68839C93.758 6.8391 93.619 8.12832 93.619 9.552H94.619ZM95.0129 5.926C95.2744 4.84923 95.6464 3.96233 96.119 3.25335L95.287 2.69865C94.7356 3.52567 94.3236 4.52677 94.0411 5.69L95.0129 5.926ZM96.1177 3.2553C96.6091 2.5257 97.1794 1.982 97.8251 1.60893L97.3249 0.743067C96.5306 1.202 95.8529 1.8583 95.2883 2.6967L96.1177 3.2553ZM97.8281 1.60721C98.4821 1.22335 99.2177 1.028 100.047 1.028V0.0279989C99.0524 0.0279989 98.1399 0.264645 97.3219 0.744792L97.8281 1.60721ZM100.047 1.028C100.876 1.028 101.602 1.22336 102.238 1.60475L102.752 0.747252C101.948 0.264641 101.042 0.0279989 100.047 0.0279989V1.028ZM102.249 1.61128C102.908 1.98382 103.475 2.52507 103.948 3.24939L104.786 2.7026C104.235 1.85893 103.554 1.20018 102.741 0.740718L102.249 1.61128ZM103.955 3.25926C104.441 3.96683 104.82 4.85162 105.081 5.926L106.053 5.69C105.77 4.52438 105.349 3.52117 104.779 2.69273L103.955 3.25926ZM105.082 5.92761C105.342 6.98489 105.475 8.19168 105.475 9.552H106.475C106.475 8.12832 106.336 6.8391 106.052 5.68839L105.082 5.92761ZM105.475 9.552C105.475 10.9122 105.342 12.1276 105.081 13.202L106.053 13.438C106.336 12.2724 106.475 10.9758 106.475 9.552H105.475ZM105.082 13.2004C104.821 14.2587 104.442 15.1461 103.952 15.8727L104.782 16.4313C105.348 15.5899 105.769 14.5893 106.052 13.4396L105.082 13.2004ZM103.951 15.8746C103.477 16.5849 102.907 17.1301 102.242 17.5208L102.748 18.3832C103.555 17.9099 104.233 17.2551 104.783 16.4293L103.951 15.8746ZM102.245 17.5191C101.608 17.887 100.88 18.076 100.047 18.076V19.076C101.038 19.076 101.942 18.849 102.745 18.3849L102.245 17.5191ZM100.047 18.076C99.2142 18.076 98.4761 17.887 97.821 17.5167L97.329 18.3873C98.1459 18.849 99.0558 19.076 100.047 19.076V18.076ZM97.8322 17.5233C97.1801 17.132 96.6069 16.5843 96.115 15.8687L95.291 16.4353C95.8551 17.2557 96.5299 17.908 97.3177 18.3807L97.8322 17.5233ZM96.1216 15.8786C95.6462 15.1506 95.2738 14.2611 95.0125 13.2004L94.0415 13.4396C94.3242 14.5869 94.7358 15.5854 95.2844 16.4254L96.1216 15.8786ZM95.0129 13.202C94.752 12.1276 94.619 10.9122 94.619 9.552H93.619C93.619 10.9758 93.758 12.2724 94.0411 13.438L95.0129 13.202ZM95.635 9.552C95.635 11.9232 95.9739 13.8115 96.7028 15.1651L97.5832 14.691C96.9681 13.5485 96.635 11.8528 96.635 9.552H95.635ZM96.7028 15.1651C97.0697 15.8465 97.5325 16.385 98.1021 16.7523C98.6747 17.1213 99.3286 17.3 100.047 17.3V16.3C99.5014 16.3 99.0393 16.1667 98.6439 15.9117C98.2455 15.6549 97.8883 15.2575 97.5832 14.691L96.7028 15.1651ZM100.047 17.3C100.765 17.3 101.419 17.1213 101.992 16.7523C102.562 16.385 103.024 15.8465 103.391 15.1651L102.511 14.691C102.206 15.2575 101.848 15.6549 101.45 15.9117C101.055 16.1667 100.593 16.3 100.047 16.3V17.3ZM103.391 15.1651C104.12 13.8115 104.459 11.9232 104.459 9.552H103.459C103.459 11.8528 103.126 13.5485 102.511 14.691L103.391 15.1651ZM104.459 9.552C104.459 7.18077 104.12 5.29253 103.391 3.93895L102.511 4.41305C103.126 5.55547 103.459 7.25123 103.459 9.552H104.459ZM103.391 3.93895C103.024 3.25754 102.562 2.71895 101.992 2.35175C101.419 1.98265 100.765 1.804 100.047 1.804V2.804C100.593 2.804 101.055 2.93734 101.45 3.19225C101.848 3.44905 102.206 3.84646 102.511 4.41305L103.391 3.93895ZM100.047 1.804C99.3286 1.804 98.6747 1.98265 98.1021 2.35175C97.5325 2.71895 97.0697 3.25754 96.7028 3.93895L97.5832 4.41305C97.8883 3.84646 98.2455 3.44905 98.6439 3.19225C99.0393 2.93734 99.5014 2.804 100.047 2.804V1.804ZM96.7028 3.93895C95.9739 5.29253 95.635 7.18077 95.635 9.552H96.635C96.635 7.25123 96.9681 5.55547 97.5832 4.41305L96.7028 3.93895ZM116.935 2.88L117.376 3.11584L117.769 2.38H116.935V2.88ZM107.935 2.88H107.435V3.38H107.935V2.88ZM107.935 1.104V0.603999H107.435V1.104H107.935ZM119.839 1.104L120.283 1.33314L120.659 0.603999H119.839V1.104ZM111.127 18V18.5H111.432L111.571 18.2291L111.127 18ZM108.847 18L108.406 17.7642L108.012 18.5H108.847V18ZM116.935 2.38H107.935V3.38H116.935V2.38ZM108.435 2.88V1.104H107.435V2.88H108.435ZM107.935 1.604H119.839V0.603999H107.935V1.604ZM119.395 0.874854L110.683 17.7709L111.571 18.2291L120.283 1.33314L119.395 0.874854ZM111.127 17.5H108.847V18.5H111.127V17.5ZM109.288 18.2358L117.376 3.11584L116.494 2.64416L108.406 17.7642L109.288 18.2358ZM121.199 5.808L121.684 5.92761L121.685 5.926L121.199 5.808ZM122.375 2.976L121.96 2.6967L121.959 2.69865L122.375 2.976ZM124.247 1.176L124.497 1.60894L124.5 1.60721L124.247 1.176ZM129.167 1.176L128.91 1.60489L128.921 1.61128L129.167 1.176ZM131.039 2.976L130.62 3.24947L130.627 3.25926L131.039 2.976ZM132.239 5.808L131.753 5.926L131.753 5.92761L132.239 5.808ZM132.239 13.32L132.724 13.4396L132.725 13.438L132.239 13.32ZM131.039 16.152L130.624 15.8727L130.623 15.8746L131.039 16.152ZM129.167 17.952L129.417 18.3849L129.42 18.3832L129.167 17.952ZM124.247 17.952L123.99 18.3809L124.001 18.3873L124.247 17.952ZM122.375 16.152L121.956 16.4255L121.963 16.4353L122.375 16.152ZM121.199 13.32L120.713 13.438L120.713 13.4396L121.199 13.32ZM123.815 14.928L123.375 15.1651L123.815 14.928ZM129.623 14.928L130.063 15.1651L129.623 14.928ZM123.815 4.176L123.375 3.93895L123.815 4.176ZM121.291 9.552C121.291 8.19168 121.424 6.98489 121.684 5.92761L120.713 5.68839C120.43 6.8391 120.291 8.12832 120.291 9.552H121.291ZM121.685 5.926C121.946 4.84923 122.318 3.96233 122.791 3.25335L121.959 2.69865C121.408 3.52567 120.995 4.52677 120.713 5.69L121.685 5.926ZM122.79 3.2553C123.281 2.5257 123.851 1.982 124.497 1.60893L123.997 0.743067C123.202 1.202 122.525 1.8583 121.96 2.6967L122.79 3.2553ZM124.5 1.60721C125.154 1.22335 125.89 1.028 126.719 1.028V0.0279989C125.724 0.0279989 124.812 0.264645 123.994 0.744792L124.5 1.60721ZM126.719 1.028C127.548 1.028 128.274 1.22336 128.91 1.60475L129.424 0.747252C128.62 0.264641 127.713 0.0279989 126.719 0.0279989V1.028ZM128.921 1.61128C129.58 1.98382 130.147 2.52507 130.62 3.24939L131.458 2.7026C130.907 1.85893 130.226 1.20018 129.413 0.740718L128.921 1.61128ZM130.627 3.25926C131.113 3.96683 131.492 4.85162 131.753 5.926L132.725 5.69C132.442 4.52438 132.02 3.52117 131.451 2.69273L130.627 3.25926ZM131.753 5.92761C132.014 6.98489 132.147 8.19168 132.147 9.552H133.147C133.147 8.12832 133.008 6.8391 132.724 5.68839L131.753 5.92761ZM132.147 9.552C132.147 10.9122 132.014 12.1276 131.753 13.202L132.725 13.438C133.008 12.2724 133.147 10.9758 133.147 9.552H132.147ZM131.753 13.2004C131.493 14.2587 131.113 15.1461 130.624 15.8727L131.454 16.4313C132.02 15.5899 132.441 14.5893 132.724 13.4396L131.753 13.2004ZM130.623 15.8746C130.149 16.5849 129.579 17.1301 128.914 17.5208L129.42 18.3832C130.226 17.9099 130.904 17.2551 131.455 16.4293L130.623 15.8746ZM128.917 17.5191C128.28 17.887 127.552 18.076 126.719 18.076V19.076C127.71 19.076 128.614 18.849 129.417 18.3849L128.917 17.5191ZM126.719 18.076C125.886 18.076 125.148 17.887 124.493 17.5167L124.001 18.3873C124.818 18.849 125.728 19.076 126.719 19.076V18.076ZM124.504 17.5233C123.852 17.132 123.279 16.5843 122.787 15.8687L121.963 16.4353C122.527 17.2557 123.202 17.908 123.99 18.3807L124.504 17.5233ZM122.794 15.8786C122.318 15.1506 121.946 14.2611 121.684 13.2004L120.713 13.4396C120.996 14.5869 121.408 15.5854 121.956 16.4254L122.794 15.8786ZM121.685 13.202C121.424 12.1276 121.291 10.9122 121.291 9.552H120.291C120.291 10.9758 120.43 12.2724 120.713 13.438L121.685 13.202ZM122.307 9.552C122.307 11.9232 122.646 13.8115 123.375 15.1651L124.255 14.691C123.64 13.5485 123.307 11.8528 123.307 9.552H122.307ZM123.375 15.1651C123.742 15.8465 124.204 16.385 124.774 16.7523C125.347 17.1213 126.001 17.3 126.719 17.3V16.3C126.173 16.3 125.711 16.1667 125.316 15.9117C124.917 15.6549 124.56 15.2575 124.255 14.691L123.375 15.1651ZM126.719 17.3C127.437 17.3 128.091 17.1213 128.664 16.7523C129.233 16.385 129.696 15.8465 130.063 15.1651L129.183 14.691C128.878 15.2575 128.52 15.6549 128.122 15.9117C127.727 16.1667 127.265 16.3 126.719 16.3V17.3ZM130.063 15.1651C130.792 13.8115 131.131 11.9232 131.131 9.552H130.131C130.131 11.8528 129.798 13.5485 129.183 14.691L130.063 15.1651ZM131.131 9.552C131.131 7.18077 130.792 5.29253 130.063 3.93895L129.183 4.41305C129.798 5.55547 130.131 7.25123 130.131 9.552H131.131ZM130.063 3.93895C129.696 3.25754 129.233 2.71895 128.664 2.35175C128.091 1.98265 127.437 1.804 126.719 1.804V2.804C127.265 2.804 127.727 2.93734 128.122 3.19225C128.52 3.44905 128.878 3.84646 129.183 4.41305L130.063 3.93895ZM126.719 1.804C126.001 1.804 125.347 1.98265 124.774 2.35175C124.204 2.71895 123.742 3.25754 123.375 3.93895L124.255 4.41305C124.56 3.84646 124.917 3.44905 125.316 3.19225C125.711 2.93734 126.173 2.804 126.719 2.804V1.804ZM123.375 3.93895C122.646 5.29253 122.307 7.18077 122.307 9.552H123.307C123.307 7.25123 123.64 5.55547 124.255 4.41305L123.375 3.93895Z" fill="#8A573C" mask="url(#path-1-outside-1_112_1778)"/>
</svg>
